<?xml version="1.0" standalone="no"?>
 <!DOCTYPE svg PUBLIC "-//W3C//DTD SVG 1.1//EN" 
 "http://www.w3.org/Graphics/SVG/1.1/DTD/svg11.dtd"> 
<svg
  xmlns:svg="http://www.w3.org/2000/svg"
  xmlns="http://www.w3.org/2000/svg"
  xmlns:xlink="http://www.w3.org/1999/xlink"
  version="1.1"
  width="29.700220cm" height="21.000720cm" viewBox="0 0 116930 82680">
<title>SVG Picture created as USBTINYISP_MICRO_USB-F_Fab.svg date 2020/06/29 16:06:12 </title>
  <desc>Picture generated by PCBNEW </desc>
<g style="fill:#000000; fill-opacity:1;stroke:#000000; stroke-opacity:1;
stroke-linecap:round; stroke-linejoin:round;"
 transform="translate(0 0) scale(1 1)">
</g>
<g style="fill:#000000; fill-opacity:0.0; 
stroke:#000000; stroke-width:-0.000393701; stroke-opacity:1; 
stroke-linecap:round; stroke-linejoin:round;">
</g>
<g style="fill:#000000; fill-opacity:0.0; 
stroke:#000000; stroke-width:7.87402; stroke-opacity:1; 
stroke-linecap:round; stroke-linejoin:round;">
</g>
<g style="fill:#000000; fill-opacity:0.0; 
stroke:#000000; stroke-width:59.0551; stroke-opacity:1; 
stroke-linecap:round; stroke-linejoin:round;">
<rect x="69685.9" y="65357.2" width="42519.7" height="12598.4" rx="0" />
</g>
<g style="fill:#000000; fill-opacity:0.0; 
stroke:#000000; stroke-width:7.87402; stroke-opacity:1; 
stroke-linecap:round; stroke-linejoin:round;">
</g>
<g style="fill:#000000; fill-opacity:0.0; 
stroke:#000000; stroke-width:59.0551; stroke-opacity:1; 
stroke-linecap:round; stroke-linejoin:round;">
<rect x="3937.01" y="3937.01" width="109056" height="74806" rx="0" />
</g>
<g style="fill:#000000; fill-opacity:0.0; 
stroke:#000000; stroke-width:7.87402; stroke-opacity:1; 
stroke-linecap:round; stroke-linejoin:round;">
</g>
<g style="fill:#000000; fill-opacity:0.0; 
stroke:#000000; stroke-width:59.0551; stroke-opacity:1; 
stroke-linecap:round; stroke-linejoin:round;">
<rect x="4724.41" y="4724.41" width="107481" height="73231.2" rx="0" />
</g>
<g style="fill:#000000; fill-opacity:0.0; 
stroke:#000000; stroke-width:7.87402; stroke-opacity:1; 
stroke-linecap:round; stroke-linejoin:round;">
</g>
<g style="fill:#000000; fill-opacity:0.0; 
stroke:#000000; stroke-width:59.0551; stroke-opacity:1; 
stroke-linecap:round; stroke-linejoin:round;">
<path d="M23622 4724
L23622 3937
" />
</g>
<g style="fill:#000000; fill-opacity:0.0; 
stroke:#000000; stroke-width:7.87402; stroke-opacity:1; 
stroke-linecap:round; stroke-linejoin:round;">
</g>
<g style="fill:#000000; fill-opacity:0.0; 
stroke:#000000; stroke-width:59.0551; stroke-opacity:1; 
stroke-linecap:round; stroke-linejoin:round;">
<path d="M43307 4724
L43307 3937
" />
</g>
<g style="fill:#000000; fill-opacity:0.0; 
stroke:#000000; stroke-width:7.87402; stroke-opacity:1; 
stroke-linecap:round; stroke-linejoin:round;">
</g>
<g style="fill:#000000; fill-opacity:0.0; 
stroke:#000000; stroke-width:59.0551; stroke-opacity:1; 
stroke-linecap:round; stroke-linejoin:round;">
<path d="M62992 4724
L62992 3937
" />
</g>
<g style="fill:#000000; fill-opacity:0.0; 
stroke:#000000; stroke-width:7.87402; stroke-opacity:1; 
stroke-linecap:round; stroke-linejoin:round;">
</g>
<g style="fill:#000000; fill-opacity:0.0; 
stroke:#000000; stroke-width:59.0551; stroke-opacity:1; 
stroke-linecap:round; stroke-linejoin:round;">
<path d="M82677 4724
L82677 3937
" />
</g>
<g style="fill:#000000; fill-opacity:0.0; 
stroke:#000000; stroke-width:7.87402; stroke-opacity:1; 
stroke-linecap:round; stroke-linejoin:round;">
</g>
<g style="fill:#000000; fill-opacity:0.0; 
stroke:#000000; stroke-width:59.0551; stroke-opacity:1; 
stroke-linecap:round; stroke-linejoin:round;">
<path d="M102362 4724
L102362 3937
" />
</g>
<g style="fill:#000000; fill-opacity:0.0; 
stroke:#000000; stroke-width:7.87402; stroke-opacity:1; 
stroke-linecap:round; stroke-linejoin:round;">
</g>
<g style="fill:#000000; fill-opacity:0.0; 
stroke:#000000; stroke-width:59.0551; stroke-opacity:1; 
stroke-linecap:round; stroke-linejoin:round;">
<text x="13779.5" y="4586.61"
textLength="546.494" font-size="682.415" lengthAdjust="spacingAndGlyphs"
text-anchor="start" opacity="0">1</text>
<path d="M14199 4562
L13906 4562
" />
<path d="M14052 4562
L14052 4050
L14004 4123
L13955 4172
L13906 4196
" />
</g>
<g style="fill:#000000; fill-opacity:0.0; 
stroke:#000000; stroke-width:7.87402; stroke-opacity:1; 
stroke-linecap:round; stroke-linejoin:round;">
</g>
<g style="fill:#000000; fill-opacity:0.0; 
stroke:#000000; stroke-width:59.0551; stroke-opacity:1; 
stroke-linecap:round; stroke-linejoin:round;">
<text x="33464.6" y="4586.61"
textLength="546.494" font-size="682.415" lengthAdjust="spacingAndGlyphs"
text-anchor="start" opacity="0">2</text>
<path d="M33591 4099
L33615 4074
L33664 4050
L33786 4050
L33835 4074
L33859 4099
L33884 4147
L33884 4196
L33859 4269
L33567 4562
L33884 4562
" />
</g>
<g style="fill:#000000; fill-opacity:0.0; 
stroke:#000000; stroke-width:7.87402; stroke-opacity:1; 
stroke-linecap:round; stroke-linejoin:round;">
</g>
<g style="fill:#000000; fill-opacity:0.0; 
stroke:#000000; stroke-width:59.0551; stroke-opacity:1; 
stroke-linecap:round; stroke-linejoin:round;">
<text x="53149.6" y="4586.61"
textLength="546.494" font-size="682.415" lengthAdjust="spacingAndGlyphs"
text-anchor="start" opacity="0">3</text>
<path d="M53252 4050
L53569 4050
L53398 4245
L53471 4245
L53520 4269
L53544 4294
L53569 4342
L53569 4464
L53544 4513
L53520 4537
L53471 4562
L53325 4562
L53276 4537
L53252 4513
" />
</g>
<g style="fill:#000000; fill-opacity:0.0; 
stroke:#000000; stroke-width:7.87402; stroke-opacity:1; 
stroke-linecap:round; stroke-linejoin:round;">
</g>
<g style="fill:#000000; fill-opacity:0.0; 
stroke:#000000; stroke-width:59.0551; stroke-opacity:1; 
stroke-linecap:round; stroke-linejoin:round;">
<text x="72834.6" y="4586.61"
textLength="546.494" font-size="682.415" lengthAdjust="spacingAndGlyphs"
text-anchor="start" opacity="0">4</text>
<path d="M73205 4221
L73205 4562
" />
<path d="M73083 4026
L72961 4391
L73278 4391
" />
</g>
<g style="fill:#000000; fill-opacity:0.0; 
stroke:#000000; stroke-width:7.87402; stroke-opacity:1; 
stroke-linecap:round; stroke-linejoin:round;">
</g>
<g style="fill:#000000; fill-opacity:0.0; 
stroke:#000000; stroke-width:59.0551; stroke-opacity:1; 
stroke-linecap:round; stroke-linejoin:round;">
<text x="92519.7" y="4586.61"
textLength="546.494" font-size="682.415" lengthAdjust="spacingAndGlyphs"
text-anchor="start" opacity="0">5</text>
<path d="M92914 4050
L92671 4050
L92646 4294
L92671 4269
L92719 4245
L92841 4245
L92890 4269
L92914 4294
L92939 4342
L92939 4464
L92914 4513
L92890 4537
L92841 4562
L92719 4562
L92671 4537
L92646 4513
" />
</g>
<g style="fill:#000000; fill-opacity:0.0; 
stroke:#000000; stroke-width:7.87402; stroke-opacity:1; 
stroke-linecap:round; stroke-linejoin:round;">
</g>
<g style="fill:#000000; fill-opacity:0.0; 
stroke:#000000; stroke-width:59.0551; stroke-opacity:1; 
stroke-linecap:round; stroke-linejoin:round;">
<text x="112205" y="4586.61"
textLength="546.494" font-size="682.415" lengthAdjust="spacingAndGlyphs"
text-anchor="start" opacity="0">6</text>
<path d="M112575 4050
L112477 4050
L112429 4074
L112404 4099
L112356 4172
L112331 4269
L112331 4464
L112356 4513
L112380 4537
L112429 4562
L112526 4562
L112575 4537
L112599 4513
L112624 4464
L112624 4342
L112599 4294
L112575 4269
L112526 4245
L112429 4245
L112380 4269
L112356 4294
L112331 4342
" />
</g>
<g style="fill:#000000; fill-opacity:0.0; 
stroke:#000000; stroke-width:7.87402; stroke-opacity:1; 
stroke-linecap:round; stroke-linejoin:round;">
</g>
<g style="fill:#000000; fill-opacity:0.0; 
stroke:#000000; stroke-width:59.0551; stroke-opacity:1; 
stroke-linecap:round; stroke-linejoin:round;">
<path d="M23622 77955
L23622 78742
" />
</g>
<g style="fill:#000000; fill-opacity:0.0; 
stroke:#000000; stroke-width:7.87402; stroke-opacity:1; 
stroke-linecap:round; stroke-linejoin:round;">
</g>
<g style="fill:#000000; fill-opacity:0.0; 
stroke:#000000; stroke-width:59.0551; stroke-opacity:1; 
stroke-linecap:round; stroke-linejoin:round;">
<path d="M43307 77955
L43307 78742
" />
</g>
<g style="fill:#000000; fill-opacity:0.0; 
stroke:#000000; stroke-width:7.87402; stroke-opacity:1; 
stroke-linecap:round; stroke-linejoin:round;">
</g>
<g style="fill:#000000; fill-opacity:0.0; 
stroke:#000000; stroke-width:59.0551; stroke-opacity:1; 
stroke-linecap:round; stroke-linejoin:round;">
<path d="M62992 77955
L62992 78742
" />
</g>
<g style="fill:#000000; fill-opacity:0.0; 
stroke:#000000; stroke-width:7.87402; stroke-opacity:1; 
stroke-linecap:round; stroke-linejoin:round;">
</g>
<g style="fill:#000000; fill-opacity:0.0; 
stroke:#000000; stroke-width:59.0551; stroke-opacity:1; 
stroke-linecap:round; stroke-linejoin:round;">
<path d="M82677 77955
L82677 78742
" />
</g>
<g style="fill:#000000; fill-opacity:0.0; 
stroke:#000000; stroke-width:7.87402; stroke-opacity:1; 
stroke-linecap:round; stroke-linejoin:round;">
</g>
<g style="fill:#000000; fill-opacity:0.0; 
stroke:#000000; stroke-width:59.0551; stroke-opacity:1; 
stroke-linecap:round; stroke-linejoin:round;">
<path d="M102362 77955
L102362 78742
" />
</g>
<g style="fill:#000000; fill-opacity:0.0; 
stroke:#000000; stroke-width:7.87402; stroke-opacity:1; 
stroke-linecap:round; stroke-linejoin:round;">
</g>
<g style="fill:#000000; fill-opacity:0.0; 
stroke:#000000; stroke-width:59.0551; stroke-opacity:1; 
stroke-linecap:round; stroke-linejoin:round;">
<text x="13779.5" y="78605.2"
textLength="546.494" font-size="682.415" lengthAdjust="spacingAndGlyphs"
text-anchor="start" opacity="0">1</text>
<path d="M14199 78580
L13906 78580
" />
<path d="M14052 78580
L14052 78069
L14004 78142
L13955 78190
L13906 78215
" />
</g>
<g style="fill:#000000; fill-opacity:0.0; 
stroke:#000000; stroke-width:7.87402; stroke-opacity:1; 
stroke-linecap:round; stroke-linejoin:round;">
</g>
<g style="fill:#000000; fill-opacity:0.0; 
stroke:#000000; stroke-width:59.0551; stroke-opacity:1; 
stroke-linecap:round; stroke-linejoin:round;">
<text x="33464.6" y="78605.2"
textLength="546.494" font-size="682.415" lengthAdjust="spacingAndGlyphs"
text-anchor="start" opacity="0">2</text>
<path d="M33591 78117
L33615 78093
L33664 78069
L33786 78069
L33835 78093
L33859 78117
L33884 78166
L33884 78215
L33859 78288
L33567 78580
L33884 78580
" />
</g>
<g style="fill:#000000; fill-opacity:0.0; 
stroke:#000000; stroke-width:7.87402; stroke-opacity:1; 
stroke-linecap:round; stroke-linejoin:round;">
</g>
<g style="fill:#000000; fill-opacity:0.0; 
stroke:#000000; stroke-width:59.0551; stroke-opacity:1; 
stroke-linecap:round; stroke-linejoin:round;">
<text x="53149.6" y="78605.2"
textLength="546.494" font-size="682.415" lengthAdjust="spacingAndGlyphs"
text-anchor="start" opacity="0">3</text>
<path d="M53252 78069
L53569 78069
L53398 78263
L53471 78263
L53520 78288
L53544 78312
L53569 78361
L53569 78483
L53544 78532
L53520 78556
L53471 78580
L53325 78580
L53276 78556
L53252 78532
" />
</g>
<g style="fill:#000000; fill-opacity:0.0; 
stroke:#000000; stroke-width:7.87402; stroke-opacity:1; 
stroke-linecap:round; stroke-linejoin:round;">
</g>
<g style="fill:#000000; fill-opacity:0.0; 
stroke:#000000; stroke-width:59.0551; stroke-opacity:1; 
stroke-linecap:round; stroke-linejoin:round;">
<text x="72834.6" y="78605.2"
textLength="546.494" font-size="682.415" lengthAdjust="spacingAndGlyphs"
text-anchor="start" opacity="0">4</text>
<path d="M73205 78239
L73205 78580
" />
<path d="M73083 78044
L72961 78410
L73278 78410
" />
</g>
<g style="fill:#000000; fill-opacity:0.0; 
stroke:#000000; stroke-width:7.87402; stroke-opacity:1; 
stroke-linecap:round; stroke-linejoin:round;">
</g>
<g style="fill:#000000; fill-opacity:0.0; 
stroke:#000000; stroke-width:59.0551; stroke-opacity:1; 
stroke-linecap:round; stroke-linejoin:round;">
<text x="92519.7" y="78605.2"
textLength="546.494" font-size="682.415" lengthAdjust="spacingAndGlyphs"
text-anchor="start" opacity="0">5</text>
<path d="M92914 78069
L92671 78069
L92646 78312
L92671 78288
L92719 78263
L92841 78263
L92890 78288
L92914 78312
L92939 78361
L92939 78483
L92914 78532
L92890 78556
L92841 78580
L92719 78580
L92671 78556
L92646 78532
" />
</g>
<g style="fill:#000000; fill-opacity:0.0; 
stroke:#000000; stroke-width:7.87402; stroke-opacity:1; 
stroke-linecap:round; stroke-linejoin:round;">
</g>
<g style="fill:#000000; fill-opacity:0.0; 
stroke:#000000; stroke-width:59.0551; stroke-opacity:1; 
stroke-linecap:round; stroke-linejoin:round;">
<text x="112205" y="78605.2"
textLength="546.494" font-size="682.415" lengthAdjust="spacingAndGlyphs"
text-anchor="start" opacity="0">6</text>
<path d="M112575 78069
L112477 78069
L112429 78093
L112404 78117
L112356 78190
L112331 78288
L112331 78483
L112356 78532
L112380 78556
L112429 78580
L112526 78580
L112575 78556
L112599 78532
L112624 78483
L112624 78361
L112599 78312
L112575 78288
L112526 78263
L112429 78263
L112380 78288
L112356 78312
L112331 78361
" />
</g>
<g style="fill:#000000; fill-opacity:0.0; 
stroke:#000000; stroke-width:7.87402; stroke-opacity:1; 
stroke-linecap:round; stroke-linejoin:round;">
</g>
<g style="fill:#000000; fill-opacity:0.0; 
stroke:#000000; stroke-width:59.0551; stroke-opacity:1; 
stroke-linecap:round; stroke-linejoin:round;">
<path d="M3937 23622
L4724 23622
" />
</g>
<g style="fill:#000000; fill-opacity:0.0; 
stroke:#000000; stroke-width:7.87402; stroke-opacity:1; 
stroke-linecap:round; stroke-linejoin:round;">
</g>
<g style="fill:#000000; fill-opacity:0.0; 
stroke:#000000; stroke-width:59.0551; stroke-opacity:1; 
stroke-linecap:round; stroke-linejoin:round;">
<path d="M3937 43307
L4724 43307
" />
</g>
<g style="fill:#000000; fill-opacity:0.0; 
stroke:#000000; stroke-width:7.87402; stroke-opacity:1; 
stroke-linecap:round; stroke-linejoin:round;">
</g>
<g style="fill:#000000; fill-opacity:0.0; 
stroke:#000000; stroke-width:59.0551; stroke-opacity:1; 
stroke-linecap:round; stroke-linejoin:round;">
<path d="M3937 62992
L4724 62992
" />
</g>
<g style="fill:#000000; fill-opacity:0.0; 
stroke:#000000; stroke-width:7.87402; stroke-opacity:1; 
stroke-linecap:round; stroke-linejoin:round;">
</g>
<g style="fill:#000000; fill-opacity:0.0; 
stroke:#000000; stroke-width:59.0551; stroke-opacity:1; 
stroke-linecap:round; stroke-linejoin:round;">
<text x="4330.71" y="14035.4"
textLength="497.75" font-size="682.415" lengthAdjust="spacingAndGlyphs"
text-anchor="middle" opacity="0">A</text>
<path d="M4208 13864
L4452 13864
" />
<path d="M4160 14011
L4330 13499
L4501 14011
" />
</g>
<g style="fill:#000000; fill-opacity:0.0; 
stroke:#000000; stroke-width:7.87402; stroke-opacity:1; 
stroke-linecap:round; stroke-linejoin:round;">
</g>
<g style="fill:#000000; fill-opacity:0.0; 
stroke:#000000; stroke-width:59.0551; stroke-opacity:1; 
stroke-linecap:round; stroke-linejoin:round;">
<text x="4330.71" y="33720.5"
textLength="570.866" font-size="682.415" lengthAdjust="spacingAndGlyphs"
text-anchor="middle" opacity="0">B</text>
<path d="M4367 33428
L4440 33452
L4464 33476
L4489 33525
L4489 33598
L4464 33647
L4440 33671
L4391 33696
L4196 33696
L4196 33184
L4367 33184
L4416 33208
L4440 33233
L4464 33281
L4464 33330
L4440 33379
L4416 33403
L4367 33428
L4196 33428
" />
</g>
<g style="fill:#000000; fill-opacity:0.0; 
stroke:#000000; stroke-width:7.87402; stroke-opacity:1; 
stroke-linecap:round; stroke-linejoin:round;">
</g>
<g style="fill:#000000; fill-opacity:0.0; 
stroke:#000000; stroke-width:59.0551; stroke-opacity:1; 
stroke-linecap:round; stroke-linejoin:round;">
<text x="4330.71" y="53405.5"
textLength="570.866" font-size="682.415" lengthAdjust="spacingAndGlyphs"
text-anchor="middle" opacity="0">C</text>
<path d="M4489 53332
L4464 53356
L4391 53381
L4342 53381
L4269 53356
L4221 53308
L4196 53259
L4172 53161
L4172 53088
L4196 52991
L4221 52942
L4269 52893
L4342 52869
L4391 52869
L4464 52893
L4489 52918
" />
</g>
<g style="fill:#000000; fill-opacity:0.0; 
stroke:#000000; stroke-width:7.87402; stroke-opacity:1; 
stroke-linecap:round; stroke-linejoin:round;">
</g>
<g style="fill:#000000; fill-opacity:0.0; 
stroke:#000000; stroke-width:59.0551; stroke-opacity:1; 
stroke-linecap:round; stroke-linejoin:round;">
<text x="4330.71" y="73090.6"
textLength="570.866" font-size="682.415" lengthAdjust="spacingAndGlyphs"
text-anchor="middle" opacity="0">D</text>
<path d="M4196 73066
L4196 72554
L4318 72554
L4391 72578
L4440 72627
L4464 72676
L4489 72773
L4489 72846
L4464 72944
L4440 72993
L4391 73041
L4318 73066
L4196 73066
" />
</g>
<g style="fill:#000000; fill-opacity:0.0; 
stroke:#000000; stroke-width:7.87402; stroke-opacity:1; 
stroke-linecap:round; stroke-linejoin:round;">
</g>
<g style="fill:#000000; fill-opacity:0.0; 
stroke:#000000; stroke-width:59.0551; stroke-opacity:1; 
stroke-linecap:round; stroke-linejoin:round;">
<path d="M112992 23622
L112205 23622
" />
</g>
<g style="fill:#000000; fill-opacity:0.0; 
stroke:#000000; stroke-width:7.87402; stroke-opacity:1; 
stroke-linecap:round; stroke-linejoin:round;">
</g>
<g style="fill:#000000; fill-opacity:0.0; 
stroke:#000000; stroke-width:59.0551; stroke-opacity:1; 
stroke-linecap:round; stroke-linejoin:round;">
<path d="M112992 43307
L112205 43307
" />
</g>
<g style="fill:#000000; fill-opacity:0.0; 
stroke:#000000; stroke-width:7.87402; stroke-opacity:1; 
stroke-linecap:round; stroke-linejoin:round;">
</g>
<g style="fill:#000000; fill-opacity:0.0; 
stroke:#000000; stroke-width:59.0551; stroke-opacity:1; 
stroke-linecap:round; stroke-linejoin:round;">
<path d="M112992 62992
L112205 62992
" />
</g>
<g style="fill:#000000; fill-opacity:0.0; 
stroke:#000000; stroke-width:7.87402; stroke-opacity:1; 
stroke-linecap:round; stroke-linejoin:round;">
</g>
<g style="fill:#000000; fill-opacity:0.0; 
stroke:#000000; stroke-width:59.0551; stroke-opacity:1; 
stroke-linecap:round; stroke-linejoin:round;">
<text x="112599" y="14035.4"
textLength="497.75" font-size="682.415" lengthAdjust="spacingAndGlyphs"
text-anchor="middle" opacity="0">A</text>
<path d="M112477 13864
L112721 13864
" />
<path d="M112428 14011
L112599 13499
L112769 14011
" />
</g>
<g style="fill:#000000; fill-opacity:0.0; 
stroke:#000000; stroke-width:7.87402; stroke-opacity:1; 
stroke-linecap:round; stroke-linejoin:round;">
</g>
<g style="fill:#000000; fill-opacity:0.0; 
stroke:#000000; stroke-width:59.0551; stroke-opacity:1; 
stroke-linecap:round; stroke-linejoin:round;">
<text x="112599" y="33720.5"
textLength="570.866" font-size="682.415" lengthAdjust="spacingAndGlyphs"
text-anchor="middle" opacity="0">B</text>
<path d="M112635 33428
L112708 33452
L112733 33476
L112757 33525
L112757 33598
L112733 33647
L112708 33671
L112660 33696
L112465 33696
L112465 33184
L112635 33184
L112684 33208
L112708 33233
L112733 33281
L112733 33330
L112708 33379
L112684 33403
L112635 33428
L112465 33428
" />
</g>
<g style="fill:#000000; fill-opacity:0.0; 
stroke:#000000; stroke-width:7.87402; stroke-opacity:1; 
stroke-linecap:round; stroke-linejoin:round;">
</g>
<g style="fill:#000000; fill-opacity:0.0; 
stroke:#000000; stroke-width:59.0551; stroke-opacity:1; 
stroke-linecap:round; stroke-linejoin:round;">
<text x="112599" y="53405.5"
textLength="570.866" font-size="682.415" lengthAdjust="spacingAndGlyphs"
text-anchor="middle" opacity="0">C</text>
<path d="M112757 53332
L112733 53356
L112660 53381
L112611 53381
L112538 53356
L112489 53308
L112465 53259
L112440 53161
L112440 53088
L112465 52991
L112489 52942
L112538 52893
L112611 52869
L112660 52869
L112733 52893
L112757 52918
" />
</g>
<g style="fill:#000000; fill-opacity:0.0; 
stroke:#000000; stroke-width:7.87402; stroke-opacity:1; 
stroke-linecap:round; stroke-linejoin:round;">
</g>
<g style="fill:#000000; fill-opacity:0.0; 
stroke:#000000; stroke-width:59.0551; stroke-opacity:1; 
stroke-linecap:round; stroke-linejoin:round;">
<text x="112599" y="73090.6"
textLength="570.866" font-size="682.415" lengthAdjust="spacingAndGlyphs"
text-anchor="middle" opacity="0">D</text>
<path d="M112465 73066
L112465 72554
L112587 72554
L112660 72578
L112708 72627
L112733 72676
L112757 72773
L112757 72846
L112733 72944
L112708 72993
L112660 73041
L112587 73066
L112465 73066
" />
</g>
<g style="fill:#000000; fill-opacity:0.0; 
stroke:#000000; stroke-width:7.87402; stroke-opacity:1; 
stroke-linecap:round; stroke-linejoin:round;">
</g>
<g style="fill:#000000; fill-opacity:0.0; 
stroke:#000000; stroke-width:59.0551; stroke-opacity:1; 
stroke-linecap:round; stroke-linejoin:round;">
<text x="78741" y="76321.7"
textLength="2758.72" font-size="787.402" lengthAdjust="spacingAndGlyphs"
text-anchor="start" opacity="0">Date: </text>
<path d="M78911 76293
L78911 75703
L79051 75703
L79136 75731
L79192 75787
L79220 75843
L79248 75956
L79248 76040
L79220 76153
L79192 76209
L79136 76265
L79051 76293
L78911 76293
" />
<path d="M79754 76293
L79754 75984
L79726 75928
L79670 75899
L79557 75899
L79501 75928
" />
<path d="M79754 76265
L79698 76293
L79557 76293
L79501 76265
L79473 76209
L79473 76153
L79501 76096
L79557 76068
L79698 76068
L79754 76040
" />
<path d="M79951 75899
L80176 75899
" />
<path d="M80036 75703
L80036 76209
L80064 76265
L80120 76293
L80176 76293
" />
<path d="M80598 76265
L80542 76293
L80429 76293
L80373 76265
L80345 76209
L80345 75984
L80373 75928
L80429 75899
L80542 75899
L80598 75928
L80626 75984
L80626 76040
L80345 76096
" />
<path d="M80879 76237
L80907 76265
L80879 76293
L80851 76265
L80879 76237
L80879 76293
" />
<path d="M80879 75928
L80907 75956
L80879 75984
L80851 75956
L80879 75928
L80879 75984
" />
</g>
<g style="fill:#000000; fill-opacity:0.0; 
stroke:#000000; stroke-width:7.87402; stroke-opacity:1; 
stroke-linecap:round; stroke-linejoin:round;">
</g>
<g style="fill:#000000; fill-opacity:0.0; 
stroke:#000000; stroke-width:59.0551; stroke-opacity:1; 
stroke-linecap:round; stroke-linejoin:round;">
<path d="M69685 76577
L112205 76577
" />
</g>
<g style="fill:#000000; fill-opacity:0.0; 
stroke:#000000; stroke-width:7.87402; stroke-opacity:1; 
stroke-linecap:round; stroke-linejoin:round;">
</g>
<g style="fill:#000000; fill-opacity:0.0; 
stroke:#000000; stroke-width:59.0551; stroke-opacity:1; 
stroke-linecap:round; stroke-linejoin:round;">
<text x="70079.6" y="77424.1"
textLength="13529.2" font-size="787.402" lengthAdjust="spacingAndGlyphs"
text-anchor="start" opacity="0">KiCad E.D.A.  kicad (5.1.6)-1</text>
<path d="M70249 77395
L70249 76805
" />
<path d="M70587 77395
L70334 77058
" />
<path d="M70587 76805
L70249 77142
" />
<path d="M70840 77395
L70840 77002
" />
<path d="M70840 76805
L70812 76833
L70840 76861
L70868 76833
L70840 76805
L70840 76861
" />
<path d="M71458 77339
L71430 77367
L71346 77395
L71290 77395
L71205 77367
L71149 77311
L71121 77255
L71093 77142
L71093 77058
L71121 76946
L71149 76889
L71205 76833
L71290 76805
L71346 76805
L71430 76833
L71458 76861
" />
<path d="M71965 77395
L71965 77086
L71937 77030
L71880 77002
L71768 77002
L71712 77030
" />
<path d="M71965 77367
L71908 77395
L71768 77395
L71712 77367
L71683 77311
L71683 77255
L71712 77199
L71768 77171
L71908 77171
L71965 77142
" />
<path d="M72499 77395
L72499 76805
" />
<path d="M72499 77367
L72443 77395
L72330 77395
L72274 77367
L72246 77339
L72218 77283
L72218 77114
L72246 77058
L72274 77030
L72330 77002
L72443 77002
L72499 77030
" />
<path d="M73230 77086
L73427 77086
" />
<path d="M73511 77395
L73230 77395
L73230 76805
L73511 76805
" />
<path d="M73764 77339
L73793 77367
L73764 77395
L73736 77367
L73764 77339
L73764 77395
" />
<path d="M74046 77395
L74046 76805
L74186 76805
L74271 76833
L74327 76889
L74355 76946
L74383 77058
L74383 77142
L74355 77255
L74327 77311
L74271 77367
L74186 77395
L74046 77395
" />
<path d="M74636 77339
L74664 77367
L74636 77395
L74608 77367
L74636 77339
L74636 77395
" />
<path d="M74889 77227
L75171 77227
" />
<path d="M74833 77395
L75030 76805
L75227 77395
" />
<path d="M75424 77339
L75452 77367
L75424 77395
L75395 77367
L75424 77339
L75424 77395
" />
<path d="M76605 77395
L76605 76805
" />
<path d="M76661 77171
L76830 77395
" />
<path d="M76830 77002
L76605 77227
" />
<path d="M77083 77395
L77083 77002
" />
<path d="M77083 76805
L77055 76833
L77083 76861
L77111 76833
L77083 76805
L77083 76861
" />
<path d="M77617 77367
L77561 77395
L77448 77395
L77392 77367
L77364 77339
L77336 77283
L77336 77114
L77364 77058
L77392 77030
L77448 77002
L77561 77002
L77617 77030
" />
<path d="M78123 77395
L78123 77086
L78095 77030
L78039 77002
L77926 77002
L77870 77030
" />
<path d="M78123 77367
L78067 77395
L77926 77395
L77870 77367
L77842 77311
L77842 77255
L77870 77199
L77926 77171
L78067 77171
L78123 77142
" />
<path d="M78658 77395
L78658 76805
" />
<path d="M78658 77367
L78601 77395
L78489 77395
L78433 77367
L78404 77339
L78376 77283
L78376 77114
L78404 77058
L78433 77030
L78489 77002
L78601 77002
L78658 77030
" />
<path d="M79557 77620
L79529 77592
L79473 77508
L79445 77452
L79417 77367
L79389 77227
L79389 77114
L79417 76974
L79445 76889
L79473 76833
L79529 76749
L79557 76721
" />
<path d="M80064 76805
L79782 76805
L79754 77086
L79782 77058
L79839 77030
L79979 77030
L80036 77058
L80064 77086
L80092 77142
L80092 77283
L80064 77339
L80036 77367
L79979 77395
L79839 77395
L79782 77367
L79754 77339
" />
<path d="M80345 77339
L80373 77367
L80345 77395
L80317 77367
L80345 77339
L80345 77395
" />
<path d="M80935 77395
L80598 77395
" />
<path d="M80767 77395
L80767 76805
L80710 76889
L80654 76946
L80598 76974
" />
<path d="M81188 77339
L81217 77367
L81188 77395
L81160 77367
L81188 77339
L81188 77395
" />
<path d="M81723 76805
L81610 76805
L81554 76833
L81526 76861
L81470 76946
L81442 77058
L81442 77283
L81470 77339
L81498 77367
L81554 77395
L81667 77395
L81723 77367
L81751 77339
L81779 77283
L81779 77142
L81751 77086
L81723 77058
L81667 77030
L81554 77030
L81498 77058
L81470 77086
L81442 77142
" />
<path d="M81976 77620
L82004 77592
L82060 77508
L82088 77452
L82117 77367
L82145 77227
L82145 77114
L82117 76974
L82088 76889
L82060 76833
L82004 76749
L81976 76721
" />
<path d="M82426 77171
L82876 77171
" />
<path d="M83466 77395
L83129 77395
" />
<path d="M83298 77395
L83298 76805
L83241 76889
L83185 76946
L83129 76974
" />
</g>
<g style="fill:#000000; fill-opacity:0.0; 
stroke:#000000; stroke-width:7.87402; stroke-opacity:1; 
stroke-linecap:round; stroke-linejoin:round;">
</g>
<g style="fill:#000000; fill-opacity:0.0; 
stroke:#000000; stroke-width:59.0551; stroke-opacity:1; 
stroke-linecap:round; stroke-linejoin:round;">
<path d="M69685 75396
L112205 75396
" />
</g>
<g style="fill:#000000; fill-opacity:0.0; 
stroke:#000000; stroke-width:7.87402; stroke-opacity:1; 
stroke-linecap:round; stroke-linejoin:round;">
</g>
<g style="fill:#000000; fill-opacity:0.0; 
stroke:#000000; stroke-width:118.11; stroke-opacity:1; 
stroke-linecap:round; stroke-linejoin:round;">
<text x="103544" y="76321.7"
textLength="2336.9" font-size="787.402" lengthAdjust="spacingAndGlyphs"
text-anchor="start" opacity="0">Rev: </text>
<path d="M104099 76293
L103902 76012
" />
<path d="M103761 76293
L103761 75703
L103986 75703
L104042 75731
L104070 75759
L104099 75815
L104099 75899
L104070 75956
L104042 75984
L103986 76012
L103761 76012
" />
<path d="M104577 76265
L104520 76293
L104408 76293
L104352 76265
L104323 76209
L104323 75984
L104352 75928
L104408 75899
L104520 75899
L104577 75928
L104605 75984
L104605 76040
L104323 76096
" />
<path d="M104802 75899
L104942 76293
L105083 75899
" />
<path d="M105308 76237
L105336 76265
L105308 76293
L105280 76265
L105308 76237
L105308 76293
" />
<path d="M105308 75928
L105336 75956
L105308 75984
L105280 75956
L105308 75928
L105308 75984
" />
</g>
<g style="fill:#000000; fill-opacity:0.0; 
stroke:#000000; stroke-width:7.87402; stroke-opacity:1; 
stroke-linecap:round; stroke-linejoin:round;">
</g>
<g style="fill:#000000; fill-opacity:0.0; 
stroke:#000000; stroke-width:59.0551; stroke-opacity:1; 
stroke-linecap:round; stroke-linejoin:round;">
<text x="70079.6" y="76321.7"
textLength="3781.21" font-size="787.402" lengthAdjust="spacingAndGlyphs"
text-anchor="start" opacity="0">Size: A4</text>
<path d="M70221 76265
L70305 76293
L70446 76293
L70502 76265
L70530 76237
L70559 76181
L70559 76124
L70530 76068
L70502 76040
L70446 76012
L70334 75984
L70277 75956
L70249 75928
L70221 75871
L70221 75815
L70249 75759
L70277 75731
L70334 75703
L70474 75703
L70559 75731
" />
<path d="M70812 76293
L70812 75899
" />
<path d="M70812 75703
L70784 75731
L70812 75759
L70840 75731
L70812 75703
L70812 75759
" />
<path d="M71037 75899
L71346 75899
L71037 76293
L71346 76293
" />
<path d="M71796 76265
L71740 76293
L71627 76293
L71571 76265
L71543 76209
L71543 75984
L71571 75928
L71627 75899
L71740 75899
L71796 75928
L71824 75984
L71824 76040
L71543 76096
" />
<path d="M72077 76237
L72105 76265
L72077 76293
L72049 76265
L72077 76237
L72077 76293
" />
<path d="M72077 75928
L72105 75956
L72077 75984
L72049 75956
L72077 75928
L72077 75984
" />
<path d="M72780 76124
L73061 76124
" />
<path d="M72724 76293
L72921 75703
L73118 76293
" />
<path d="M73568 75899
L73568 76293
" />
<path d="M73427 75674
L73286 76096
L73652 76096
" />
</g>
<g style="fill:#000000; fill-opacity:0.0; 
stroke:#000000; stroke-width:7.87402; stroke-opacity:1; 
stroke-linecap:round; stroke-linejoin:round;">
</g>
<g style="fill:#000000; fill-opacity:0.0; 
stroke:#000000; stroke-width:59.0551; stroke-opacity:1; 
stroke-linecap:round; stroke-linejoin:round;">
<text x="103544" y="77424.1"
textLength="3349.27" font-size="787.402" lengthAdjust="spacingAndGlyphs"
text-anchor="start" opacity="0">Id: 1/1</text>
<path d="M103714 77395
L103714 76805
" />
<path d="M104248 77395
L104248 76805
" />
<path d="M104248 77367
L104192 77395
L104079 77395
L104023 77367
L103995 77339
L103967 77283
L103967 77114
L103995 77058
L104023 77030
L104079 77002
L104192 77002
L104248 77030
" />
<path d="M104529 77339
L104557 77367
L104529 77395
L104501 77367
L104529 77339
L104529 77395
" />
<path d="M104529 77030
L104557 77058
L104529 77086
L104501 77058
L104529 77030
L104529 77086
" />
<path d="M105570 77395
L105232 77395
" />
<path d="M105401 77395
L105401 76805
L105345 76889
L105289 76946
L105232 76974
" />
<path d="M106245 76777
L105739 77536
" />
<path d="M106751 77395
L106413 77395
" />
<path d="M106582 77395
L106582 76805
L106526 76889
L106470 76946
L106413 76974
" />
</g>
<g style="fill:#000000; fill-opacity:0.0; 
stroke:#000000; stroke-width:7.87402; stroke-opacity:1; 
stroke-linecap:round; stroke-linejoin:round;">
</g>
<g style="fill:#000000; fill-opacity:0.0; 
stroke:#000000; stroke-width:59.0551; stroke-opacity:1; 
stroke-linecap:round; stroke-linejoin:round;">
<path d="M69685 73821
L112205 73821
" />
</g>
<g style="fill:#000000; fill-opacity:0.0; 
stroke:#000000; stroke-width:7.87402; stroke-opacity:1; 
stroke-linecap:round; stroke-linejoin:round;">
</g>
<g style="fill:#000000; fill-opacity:0.0; 
stroke:#000000; stroke-width:157.48; stroke-opacity:1; 
stroke-linecap:round; stroke-linejoin:round;">
<text x="70079.6" y="74924.1"
textLength="3701.14" font-size="1049.87" lengthAdjust="spacingAndGlyphs"
text-anchor="start" opacity="0">Title: </text>
<path d="M70360 74099
L70810 74099
" />
<path d="M70486 74886
L70585 74099
" />
<path d="M70974 74886
L71039 74361
" />
<path d="M71072 74099
L71030 74136
L71063 74174
L71105 74136
L71072 74099
L71063 74174
" />
<path d="M71302 74361
L71602 74361
" />
<path d="M71447 74099
L71363 74774
L71391 74849
L71461 74886
L71536 74886
" />
<path d="M71911 74886
L71841 74849
L71813 74774
L71897 74099
" />
<path d="M72516 74849
L72436 74886
L72286 74886
L72216 74849
L72187 74774
L72225 74474
L72272 74399
L72352 74361
L72501 74361
L72572 74399
L72600 74474
L72591 74549
L72206 74624
" />
<path d="M72895 74811
L72928 74849
L72886 74886
L72853 74849
L72895 74811
L72886 74886
" />
<path d="M72947 74399
L72980 74436
L72937 74474
L72905 74436
L72947 74399
L72937 74474
" />
</g>
<g style="fill:#000000; fill-opacity:0.0; 
stroke:#000000; stroke-width:7.87402; stroke-opacity:1; 
stroke-linecap:round; stroke-linejoin:round;">
</g>
<g style="fill:#000000; fill-opacity:0.0; 
stroke:#000000; stroke-width:59.0551; stroke-opacity:1; 
stroke-linecap:round; stroke-linejoin:round;">
<text x="70079.6" y="73408.3"
textLength="17668.2" font-size="787.402" lengthAdjust="spacingAndGlyphs"
text-anchor="start" opacity="0">File: USBTINYISP_MICRO_USB.kicad_pcb</text>
<path d="M70446 73070
L70249 73070
" />
<path d="M70249 73380
L70249 72789
L70530 72789
" />
<path d="M70755 73380
L70755 72986
" />
<path d="M70755 72789
L70727 72817
L70755 72845
L70784 72817
L70755 72789
L70755 72845
" />
<path d="M71121 73380
L71065 73352
L71037 73295
L71037 72789
" />
<path d="M71571 73352
L71515 73380
L71402 73380
L71346 73352
L71318 73295
L71318 73070
L71346 73014
L71402 72986
L71515 72986
L71571 73014
L71599 73070
L71599 73127
L71318 73183
" />
<path d="M71852 73323
L71880 73352
L71852 73380
L71824 73352
L71852 73323
L71852 73380
" />
<path d="M71852 73014
L71880 73042
L71852 73070
L71824 73042
L71852 73014
L71852 73070
" />
<path d="M72583 72789
L72583 73267
L72611 73323
L72640 73352
L72696 73380
L72808 73380
L72865 73352
L72893 73323
L72921 73267
L72921 72789
" />
<path d="M73174 73352
L73258 73380
L73399 73380
L73455 73352
L73483 73323
L73511 73267
L73511 73211
L73483 73155
L73455 73127
L73399 73099
L73286 73070
L73230 73042
L73202 73014
L73174 72958
L73174 72902
L73202 72845
L73230 72817
L73286 72789
L73427 72789
L73511 72817
" />
<path d="M73961 73070
L74046 73099
L74074 73127
L74102 73183
L74102 73267
L74074 73323
L74046 73352
L73989 73380
L73764 73380
L73764 72789
L73961 72789
L74018 72817
L74046 72845
L74074 72902
L74074 72958
L74046 73014
L74018 73042
L73961 73070
L73764 73070
" />
<path d="M74271 72789
L74608 72789
" />
<path d="M74439 73380
L74439 72789
" />
<path d="M74805 73380
L74805 72789
" />
<path d="M75086 73380
L75086 72789
L75424 73380
L75424 72789
" />
<path d="M75817 73099
L75817 73380
" />
<path d="M75620 72789
L75817 73099
L76014 72789
" />
<path d="M76211 73380
L76211 72789
" />
<path d="M76464 73352
L76548 73380
L76689 73380
L76745 73352
L76773 73323
L76802 73267
L76802 73211
L76773 73155
L76745 73127
L76689 73099
L76577 73070
L76520 73042
L76492 73014
L76464 72958
L76464 72902
L76492 72845
L76520 72817
L76577 72789
L76717 72789
L76802 72817
" />
<path d="M77055 73380
L77055 72789
L77280 72789
L77336 72817
L77364 72845
L77392 72902
L77392 72986
L77364 73042
L77336 73070
L77280 73099
L77055 73099
" />
<path d="M77505 73436
L77955 73436
" />
<path d="M78095 73380
L78095 72789
L78292 73211
L78489 72789
L78489 73380
" />
<path d="M78770 73380
L78770 72789
" />
<path d="M79389 73323
L79361 73352
L79276 73380
L79220 73380
L79136 73352
L79079 73295
L79051 73239
L79023 73127
L79023 73042
L79051 72930
L79079 72874
L79136 72817
L79220 72789
L79276 72789
L79361 72817
L79389 72845
" />
<path d="M79979 73380
L79782 73099
" />
<path d="M79642 73380
L79642 72789
L79867 72789
L79923 72817
L79951 72845
L79979 72902
L79979 72986
L79951 73042
L79923 73070
L79867 73099
L79642 73099
" />
<path d="M80345 72789
L80457 72789
L80514 72817
L80570 72874
L80598 72986
L80598 73183
L80570 73295
L80514 73352
L80457 73380
L80345 73380
L80289 73352
L80232 73295
L80204 73183
L80204 72986
L80232 72874
L80289 72817
L80345 72789
" />
<path d="M80710 73436
L81160 73436
" />
<path d="M81301 72789
L81301 73267
L81329 73323
L81357 73352
L81413 73380
L81526 73380
L81582 73352
L81610 73323
L81638 73267
L81638 72789
" />
<path d="M81892 73352
L81976 73380
L82117 73380
L82173 73352
L82201 73323
L82229 73267
L82229 73211
L82201 73155
L82173 73127
L82117 73099
L82004 73070
L81948 73042
L81920 73014
L81892 72958
L81892 72902
L81920 72845
L81948 72817
L82004 72789
L82145 72789
L82229 72817
" />
<path d="M82679 73070
L82763 73099
L82791 73127
L82820 73183
L82820 73267
L82791 73323
L82763 73352
L82707 73380
L82482 73380
L82482 72789
L82679 72789
L82735 72817
L82763 72845
L82791 72902
L82791 72958
L82763 73014
L82735 73042
L82679 73070
L82482 73070
" />
<path d="M83073 73323
L83101 73352
L83073 73380
L83045 73352
L83073 73323
L83073 73380
" />
<path d="M83354 73380
L83354 72789
" />
<path d="M83410 73155
L83579 73380
" />
<path d="M83579 72986
L83354 73211
" />
<path d="M83832 73380
L83832 72986
" />
<path d="M83832 72789
L83804 72817
L83832 72845
L83860 72817
L83832 72789
L83832 72845
" />
<path d="M84366 73352
L84310 73380
L84197 73380
L84141 73352
L84113 73323
L84085 73267
L84085 73099
L84113 73042
L84141 73014
L84197 72986
L84310 72986
L84366 73014
" />
<path d="M84872 73380
L84872 73070
L84844 73014
L84788 72986
L84676 72986
L84619 73014
" />
<path d="M84872 73352
L84816 73380
L84676 73380
L84619 73352
L84591 73295
L84591 73239
L84619 73183
L84676 73155
L84816 73155
L84872 73127
" />
<path d="M85407 73380
L85407 72789
" />
<path d="M85407 73352
L85350 73380
L85238 73380
L85182 73352
L85154 73323
L85126 73267
L85126 73099
L85154 73042
L85182 73014
L85238 72986
L85350 72986
L85407 73014
" />
<path d="M85547 73436
L85997 73436
" />
<path d="M86138 72986
L86138 73577
" />
<path d="M86138 73014
L86194 72986
L86307 72986
L86363 73014
L86391 73042
L86419 73099
L86419 73267
L86391 73323
L86363 73352
L86307 73380
L86194 73380
L86138 73352
" />
<path d="M86925 73352
L86869 73380
L86757 73380
L86700 73352
L86672 73323
L86644 73267
L86644 73099
L86672 73042
L86700 73014
L86757 72986
L86869 72986
L86925 73014
" />
<path d="M87178 73380
L87178 72789
" />
<path d="M87178 73014
L87235 72986
L87347 72986
L87403 73014
L87431 73042
L87460 73099
L87460 73267
L87431 73323
L87403 73352
L87347 73380
L87235 73380
L87178 73352
" />
</g>
<g style="fill:#000000; fill-opacity:0.0; 
stroke:#000000; stroke-width:7.87402; stroke-opacity:1; 
stroke-linecap:round; stroke-linejoin:round;">
</g>
<g style="fill:#000000; fill-opacity:0.0; 
stroke:#000000; stroke-width:59.0551; stroke-opacity:1; 
stroke-linecap:round; stroke-linejoin:round;">
<path d="M69685 71459
L112205 71459
" />
</g>
<g style="fill:#000000; fill-opacity:0.0; 
stroke:#000000; stroke-width:7.87402; stroke-opacity:1; 
stroke-linecap:round; stroke-linejoin:round;">
</g>
<g style="fill:#000000; fill-opacity:0.0; 
stroke:#000000; stroke-width:59.0551; stroke-opacity:1; 
stroke-linecap:round; stroke-linejoin:round;">
<text x="70079.6" y="72345.4"
textLength="3236.78" font-size="787.402" lengthAdjust="spacingAndGlyphs"
text-anchor="start" opacity="0">Sheet: </text>
<path d="M70221 72289
L70305 72317
L70446 72317
L70502 72289
L70530 72260
L70559 72204
L70559 72148
L70530 72092
L70502 72064
L70446 72036
L70334 72007
L70277 71979
L70249 71951
L70221 71895
L70221 71839
L70249 71782
L70277 71754
L70334 71726
L70474 71726
L70559 71754
" />
<path d="M70812 72317
L70812 71726
" />
<path d="M71065 72317
L71065 72007
L71037 71951
L70980 71923
L70896 71923
L70840 71951
L70812 71979
" />
<path d="M71571 72289
L71515 72317
L71402 72317
L71346 72289
L71318 72232
L71318 72007
L71346 71951
L71402 71923
L71515 71923
L71571 71951
L71599 72007
L71599 72064
L71318 72120
" />
<path d="M72077 72289
L72021 72317
L71908 72317
L71852 72289
L71824 72232
L71824 72007
L71852 71951
L71908 71923
L72021 71923
L72077 71951
L72105 72007
L72105 72064
L71824 72120
" />
<path d="M72274 71923
L72499 71923
" />
<path d="M72358 71726
L72358 72232
L72386 72289
L72443 72317
L72499 72317
" />
<path d="M72696 72260
L72724 72289
L72696 72317
L72668 72289
L72696 72260
L72696 72317
" />
<path d="M72696 71951
L72724 71979
L72696 72007
L72668 71979
L72696 71951
L72696 72007
" />
</g>
<g style="fill:#000000; fill-opacity:0.0; 
stroke:#000000; stroke-width:7.87402; stroke-opacity:1; 
stroke-linecap:round; stroke-linejoin:round;">
</g>
<g style="fill:#000000; fill-opacity:0.0; 
stroke:#000000; stroke-width:59.0551; stroke-opacity:1; 
stroke-linecap:round; stroke-linejoin:round;">
<path d="M77559 75396
L77559 76577
" />
</g>
<g style="fill:#000000; fill-opacity:0.0; 
stroke:#000000; stroke-width:7.87402; stroke-opacity:1; 
stroke-linecap:round; stroke-linejoin:round;">
</g>
<g style="fill:#000000; fill-opacity:0.0; 
stroke:#000000; stroke-width:59.0551; stroke-opacity:1; 
stroke-linecap:round; stroke-linejoin:round;">
<path d="M102756 75396
L102756 77955
" />
</g>
<g style="fill:#000000; fill-opacity:0.0; 
stroke:#000000; stroke-width:39.3701; stroke-opacity:1; 
stroke-linecap:round; stroke-linejoin:round;">
<path d="M20008 10405
L20008 11193
" />
<path d="M19535 10405
L20008 10405
" />
<path d="M19535 11193
L19535 10405
" />
<path d="M20008 11193
L19535 11193
" />
<path d="M11092 12864
L11564 12864
" />
<path d="M11092 12076
L11092 12864
" />
<path d="M11446 12076
L11092 12076
" />
<path d="M11564 12194
L11446 12076
" />
<path d="M11564 12864
L11564 12194
" />
<path d="M15471 14319
L17845 14319
" />
<path d="M15471 12653
L17845 12653
" />
<path d="M18902 12561
L14414 12561
" />
<path d="M18902 14411
L18902 12561
" />
<path d="M14414 14411
L18902 14411
" />
<path d="M14414 12561
L14414 14411
" />
<path d="M17845.8 14319.3 A832.677 832.677 0.0 0 0 17845.8 12653.9" />
<path d="M15471.8 12653.9 A832.677 832.677 0.0 0 0 15471.8 14319.3" />
<path d="M14133 10123
L13749 9739
" />
<path d="M17154 10123
L14133 10123
" />
<path d="M17154 8588
L17154 10123
" />
<path d="M13749 8588
L17154 8588
" />
<path d="M13749 9739
L13749 8588
" />
<path d="M11781 11328
L11781 10541
" />
<path d="M12253 11328
L11781 11328
" />
<path d="M12253 10541
L12253 11328
" />
<path d="M11781 10541
L12253 10541
" />
<path d="M8740 9202
L8740 8415
" />
<path d="M9212 9202
L8740 9202
" />
<path d="M9212 8415
L9212 9202
" />
<path d="M8740 8415
L9212 8415
" />
<path d="M8799 10068
L8799 10856
" />
<path d="M8326 10068
L8799 10068
" />
<path d="M8326 10856
L8326 10068
" />
<path d="M8799 10856
L8326 10856
" />
<path d="M17066 6663
L17854 6663
" />
<path d="M17066 7135
L17066 6663
" />
<path d="M17854 7135
L17066 7135
" />
<path d="M17854 6663
L17854 7135
" />
<path d="M22145 12312
L21358 12312
" />
<path d="M22145 11840
L22145 12312
" />
<path d="M21358 11840
L22145 11840
" />
<path d="M21358 12312
L21358 11840
" />
<path d="M11811 8001
L12598 8001
" />
<path d="M11811 8474
L11811 8001
" />
<path d="M12598 8474
L11811 8474
" />
<path d="M12598 8001
L12598 8474
" />
<path d="M22255 9462
L21837 9462
" />
<path d="M22255 9210
L22255 9462
" />
<path d="M21837 9210
L22255 9210
" />
<path d="M19420 9462
L19837 9462
" />
<path d="M19420 9210
L19420 9462
" />
<path d="M19837 9210
L19420 9210
" />
<path d="M22255 8462
L21837 8462
" />
<path d="M22255 8210
L22255 8462
" />
<path d="M21837 8210
L22255 8210
" />
<path d="M19420 8462
L19837 8462
" />
<path d="M19420 8210
L19420 8462
" />
<path d="M19837 8210
L19420 8210
" />
<path d="M22255 7462
L21837 7462
" />
<path d="M22255 7210
L22255 7462
" />
<path d="M21837 7210
L22255 7210
" />
<path d="M19420 7462
L19837 7462
" />
<path d="M19420 7210
L19420 7462
" />
<path d="M19837 7210
L19420 7210
" />
<path d="M21837 6836
L21837 9836
" />
<path d="M19837 7210
L20211 6836
" />
<path d="M19837 9836
L19837 7210
" />
<path d="M20211 6836
L21837 6836
" />
<path d="M21837 9836
L19837 9836
" />
<path d="M5927 10167
L5927 12726
" />
<path d="M5651 9970
L7620 9970
" />
<path d="M7620 9970
L7620 12923
" />
<path d="M7620 12923
L5651 12923
" />
<path d="M5651 12923
L5651 9970
" />
<path d="M10620 9429
L10620 8956
" />
<path d="M9832 9429
L10620 9429
" />
<path d="M9832 9074
L9832 9429
" />
<path d="M9950 8956
L9832 9074
" />
<path d="M10620 8956
L9950 8956
" />
<path d="M16230 7135
L16230 6663
" />
<path d="M15442 7135
L16230 7135
" />
<path d="M15442 6781
L15442 7135
" />
<path d="M15561 6663
L15442 6781
" />
<path d="M16230 6663
L15561 6663
" />
<path d="M11033 8484
L11033 8011
" />
<path d="M10246 8484
L11033 8484
" />
<path d="M10246 8129
L10246 8484
" />
<path d="M10364 8011
L10246 8129
" />
<path d="M11033 8011
L10364 8011
" />
<path d="M9281 11801
L9281 11013
" />
<path d="M9753 11801
L9281 11801
" />
<path d="M9753 11013
L9753 11801
" />
<path d="M9281 11013
L9753 11013
" />
<path d="M10580 10118
L10580 10905
" />
<path d="M10108 10118
L10580 10118
" />
<path d="M10108 10905
L10108 10118
" />
<path d="M10580 10905
L10108 10905
" />
<path d="M18602 15462
L17814 15462
" />
<path d="M18602 14990
L18602 15462
" />
<path d="M17814 14990
L18602 14990
" />
<path d="M17814 15462
L17814 14990
" />
<path d="M15866 14990
L16653 14990
" />
<path d="M15866 15462
L15866 14990
" />
<path d="M16653 15462
L15866 15462
" />
<path d="M16653 14990
L16653 15462
" />
<g >
</g>
<g >
</g>
<g >
</g>
<g >
</g>
<g >
</g>
<g >
</g>
<g >
</g>
<g >
</g>
<g >
</g>
<g >
</g>
<g >
</g>
<g >
</g>
<g >
</g>
<g >
</g>
<g >
</g>
<g >
</g>
<g >
</g>
<g >
</g>
<g >
</g>
<g >
</g>
<g >
</g>
</g>
<g style="fill:#000000; fill-opacity:0.0; 
stroke:#000000; stroke-width:39.3701; stroke-opacity:1; 
stroke-linecap:round; stroke-linejoin:round;">
</g>
<g style="fill:#000000; fill-opacity:0.0; 
stroke:#000000; stroke-width:59.0551; stroke-opacity:1; 
stroke-linecap:round; stroke-linejoin:round;">
<g transform="rotate(-90 20421.7 10799.6)">
<text x="20421.7" y="10996.5"
textLength="434.008" font-size="524.934" lengthAdjust="spacingAndGlyphs"
text-anchor="middle" opacity="0">0</text>
</g>
<path d="M20206 10818
L20206 10780
L20224 10743
L20243 10724
L20281 10705
L20356 10687
L20449 10687
L20524 10705
L20562 10724
L20581 10743
L20599 10780
L20599 10818
L20581 10855
L20562 10874
L20524 10893
L20449 10912
L20356 10912
L20281 10893
L20243 10874
L20224 10855
L20206 10818
" />
</g>
<g style="fill:#000000; fill-opacity:0.0; 
stroke:#000000; stroke-width:31.4961; stroke-opacity:1; 
stroke-linecap:round; stroke-linejoin:round;">
<g transform="rotate(-90 19772 10799.6)">
<text x="19772" y="10898"
textLength="461.098" font-size="262.467" lengthAdjust="spacingAndGlyphs"
text-anchor="middle" opacity="0">R4</text>
</g>
<path d="M19861 10832
L19767 10898
" />
<path d="M19861 10944
L19664 10944
L19664 10869
L19673 10851
L19682 10841
L19701 10832
L19729 10832
L19748 10841
L19757 10851
L19767 10869
L19767 10944
" />
<path d="M19729 10663
L19861 10663
" />
<path d="M19654 10710
L19795 10757
L19795 10635
" />
</g>
<g style="fill:#000000; fill-opacity:0.0; 
stroke:#000000; stroke-width:59.0551; stroke-opacity:1; 
stroke-linecap:round; stroke-linejoin:round;">
<g transform="rotate(-90 10679.1 12470.5)">
<text x="10679.1" y="12667.3"
textLength="1090.81" font-size="524.934" lengthAdjust="spacingAndGlyphs"
text-anchor="middle" opacity="0">3v3</text>
</g>
<path d="M10463 12939
L10463 12695
L10613 12826
L10613 12770
L10632 12732
L10651 12714
L10688 12695
L10782 12695
L10819 12714
L10838 12732
L10857 12770
L10857 12882
L10838 12920
L10819 12939
" />
<path d="M10594 12564
L10857 12470
L10594 12376
" />
<path d="M10463 12264
L10463 12020
L10613 12151
L10613 12095
L10632 12058
L10651 12039
L10688 12020
L10782 12020
L10819 12039
L10838 12058
L10857 12095
L10857 12208
L10838 12245
L10819 12264
" />
</g>
<g style="fill:#000000; fill-opacity:0.0; 
stroke:#000000; stroke-width:31.4961; stroke-opacity:1; 
stroke-linecap:round; stroke-linejoin:round;">
<g transform="rotate(-90 11328.7 12470.5)">
<text x="11328.7" y="12568.9"
textLength="461.098" font-size="262.467" lengthAdjust="spacingAndGlyphs"
text-anchor="middle" opacity="0">D6</text>
</g>
<path d="M11417 12615
L11220 12615
L11220 12568
L11230 12540
L11249 12522
L11267 12512
L11305 12503
L11333 12503
L11370 12512
L11389 12522
L11408 12540
L11417 12568
L11417 12615
" />
<path d="M11220 12334
L11220 12372
L11230 12390
L11239 12400
L11267 12418
L11305 12428
L11380 12428
L11399 12418
L11408 12409
L11417 12390
L11417 12353
L11408 12334
L11399 12325
L11380 12315
L11333 12315
L11314 12325
L11305 12334
L11295 12353
L11295 12390
L11305 12409
L11314 12418
L11333 12428
" />
</g>
<g style="fill:#000000; fill-opacity:0.0; 
stroke:#000000; stroke-width:59.0551; stroke-opacity:1; 
stroke-linecap:round; stroke-linejoin:round;">
<text x="17356.6" y="10894.9"
textLength="3921.71" font-size="524.934" lengthAdjust="spacingAndGlyphs"
text-anchor="middle" opacity="0">Rest_connect</text>
<path d="M15734 10876
L15603 10688
" />
<path d="M15509 10876
L15509 10482
L15659 10482
L15697 10501
L15716 10519
L15734 10557
L15734 10613
L15716 10651
L15697 10669
L15659 10688
L15509 10688
" />
<path d="M16053 10857
L16016 10876
L15941 10876
L15903 10857
L15884 10819
L15884 10669
L15903 10632
L15941 10613
L16016 10613
L16053 10632
L16072 10669
L16072 10707
L15884 10744
" />
<path d="M16222 10857
L16259 10876
L16334 10876
L16372 10857
L16391 10819
L16391 10801
L16372 10763
L16334 10744
L16278 10744
L16241 10726
L16222 10688
L16222 10669
L16241 10632
L16278 10613
L16334 10613
L16372 10632
" />
<path d="M16503 10613
L16653 10613
" />
<path d="M16559 10482
L16559 10819
L16578 10857
L16616 10876
L16653 10876
" />
<path d="M16691 10913
L16991 10913
" />
<path d="M17253 10857
L17216 10876
L17141 10876
L17103 10857
L17084 10838
L17066 10801
L17066 10688
L17084 10651
L17103 10632
L17141 10613
L17216 10613
L17253 10632
" />
<path d="M17478 10876
L17440 10857
L17422 10838
L17403 10801
L17403 10688
L17422 10651
L17440 10632
L17478 10613
L17534 10613
L17572 10632
L17590 10651
L17609 10688
L17609 10801
L17590 10838
L17572 10857
L17534 10876
L17478 10876
" />
<path d="M17778 10613
L17778 10876
" />
<path d="M17778 10651
L17797 10632
L17834 10613
L17890 10613
L17928 10632
L17947 10669
L17947 10876
" />
<path d="M18134 10613
L18134 10876
" />
<path d="M18134 10651
L18153 10632
L18190 10613
L18247 10613
L18284 10632
L18303 10669
L18303 10876
" />
<path d="M18640 10857
L18603 10876
L18528 10876
L18490 10857
L18472 10819
L18472 10669
L18490 10632
L18528 10613
L18603 10613
L18640 10632
L18659 10669
L18659 10707
L18472 10744
" />
<path d="M18997 10857
L18959 10876
L18884 10876
L18847 10857
L18828 10838
L18809 10801
L18809 10688
L18828 10651
L18847 10632
L18884 10613
L18959 10613
L18997 10632
" />
<path d="M19109 10613
L19259 10613
" />
<path d="M19165 10482
L19165 10819
L19184 10857
L19222 10876
L19259 10876
" />
<text x="16658.8" y="15081.1"
textLength="2064.02" font-size="524.934" lengthAdjust="spacingAndGlyphs"
text-anchor="middle" opacity="0">12MHZ</text>
<path d="M15965 15062
L15740 15062
" />
<path d="M15852 15062
L15852 14668
L15815 14724
L15777 14762
L15740 14781
" />
<path d="M16115 14706
L16133 14687
L16171 14668
L16265 14668
L16302 14687
L16321 14706
L16340 14743
L16340 14781
L16321 14837
L16096 15062
L16340 15062
" />
<path d="M16508 15062
L16508 14668
L16640 14949
L16771 14668
L16771 15062
" />
<path d="M16958 15062
L16958 14668
" />
<path d="M16958 14856
L17183 14856
" />
<path d="M17183 15062
L17183 14668
" />
<path d="M17333 14668
L17596 14668
L17333 15062
L17596 15062
" />
<text x="16658.8" y="13683.5"
textLength="789.183" font-size="524.934" lengthAdjust="spacingAndGlyphs"
text-anchor="middle" opacity="0">Y1</text>
<path d="M16471 13477
L16471 13664
" />
<path d="M16340 13271
L16471 13477
L16602 13271
" />
<path d="M16940 13664
L16715 13664
" />
<path d="M16827 13664
L16827 13271
L16790 13327
L16752 13364
L16715 13383
" />
<g transform="rotate(-90 17530.8 9356.06)">
<text x="17530.8" y="9552.91"
textLength="4576.21" font-size="524.934" lengthAdjust="spacingAndGlyphs"
text-anchor="middle" opacity="0">ATtiny84-20PU</text>
</g>
<path d="M17596 11530
L17596 11343
" />
<path d="M17708 11568
L17315 11437
L17708 11305
" />
<path d="M17315 11230
L17315 11005
" />
<path d="M17708 11118
L17315 11118
" />
<path d="M17446 10930
L17446 10780
" />
<path d="M17315 10874
L17652 10874
L17690 10855
L17708 10818
L17708 10780
" />
<path d="M17708 10649
L17446 10649
" />
<path d="M17315 10649
L17333 10668
L17352 10649
L17333 10630
L17315 10649
L17352 10649
" />
<path d="M17446 10462
L17708 10462
" />
<path d="M17483 10462
L17465 10443
L17446 10405
L17446 10349
L17465 10312
L17502 10293
L17708 10293
" />
<path d="M17446 10143
L17708 10049
" />
<path d="M17446 9955
L17708 10049
L17802 10087
L17821 10105
L17840 10143
" />
<path d="M17483 9749
L17465 9787
L17446 9806
L17408 9824
L17390 9824
L17352 9806
L17333 9787
L17315 9749
L17315 9674
L17333 9637
L17352 9618
L17390 9599
L17408 9599
L17446 9618
L17465 9637
L17483 9674
L17483 9749
L17502 9787
L17521 9806
L17558 9824
L17633 9824
L17671 9806
L17690 9787
L17708 9749
L17708 9674
L17690 9637
L17671 9618
L17633 9599
L17558 9599
L17521 9618
L17502 9637
L17483 9674
" />
<path d="M17446 9262
L17708 9262
" />
<path d="M17296 9356
L17577 9449
L17577 9206
" />
<path d="M17558 9056
L17558 8756
" />
<path d="M17352 8587
L17333 8568
L17315 8531
L17315 8437
L17333 8399
L17352 8381
L17390 8362
L17427 8362
L17483 8381
L17708 8606
L17708 8362
" />
<path d="M17315 8118
L17315 8081
L17333 8043
L17352 8024
L17390 8006
L17465 7987
L17558 7987
L17633 8006
L17671 8024
L17690 8043
L17708 8081
L17708 8118
L17690 8156
L17671 8174
L17633 8193
L17558 8212
L17465 8212
L17390 8193
L17352 8174
L17333 8156
L17315 8118
" />
<path d="M17708 7818
L17315 7818
L17315 7668
L17333 7631
L17352 7612
L17390 7593
L17446 7593
L17483 7612
L17502 7631
L17521 7668
L17521 7818
" />
<path d="M17315 7425
L17633 7425
L17671 7406
L17690 7387
L17708 7350
L17708 7275
L17690 7237
L17671 7218
L17633 7200
L17315 7200
" />
<g transform="rotate(-90 15452 9356.06)">
<text x="15452" y="9548.98"
textLength="848.425" font-size="514.435" lengthAdjust="spacingAndGlyphs"
text-anchor="middle" opacity="0">U1</text>
</g>
<path d="M15240 9650
L15553 9650
L15589 9631
L15608 9613
L15626 9576
L15626 9503
L15608 9466
L15589 9447
L15553 9429
L15240 9429
" />
<path d="M15626 9043
L15626 9264
" />
<path d="M15626 9153
L15240 9153
L15295 9190
L15332 9227
L15350 9264
" />
<g transform="rotate(-90 11368.1 10935)">
<text x="11368.1" y="11131.9"
textLength="826.678" font-size="524.934" lengthAdjust="spacingAndGlyphs"
text-anchor="middle" opacity="0">68</text>
</g>
<path d="M11152 11047
L11152 11122
L11171 11160
L11190 11178
L11246 11216
L11321 11235
L11471 11235
L11508 11216
L11527 11197
L11546 11160
L11546 11085
L11527 11047
L11508 11028
L11471 11010
L11377 11010
L11339 11028
L11321 11047
L11302 11085
L11302 11160
L11321 11197
L11339 11216
L11377 11235
" />
<path d="M11321 10785
L11302 10822
L11283 10841
L11246 10860
L11227 10860
L11190 10841
L11171 10822
L11152 10785
L11152 10710
L11171 10672
L11190 10653
L11227 10635
L11246 10635
L11283 10653
L11302 10672
L11321 10710
L11321 10785
L11339 10822
L11358 10841
L11396 10860
L11471 10860
L11508 10841
L11527 10822
L11546 10785
L11546 10710
L11527 10672
L11508 10653
L11471 10635
L11396 10635
L11358 10653
L11339 10672
L11321 10710
" />
</g>
<g style="fill:#000000; fill-opacity:0.0; 
stroke:#000000; stroke-width:31.4961; stroke-opacity:1; 
stroke-linecap:round; stroke-linejoin:round;">
<g transform="rotate(-90 12017.7 10935)">
<text x="12017.7" y="11033.5"
textLength="461.098" font-size="262.467" lengthAdjust="spacingAndGlyphs"
text-anchor="middle" opacity="0">R9</text>
</g>
<path d="M12106 10967
L12013 11033
" />
<path d="M12106 11080
L11909 11080
L11909 11005
L11919 10986
L11928 10977
L11947 10967
L11975 10967
L11994 10977
L12003 10986
L12013 11005
L12013 11080
" />
<path d="M12106 10874
L12106 10836
L12097 10817
L12088 10808
L12059 10789
L12022 10780
L11947 10780
L11928 10789
L11919 10799
L11909 10817
L11909 10855
L11919 10874
L11928 10883
L11947 10892
L11994 10892
L12013 10883
L12022 10874
L12031 10855
L12031 10817
L12022 10799
L12013 10789
L11994 10780
" />
</g>
<g style="fill:#000000; fill-opacity:0.0; 
stroke:#000000; stroke-width:59.0551; stroke-opacity:1; 
stroke-linecap:round; stroke-linejoin:round;">
<g transform="rotate(-90 8326.77 8809.06)">
<text x="8326.77" y="9005.91"
textLength="790.851" font-size="524.934" lengthAdjust="spacingAndGlyphs"
text-anchor="middle" opacity="0">68</text>
</g>
<path d="M8111 8921
L8111 8996
L8129 9034
L8148 9052
L8204 9090
L8279 9109
L8429 9109
L8467 9090
L8486 9071
L8504 9034
L8504 8959
L8486 8921
L8467 8902
L8429 8884
L8336 8884
L8298 8902
L8279 8921
L8261 8959
L8261 9034
L8279 9071
L8298 9090
L8336 9109
" />
<path d="M8279 8659
L8261 8696
L8242 8715
L8204 8734
L8186 8734
L8148 8715
L8129 8696
L8111 8659
L8111 8584
L8129 8546
L8148 8527
L8186 8509
L8204 8509
L8242 8527
L8261 8546
L8279 8584
L8279 8659
L8298 8696
L8317 8715
L8354 8734
L8429 8734
L8467 8715
L8486 8696
L8504 8659
L8504 8584
L8486 8546
L8467 8527
L8429 8509
L8354 8509
L8317 8527
L8298 8546
L8279 8584
" />
</g>
<g style="fill:#000000; fill-opacity:0.0; 
stroke:#000000; stroke-width:31.4961; stroke-opacity:1; 
stroke-linecap:round; stroke-linejoin:round;">
<g transform="rotate(-90 8976.38 8809.06)">
<text x="8976.38" y="8907.48"
textLength="461.098" font-size="262.467" lengthAdjust="spacingAndGlyphs"
text-anchor="middle" opacity="0">R8</text>
</g>
<path d="M9065 8841
L8971 8907
" />
<path d="M9065 8954
L8868 8954
L8868 8879
L8877 8860
L8887 8851
L8906 8841
L8934 8841
L8952 8851
L8962 8860
L8971 8879
L8971 8954
" />
<path d="M8952 8729
L8943 8748
L8934 8757
L8915 8766
L8906 8766
L8887 8757
L8877 8748
L8868 8729
L8868 8691
L8877 8673
L8887 8663
L8906 8654
L8915 8654
L8934 8663
L8943 8673
L8952 8691
L8952 8729
L8962 8748
L8971 8757
L8990 8766
L9027 8766
L9046 8757
L9056 8748
L9065 8729
L9065 8691
L9056 8673
L9046 8663
L9027 8654
L8990 8654
L8971 8663
L8962 8673
L8952 8691
" />
</g>
<g style="fill:#000000; fill-opacity:0.0; 
stroke:#000000; stroke-width:59.0551; stroke-opacity:1; 
stroke-linecap:round; stroke-linejoin:round;">
<g transform="rotate(-90 9212.6 10462.6)">
<text x="9212.6" y="10659.4"
textLength="1297.04" font-size="524.934" lengthAdjust="spacingAndGlyphs"
text-anchor="middle" opacity="0">1.5k</text>
</g>
<path d="M9390 10790
L9390 11015
" />
<path d="M9390 10903
L8997 10903
L9053 10940
L9090 10978
L9109 11015
" />
<path d="M9353 10621
L9371 10603
L9390 10621
L9371 10640
L9353 10621
L9390 10621
" />
<path d="M8997 10247
L8997 10434
L9184 10453
L9165 10434
L9146 10396
L9146 10303
L9165 10265
L9184 10247
L9221 10228
L9315 10228
L9353 10247
L9371 10265
L9390 10303
L9390 10396
L9371 10434
L9353 10453
" />
<path d="M9390 10059
L8997 10059
" />
<path d="M9240 10022
L9390 9909
" />
<path d="M9128 9909
L9278 10059
" />
</g>
<g style="fill:#000000; fill-opacity:0.0; 
stroke:#000000; stroke-width:31.4961; stroke-opacity:1; 
stroke-linecap:round; stroke-linejoin:round;">
<g transform="rotate(-90 8562.99 10462.6)">
<text x="8562.99" y="10561"
textLength="461.098" font-size="262.467" lengthAdjust="spacingAndGlyphs"
text-anchor="middle" opacity="0">R7</text>
</g>
<path d="M8652 10495
L8558 10561
" />
<path d="M8652 10607
L8455 10607
L8455 10532
L8464 10514
L8473 10504
L8492 10495
L8520 10495
L8539 10504
L8548 10514
L8558 10532
L8558 10607
" />
<path d="M8455 10429
L8455 10298
L8652 10382
" />
</g>
<g style="fill:#000000; fill-opacity:0.0; 
stroke:#000000; stroke-width:59.0551; stroke-opacity:1; 
stroke-linecap:round; stroke-linejoin:round;">
<text x="17460.6" y="6446.85"
textLength="734.608" font-size="524.934" lengthAdjust="spacingAndGlyphs"
text-anchor="middle" opacity="0">1k</text>
<path d="M17413 6428
L17188 6428
" />
<path d="M17301 6428
L17301 6034
L17263 6090
L17226 6128
L17188 6146
" />
<path d="M17582 6428
L17582 6034
" />
<path d="M17619 6278
L17732 6428
" />
<path d="M17732 6165
L17582 6315
" />
</g>
<g style="fill:#000000; fill-opacity:0.0; 
stroke:#000000; stroke-width:31.4961; stroke-opacity:1; 
stroke-linecap:round; stroke-linejoin:round;">
<text x="17460.6" y="6998.03"
textLength="461.098" font-size="262.467" lengthAdjust="spacingAndGlyphs"
text-anchor="middle" opacity="0">R6</text>
<path d="M17427 6988
L17362 6894
" />
<path d="M17315 6988
L17315 6791
L17390 6791
L17409 6801
L17418 6810
L17427 6829
L17427 6857
L17418 6876
L17409 6885
L17390 6894
L17315 6894
" />
<path d="M17596 6791
L17559 6791
L17540 6801
L17530 6810
L17512 6838
L17502 6876
L17502 6951
L17512 6969
L17521 6979
L17540 6988
L17577 6988
L17596 6979
L17605 6969
L17615 6951
L17615 6904
L17605 6885
L17596 6876
L17577 6866
L17540 6866
L17521 6876
L17512 6885
L17502 6904
" />
</g>
<g style="fill:#000000; fill-opacity:0.0; 
stroke:#000000; stroke-width:59.0551; stroke-opacity:1; 
stroke-linecap:round; stroke-linejoin:round;">
<text x="21752" y="12923.2"
textLength="1109.56" font-size="524.934" lengthAdjust="spacingAndGlyphs"
text-anchor="middle" opacity="0">10k</text>
<path d="M21517 12904
L21292 12904
" />
<path d="M21405 12904
L21405 12510
L21367 12567
L21330 12604
L21292 12623
" />
<path d="M21761 12510
L21798 12510
L21836 12529
L21855 12548
L21873 12585
L21892 12660
L21892 12754
L21873 12829
L21855 12866
L21836 12885
L21798 12904
L21761 12904
L21723 12885
L21705 12866
L21686 12829
L21667 12754
L21667 12660
L21686 12585
L21705 12548
L21723 12529
L21761 12510
" />
<path d="M22061 12904
L22061 12510
" />
<path d="M22098 12754
L22211 12904
" />
<path d="M22211 12642
L22061 12791
" />
</g>
<g style="fill:#000000; fill-opacity:0.0; 
stroke:#000000; stroke-width:31.4961; stroke-opacity:1; 
stroke-linecap:round; stroke-linejoin:round;">
<text x="21752" y="12175.2"
textLength="461.098" font-size="262.467" lengthAdjust="spacingAndGlyphs"
text-anchor="middle" opacity="0">R5</text>
<path d="M21719 12165
L21653 12072
" />
<path d="M21606 12165
L21606 11968
L21681 11968
L21700 11978
L21709 11987
L21719 12006
L21719 12034
L21709 12053
L21700 12062
L21681 12072
L21606 12072
" />
<path d="M21897 11968
L21803 11968
L21794 12062
L21803 12053
L21822 12043
L21869 12043
L21887 12053
L21897 12062
L21906 12081
L21906 12128
L21897 12147
L21887 12156
L21869 12165
L21822 12165
L21803 12156
L21794 12147
" />
</g>
<g style="fill:#000000; fill-opacity:0.0; 
stroke:#000000; stroke-width:59.0551; stroke-opacity:1; 
stroke-linecap:round; stroke-linejoin:round;">
<text x="12549.2" y="9084.65"
textLength="734.608" font-size="524.934" lengthAdjust="spacingAndGlyphs"
text-anchor="middle" opacity="0">1k</text>
<path d="M12502 9065
L12277 9065
" />
<path d="M12389 9065
L12389 8672
L12352 8728
L12314 8765
L12277 8784
" />
<path d="M12671 9065
L12671 8672
" />
<path d="M12708 8915
L12821 9065
" />
<path d="M12821 8803
L12671 8953
" />
</g>
<g style="fill:#000000; fill-opacity:0.0; 
stroke:#000000; stroke-width:31.4961; stroke-opacity:1; 
stroke-linecap:round; stroke-linejoin:round;">
<text x="12204.7" y="8336.61"
textLength="461.098" font-size="262.467" lengthAdjust="spacingAndGlyphs"
text-anchor="middle" opacity="0">R1</text>
<path d="M12171 8327
L12106 8233
" />
<path d="M12059 8327
L12059 8130
L12134 8130
L12153 8139
L12162 8149
L12171 8167
L12171 8196
L12162 8214
L12153 8224
L12134 8233
L12059 8233
" />
<path d="M12359 8327
L12246 8327
" />
<path d="M12303 8327
L12303 8130
L12284 8158
L12265 8177
L12246 8186
" />
</g>
<g style="fill:#000000; fill-opacity:0.0; 
stroke:#000000; stroke-width:59.0551; stroke-opacity:1; 
stroke-linecap:round; stroke-linejoin:round;">
<text x="22056.1" y="17220.9"
textLength="3228.05" font-size="524.934" lengthAdjust="spacingAndGlyphs"
text-anchor="middle" opacity="0">USB_power</text>
<path d="M20556 16808
L20556 17127
L20575 17164
L20593 17183
L20631 17202
L20706 17202
L20743 17183
L20762 17164
L20781 17127
L20781 16808
" />
<path d="M20950 17183
L21006 17202
L21100 17202
L21137 17183
L21156 17164
L21175 17127
L21175 17089
L21156 17052
L21137 17033
L21100 17014
L21025 16995
L20987 16977
L20968 16958
L20950 16920
L20950 16883
L20968 16845
L20987 16827
L21025 16808
L21118 16808
L21175 16827
" />
<path d="M21474 16995
L21531 17014
L21549 17033
L21568 17070
L21568 17127
L21549 17164
L21531 17183
L21493 17202
L21343 17202
L21343 16808
L21474 16808
L21512 16827
L21531 16845
L21549 16883
L21549 16920
L21531 16958
L21512 16977
L21474 16995
L21343 16995
" />
<path d="M21643 17239
L21943 17239
" />
<path d="M22037 16939
L22037 17333
" />
<path d="M22037 16958
L22074 16939
L22149 16939
L22187 16958
L22206 16977
L22224 17014
L22224 17127
L22206 17164
L22187 17183
L22149 17202
L22074 17202
L22037 17183
" />
<path d="M22449 17202
L22412 17183
L22393 17164
L22374 17127
L22374 17014
L22393 16977
L22412 16958
L22449 16939
L22506 16939
L22543 16958
L22562 16977
L22581 17014
L22581 17127
L22562 17164
L22543 17183
L22506 17202
L22449 17202
" />
<path d="M22712 16939
L22787 17202
L22862 17014
L22937 17202
L23012 16939
" />
<path d="M23312 17183
L23274 17202
L23199 17202
L23162 17183
L23143 17145
L23143 16995
L23162 16958
L23199 16939
L23274 16939
L23312 16958
L23330 16995
L23330 17033
L23143 17070
" />
<path d="M23499 17202
L23499 16939
" />
<path d="M23499 17014
L23518 16977
L23537 16958
L23574 16939
L23612 16939
" />
<text x="20838" y="10450.2"
textLength="3451.35" font-size="524.934" lengthAdjust="spacingAndGlyphs"
text-anchor="middle" opacity="0">AVR-ISP-6</text>
<path d="M19225 10319
L19413 10319
" />
<path d="M19188 10431
L19319 10037
L19450 10431
" />
<path d="M19525 10037
L19656 10431
L19788 10037
" />
<path d="M20144 10431
L20013 10244
" />
<path d="M19919 10431
L19919 10037
L20069 10037
L20106 10056
L20125 10075
L20144 10112
L20144 10169
L20125 10206
L20106 10225
L20069 10244
L19919 10244
" />
<path d="M20313 10281
L20612 10281
" />
<path d="M20800 10431
L20800 10037
" />
<path d="M20969 10412
L21025 10431
L21119 10431
L21156 10412
L21175 10393
L21194 10356
L21194 10319
L21175 10281
L21156 10262
L21119 10244
L21044 10225
L21006 10206
L20987 10187
L20969 10150
L20969 10112
L20987 10075
L21006 10056
L21044 10037
L21137 10037
L21194 10056
" />
<path d="M21362 10431
L21362 10037
L21512 10037
L21550 10056
L21569 10075
L21587 10112
L21587 10169
L21569 10206
L21550 10225
L21512 10244
L21362 10244
" />
<path d="M21756 10281
L22056 10281
" />
<path d="M22412 10037
L22337 10037
L22300 10056
L22281 10075
L22244 10131
L22225 10206
L22225 10356
L22244 10393
L22262 10412
L22300 10431
L22375 10431
L22412 10412
L22431 10393
L22450 10356
L22450 10262
L22431 10225
L22412 10206
L22375 10187
L22300 10187
L22262 10206
L22244 10225
L22225 10262
" />
<g transform="rotate(-90 20838 8336.06)">
<text x="20838" y="8532.91"
textLength="751.687" font-size="524.934" lengthAdjust="spacingAndGlyphs"
text-anchor="middle" opacity="0">J2</text>
</g>
<path d="M20622 8467
L20903 8467
L20959 8486
L20997 8523
L21016 8579
L21016 8617
" />
<path d="M20659 8298
L20641 8279
L20622 8242
L20622 8148
L20641 8111
L20659 8092
L20697 8073
L20734 8073
L20791 8092
L21016 8317
L21016 8073
" />
<g transform="rotate(-90 5159.69 11446.7)">
<text x="5159.69" y="11643.6"
textLength="3826.3" font-size="524.934" lengthAdjust="spacingAndGlyphs"
text-anchor="middle" opacity="0">USB_B_Micro</text>
</g>
<path d="M4944 13227
L5262 13227
L5300 13209
L5319 13190
L5337 13152
L5337 13077
L5319 13040
L5300 13021
L5262 13002
L4944 13002
" />
<path d="M5319 12834
L5337 12777
L5337 12684
L5319 12646
L5300 12627
L5262 12609
L5225 12609
L5187 12627
L5169 12646
L5150 12684
L5131 12759
L5112 12796
L5094 12815
L5056 12834
L5019 12834
L4981 12815
L4962 12796
L4944 12759
L4944 12665
L4962 12609
" />
<path d="M5131 12309
L5150 12252
L5169 12234
L5206 12215
L5262 12215
L5300 12234
L5319 12252
L5337 12290
L5337 12440
L4944 12440
L4944 12309
L4962 12271
L4981 12252
L5019 12234
L5056 12234
L5094 12252
L5112 12271
L5131 12309
L5131 12440
" />
<path d="M5375 12140
L5375 11840
" />
<path d="M5131 11615
L5150 11559
L5169 11540
L5206 11521
L5262 11521
L5300 11540
L5319 11559
L5337 11596
L5337 11746
L4944 11746
L4944 11615
L4962 11577
L4981 11559
L5019 11540
L5056 11540
L5094 11559
L5112 11577
L5131 11615
L5131 11746
" />
<path d="M5375 11446
L5375 11146
" />
<path d="M5337 11053
L4944 11053
L5225 10921
L4944 10790
L5337 10790
" />
<path d="M5337 10603
L5075 10603
" />
<path d="M4944 10603
L4962 10621
L4981 10603
L4962 10584
L4944 10603
L4981 10603
" />
<path d="M5319 10246
L5337 10284
L5337 10359
L5319 10396
L5300 10415
L5262 10434
L5150 10434
L5112 10415
L5094 10396
L5075 10359
L5075 10284
L5094 10246
" />
<path d="M5337 10078
L5075 10078
" />
<path d="M5150 10078
L5112 10059
L5094 10040
L5075 10003
L5075 9965
" />
<path d="M5337 9778
L5319 9815
L5300 9834
L5262 9853
L5150 9853
L5112 9834
L5094 9815
L5075 9778
L5075 9721
L5094 9684
L5112 9665
L5150 9646
L5262 9646
L5300 9665
L5319 9684
L5337 9721
L5337 9778
" />
<g transform="rotate(-90 6498.27 11446.7)">
<text x="6498.27" y="11643.6"
textLength="751.687" font-size="524.934" lengthAdjust="spacingAndGlyphs"
text-anchor="middle" opacity="0">J1</text>
</g>
<path d="M6282 11577
L6563 11577
L6620 11596
L6657 11634
L6676 11690
L6676 11727
" />
<path d="M6676 11184
L6676 11409
" />
<path d="M6676 11296
L6282 11296
L6338 11334
L6376 11371
L6395 11409
" />
<text x="10226.4" y="10039.4"
textLength="1126.64" font-size="524.934" lengthAdjust="spacingAndGlyphs"
text-anchor="middle" opacity="0">3v3</text>
<path d="M9757 9626
L10001 9626
L9870 9776
L9926 9776
L9963 9795
L9982 9814
L10001 9851
L10001 9945
L9982 9983
L9963 10001
L9926 10020
L9813 10020
L9776 10001
L9757 9983
" />
<path d="M10132 9758
L10226 10020
L10320 9758
" />
<path d="M10432 9626
L10676 9626
L10545 9776
L10601 9776
L10638 9795
L10657 9814
L10676 9851
L10676 9945
L10657 9983
L10638 10001
L10601 10020
L10488 10020
L10451 10001
L10432 9983
" />
</g>
<g style="fill:#000000; fill-opacity:0.0; 
stroke:#000000; stroke-width:31.4961; stroke-opacity:1; 
stroke-linecap:round; stroke-linejoin:round;">
<text x="10226.4" y="9291.34"
textLength="461.098" font-size="262.467" lengthAdjust="spacingAndGlyphs"
text-anchor="middle" opacity="0">D5</text>
<path d="M10081 9281
L10081 9085
L10127 9085
L10156 9094
L10174 9113
L10184 9131
L10193 9169
L10193 9197
L10184 9235
L10174 9253
L10156 9272
L10127 9281
L10081 9281
" />
<path d="M10371 9085
L10277 9085
L10268 9178
L10277 9169
L10296 9160
L10343 9160
L10362 9169
L10371 9178
L10381 9197
L10381 9244
L10371 9263
L10362 9272
L10343 9281
L10296 9281
L10277 9272
L10268 9263
" />
</g>
<g style="fill:#000000; fill-opacity:0.0; 
stroke:#000000; stroke-width:59.0551; stroke-opacity:1; 
stroke-linecap:round; stroke-linejoin:round;">
<text x="15836.6" y="7746.06"
textLength="2571.88" font-size="524.934" lengthAdjust="spacingAndGlyphs"
text-anchor="middle" opacity="0">LED_SCK</text>
<path d="M14852 7727
L14664 7727
L14664 7333
" />
<path d="M14983 7521
L15114 7521
" />
<path d="M15171 7727
L14983 7727
L14983 7333
L15171 7333
" />
<path d="M15339 7727
L15339 7333
L15433 7333
L15489 7352
L15527 7389
L15546 7427
L15564 7502
L15564 7558
L15546 7633
L15527 7671
L15489 7708
L15433 7727
L15339 7727
" />
<path d="M15639 7764
L15939 7764
" />
<path d="M16014 7708
L16070 7727
L16164 7727
L16202 7708
L16220 7689
L16239 7652
L16239 7614
L16220 7577
L16202 7558
L16164 7539
L16089 7521
L16052 7502
L16033 7483
L16014 7446
L16014 7408
L16033 7371
L16052 7352
L16089 7333
L16183 7333
L16239 7352
" />
<path d="M16633 7689
L16614 7708
L16558 7727
L16520 7727
L16464 7708
L16427 7671
L16408 7633
L16389 7558
L16389 7502
L16408 7427
L16427 7389
L16464 7352
L16520 7333
L16558 7333
L16614 7352
L16633 7371
" />
<path d="M16802 7727
L16802 7333
" />
<path d="M17027 7727
L16858 7502
" />
<path d="M17027 7333
L16802 7558
" />
</g>
<g style="fill:#000000; fill-opacity:0.0; 
stroke:#000000; stroke-width:31.4961; stroke-opacity:1; 
stroke-linecap:round; stroke-linejoin:round;">
<text x="15836.6" y="6998.03"
textLength="461.098" font-size="262.467" lengthAdjust="spacingAndGlyphs"
text-anchor="middle" opacity="0">D4</text>
<path d="M15691 6988
L15691 6791
L15738 6791
L15766 6801
L15785 6819
L15794 6838
L15803 6876
L15803 6904
L15794 6941
L15785 6960
L15766 6979
L15738 6988
L15691 6988
" />
<path d="M15972 6857
L15972 6988
" />
<path d="M15925 6782
L15878 6923
L16000 6923
" />
</g>
<g style="fill:#000000; fill-opacity:0.0; 
stroke:#000000; stroke-width:59.0551; stroke-opacity:1; 
stroke-linecap:round; stroke-linejoin:round;">
<text x="10639.8" y="9094.49"
textLength="3115.56" font-size="524.934" lengthAdjust="spacingAndGlyphs"
text-anchor="middle" opacity="0">LED_power</text>
<path d="M9383 9075
L9196 9075
L9196 8682
" />
<path d="M9514 8869
L9646 8869
" />
<path d="M9702 9075
L9514 9075
L9514 8682
L9702 8682
" />
<path d="M9871 9075
L9871 8682
L9964 8682
L10021 8700
L10058 8738
L10077 8775
L10096 8850
L10096 8907
L10077 8982
L10058 9019
L10021 9056
L9964 9075
L9871 9075
" />
<path d="M10171 9113
L10471 9113
" />
<path d="M10564 8813
L10564 9206
" />
<path d="M10564 8832
L10602 8813
L10677 8813
L10714 8832
L10733 8850
L10752 8888
L10752 9000
L10733 9038
L10714 9056
L10677 9075
L10602 9075
L10564 9056
" />
<path d="M10977 9075
L10939 9056
L10920 9038
L10902 9000
L10902 8888
L10920 8850
L10939 8832
L10977 8813
L11033 8813
L11070 8832
L11089 8850
L11108 8888
L11108 9000
L11089 9038
L11070 9056
L11033 9075
L10977 9075
" />
<path d="M11239 8813
L11314 9075
L11389 8888
L11464 9075
L11539 8813
" />
<path d="M11839 9056
L11802 9075
L11727 9075
L11689 9056
L11670 9019
L11670 8869
L11689 8832
L11727 8813
L11802 8813
L11839 8832
L11858 8869
L11858 8907
L11670 8944
" />
<path d="M12027 9075
L12027 8813
" />
<path d="M12027 8888
L12045 8850
L12064 8832
L12102 8813
L12139 8813
" />
</g>
<g style="fill:#000000; fill-opacity:0.0; 
stroke:#000000; stroke-width:31.4961; stroke-opacity:1; 
stroke-linecap:round; stroke-linejoin:round;">
<text x="10639.8" y="8346.46"
textLength="461.098" font-size="262.467" lengthAdjust="spacingAndGlyphs"
text-anchor="middle" opacity="0">D1</text>
<path d="M10494 8337
L10494 8140
L10541 8140
L10569 8149
L10588 8168
L10597 8187
L10606 8224
L10606 8252
L10597 8290
L10588 8308
L10569 8327
L10541 8337
L10494 8337
" />
<path d="M10794 8337
L10681 8337
" />
<path d="M10738 8337
L10738 8140
L10719 8168
L10700 8187
L10681 8196
" />
</g>
<g style="fill:#000000; fill-opacity:0.0; 
stroke:#000000; stroke-width:59.0551; stroke-opacity:1; 
stroke-linecap:round; stroke-linejoin:round;">
<g transform="rotate(-90 8868.11 11407.5)">
<text x="8868.11" y="11604.3"
textLength="1372.03" font-size="524.934" lengthAdjust="spacingAndGlyphs"
text-anchor="middle" opacity="0">10uf</text>
</g>
<path d="M9046 11773
L9046 11998
" />
<path d="M9046 11885
L8652 11885
L8708 11923
L8746 11960
L8764 11998
" />
<path d="M8652 11529
L8652 11491
L8671 11454
L8690 11435
L8727 11416
L8802 11398
L8896 11398
L8971 11416
L9008 11435
L9027 11454
L9046 11491
L9046 11529
L9027 11566
L9008 11585
L8971 11604
L8896 11623
L8802 11623
L8727 11604
L8690 11585
L8671 11566
L8652 11529
" />
<path d="M8783 11060
L9046 11060
" />
<path d="M8783 11229
L8989 11229
L9027 11210
L9046 11173
L9046 11116
L9027 11079
L9008 11060
" />
<path d="M8783 10929
L8783 10779
" />
<path d="M9046 10873
L8708 10873
L8671 10854
L8652 10816
L8652 10779
" />
</g>
<g style="fill:#000000; fill-opacity:0.0; 
stroke:#000000; stroke-width:31.4961; stroke-opacity:1; 
stroke-linecap:round; stroke-linejoin:round;">
<g transform="rotate(-90 9517.72 11407.5)">
<text x="9517.72" y="11505.9"
textLength="461.098" font-size="262.467" lengthAdjust="spacingAndGlyphs"
text-anchor="middle" opacity="0">C4</text>
</g>
<path d="M9588 11440
L9597 11449
L9606 11477
L9606 11496
L9597 11524
L9578 11543
L9559 11552
L9522 11562
L9494 11562
L9456 11552
L9438 11543
L9419 11524
L9409 11496
L9409 11477
L9419 11449
L9428 11440
" />
<path d="M9475 11271
L9606 11271
" />
<path d="M9400 11318
L9541 11365
L9541 11243
" />
</g>
<g style="fill:#000000; fill-opacity:0.0; 
stroke:#000000; stroke-width:59.0551; stroke-opacity:1; 
stroke-linecap:round; stroke-linejoin:round;">
<g transform="rotate(-90 10994.1 10511.8)">
<text x="10994.1" y="10708.7"
textLength="1559.51" font-size="524.934" lengthAdjust="spacingAndGlyphs"
text-anchor="middle" opacity="0">0.1uf</text>
</g>
<path d="M10778 11102
L10778 11064
L10797 11027
L10815 11008
L10853 10989
L10928 10971
L11022 10971
L11097 10989
L11134 11008
L11153 11027
L11172 11064
L11172 11102
L11153 11139
L11134 11158
L11097 11177
L11022 11196
L10928 11196
L10853 11177
L10815 11158
L10797 11139
L10778 11102
" />
<path d="M11134 10802
L11153 10783
L11172 10802
L11153 10821
L11134 10802
L11172 10802
" />
<path d="M11172 10408
L11172 10633
" />
<path d="M11172 10521
L10778 10521
L10834 10558
L10872 10596
L10890 10633
" />
<path d="M10909 10071
L11172 10071
" />
<path d="M10909 10239
L11115 10239
L11153 10221
L11172 10183
L11172 10127
L11153 10089
L11134 10071
" />
<path d="M10909 9940
L10909 9790
" />
<path d="M11172 9883
L10834 9883
L10797 9865
L10778 9827
L10778 9790
" />
</g>
<g style="fill:#000000; fill-opacity:0.0; 
stroke:#000000; stroke-width:31.4961; stroke-opacity:1; 
stroke-linecap:round; stroke-linejoin:round;">
<g transform="rotate(-90 10344.5 10511.8)">
<text x="10344.5" y="10610.2"
textLength="461.098" font-size="262.467" lengthAdjust="spacingAndGlyphs"
text-anchor="middle" opacity="0">C3</text>
</g>
<path d="M10414 10544
L10424 10553
L10433 10582
L10433 10600
L10424 10628
L10405 10647
L10386 10657
L10349 10666
L10321 10666
L10283 10657
L10264 10647
L10246 10628
L10236 10600
L10236 10582
L10246 10553
L10255 10544
" />
<path d="M10236 10479
L10236 10357
L10311 10422
L10311 10394
L10321 10375
L10330 10366
L10349 10357
L10396 10357
L10414 10366
L10424 10375
L10433 10394
L10433 10450
L10424 10469
L10414 10479
" />
</g>
<g style="fill:#000000; fill-opacity:0.0; 
stroke:#000000; stroke-width:59.0551; stroke-opacity:1; 
stroke-linecap:round; stroke-linejoin:round;">
<text x="18090.6" y="14832.7"
textLength="1372.03" font-size="524.934" lengthAdjust="spacingAndGlyphs"
text-anchor="middle" opacity="0">18pf</text>
<path d="M17724 14813
L17500 14813
" />
<path d="M17612 14813
L17612 14420
L17574 14476
L17537 14513
L17500 14532
" />
<path d="M17949 14588
L17912 14570
L17893 14551
L17874 14513
L17874 14495
L17893 14457
L17912 14438
L17949 14420
L18024 14420
L18062 14438
L18081 14457
L18099 14495
L18099 14513
L18081 14551
L18062 14570
L18024 14588
L17949 14588
L17912 14607
L17893 14626
L17874 14663
L17874 14738
L17893 14776
L17912 14795
L17949 14813
L18024 14813
L18062 14795
L18081 14776
L18099 14738
L18099 14663
L18081 14626
L18062 14607
L18024 14588
" />
<path d="M18268 14551
L18268 14945
" />
<path d="M18268 14570
L18306 14551
L18381 14551
L18418 14570
L18437 14588
L18456 14626
L18456 14738
L18437 14776
L18418 14795
L18381 14813
L18306 14813
L18268 14795
" />
<path d="M18568 14551
L18718 14551
" />
<path d="M18624 14813
L18624 14476
L18643 14438
L18681 14420
L18718 14420
" />
</g>
<g style="fill:#000000; fill-opacity:0.0; 
stroke:#000000; stroke-width:31.4961; stroke-opacity:1; 
stroke-linecap:round; stroke-linejoin:round;">
<text x="18208.7" y="15324.8"
textLength="461.098" font-size="262.467" lengthAdjust="spacingAndGlyphs"
text-anchor="middle" opacity="0">C2</text>
<path d="M18175 15296
L18166 15306
L18138 15315
L18119 15315
L18091 15306
L18072 15287
L18063 15268
L18053 15231
L18053 15202
L18063 15165
L18072 15146
L18091 15127
L18119 15118
L18138 15118
L18166 15127
L18175 15137
" />
<path d="M18250 15137
L18260 15127
L18278 15118
L18325 15118
L18344 15127
L18353 15137
L18363 15156
L18363 15174
L18353 15202
L18241 15315
L18363 15315
" />
</g>
<g style="fill:#000000; fill-opacity:0.0; 
stroke:#000000; stroke-width:59.0551; stroke-opacity:1; 
stroke-linecap:round; stroke-linejoin:round;">
<text x="16259.8" y="14773.6"
textLength="1372.03" font-size="524.934" lengthAdjust="spacingAndGlyphs"
text-anchor="middle" opacity="0">18pf</text>
<path d="M15894 14754
L15669 14754
" />
<path d="M15781 14754
L15781 14361
L15744 14417
L15706 14454
L15669 14473
" />
<path d="M16119 14529
L16081 14511
L16062 14492
L16044 14454
L16044 14436
L16062 14398
L16081 14379
L16119 14361
L16194 14361
L16231 14379
L16250 14398
L16269 14436
L16269 14454
L16250 14492
L16231 14511
L16194 14529
L16119 14529
L16081 14548
L16062 14567
L16044 14604
L16044 14679
L16062 14717
L16081 14736
L16119 14754
L16194 14754
L16231 14736
L16250 14717
L16269 14679
L16269 14604
L16250 14567
L16231 14548
L16194 14529
" />
<path d="M16437 14492
L16437 14886
" />
<path d="M16437 14511
L16475 14492
L16550 14492
L16587 14511
L16606 14529
L16625 14567
L16625 14679
L16606 14717
L16587 14736
L16550 14754
L16475 14754
L16437 14736
" />
<path d="M16737 14492
L16887 14492
" />
<path d="M16794 14754
L16794 14417
L16812 14379
L16850 14361
L16887 14361
" />
</g>
<g style="fill:#000000; fill-opacity:0.0; 
stroke:#000000; stroke-width:31.4961; stroke-opacity:1; 
stroke-linecap:round; stroke-linejoin:round;">
<text x="16259.8" y="15324.8"
textLength="461.098" font-size="262.467" lengthAdjust="spacingAndGlyphs"
text-anchor="middle" opacity="0">C1</text>
<path d="M16227 15296
L16217 15306
L16189 15315
L16170 15315
L16142 15306
L16123 15287
L16114 15268
L16105 15231
L16105 15202
L16114 15165
L16123 15146
L16142 15127
L16170 15118
L16189 15118
L16217 15127
L16227 15137
" />
<path d="M16414 15315
L16302 15315
" />
<path d="M16358 15315
L16358 15118
L16339 15146
L16320 15165
L16302 15174
" />
<g >
</g>
</g> 
</svg>
