<?xml version="1.0" standalone="no"?>
 <!DOCTYPE svg PUBLIC "-//W3C//DTD SVG 1.1//EN" 
 "http://www.w3.org/Graphics/SVG/1.1/DTD/svg11.dtd"> 
<svg
  xmlns:svg="http://www.w3.org/2000/svg"
  xmlns="http://www.w3.org/2000/svg"
  xmlns:xlink="http://www.w3.org/1999/xlink"
  version="1.1"
  width="29.700220cm" height="21.000720cm" viewBox="0 0 116930 82680">
<title>SVG Picture created as USBTINYISP_MICRO_USB-Edge_Cuts.svg date 2020/06/30 13:33:08 </title>
  <desc>Picture generated by PCBNEW </desc>
<g style="fill:#000000; fill-opacity:1;stroke:#000000; stroke-opacity:1;
stroke-linecap:round; stroke-linejoin:round;"
 transform="translate(0 0) scale(1 1)">
</g>
<g style="fill:#000000; fill-opacity:0.0; 
stroke:#000000; stroke-width:-0.000393701; stroke-opacity:1; 
stroke-linecap:round; stroke-linejoin:round;">
</g>
<g style="fill:#000000; fill-opacity:0.0; 
stroke:#000000; stroke-width:7.87402; stroke-opacity:1; 
stroke-linecap:round; stroke-linejoin:round;">
</g>
<g style="fill:#000000; fill-opacity:0.0; 
stroke:#000000; stroke-width:59.0551; stroke-opacity:1; 
stroke-linecap:round; stroke-linejoin:round;">
<rect x="69685.9" y="65357.2" width="42519.7" height="12598.4" rx="0" />
</g>
<g style="fill:#000000; fill-opacity:0.0; 
stroke:#000000; stroke-width:7.87402; stroke-opacity:1; 
stroke-linecap:round; stroke-linejoin:round;">
</g>
<g style="fill:#000000; fill-opacity:0.0; 
stroke:#000000; stroke-width:59.0551; stroke-opacity:1; 
stroke-linecap:round; stroke-linejoin:round;">
<rect x="3937.01" y="3937.01" width="109056" height="74806" rx="0" />
</g>
<g style="fill:#000000; fill-opacity:0.0; 
stroke:#000000; stroke-width:7.87402; stroke-opacity:1; 
stroke-linecap:round; stroke-linejoin:round;">
</g>
<g style="fill:#000000; fill-opacity:0.0; 
stroke:#000000; stroke-width:59.0551; stroke-opacity:1; 
stroke-linecap:round; stroke-linejoin:round;">
<rect x="4724.41" y="4724.41" width="107481" height="73231.2" rx="0" />
</g>
<g style="fill:#000000; fill-opacity:0.0; 
stroke:#000000; stroke-width:7.87402; stroke-opacity:1; 
stroke-linecap:round; stroke-linejoin:round;">
</g>
<g style="fill:#000000; fill-opacity:0.0; 
stroke:#000000; stroke-width:59.0551; stroke-opacity:1; 
stroke-linecap:round; stroke-linejoin:round;">
<path d="M23622 4724
L23622 3937
" />
</g>
<g style="fill:#000000; fill-opacity:0.0; 
stroke:#000000; stroke-width:7.87402; stroke-opacity:1; 
stroke-linecap:round; stroke-linejoin:round;">
</g>
<g style="fill:#000000; fill-opacity:0.0; 
stroke:#000000; stroke-width:59.0551; stroke-opacity:1; 
stroke-linecap:round; stroke-linejoin:round;">
<path d="M43307 4724
L43307 3937
" />
</g>
<g style="fill:#000000; fill-opacity:0.0; 
stroke:#000000; stroke-width:7.87402; stroke-opacity:1; 
stroke-linecap:round; stroke-linejoin:round;">
</g>
<g style="fill:#000000; fill-opacity:0.0; 
stroke:#000000; stroke-width:59.0551; stroke-opacity:1; 
stroke-linecap:round; stroke-linejoin:round;">
<path d="M62992 4724
L62992 3937
" />
</g>
<g style="fill:#000000; fill-opacity:0.0; 
stroke:#000000; stroke-width:7.87402; stroke-opacity:1; 
stroke-linecap:round; stroke-linejoin:round;">
</g>
<g style="fill:#000000; fill-opacity:0.0; 
stroke:#000000; stroke-width:59.0551; stroke-opacity:1; 
stroke-linecap:round; stroke-linejoin:round;">
<path d="M82677 4724
L82677 3937
" />
</g>
<g style="fill:#000000; fill-opacity:0.0; 
stroke:#000000; stroke-width:7.87402; stroke-opacity:1; 
stroke-linecap:round; stroke-linejoin:round;">
</g>
<g style="fill:#000000; fill-opacity:0.0; 
stroke:#000000; stroke-width:59.0551; stroke-opacity:1; 
stroke-linecap:round; stroke-linejoin:round;">
<path d="M102362 4724
L102362 3937
" />
</g>
<g style="fill:#000000; fill-opacity:0.0; 
stroke:#000000; stroke-width:7.87402; stroke-opacity:1; 
stroke-linecap:round; stroke-linejoin:round;">
</g>
<g style="fill:#000000; fill-opacity:0.0; 
stroke:#000000; stroke-width:59.0551; stroke-opacity:1; 
stroke-linecap:round; stroke-linejoin:round;">
<text x="13779.5" y="4586.61"
textLength="546.494" font-size="682.415" lengthAdjust="spacingAndGlyphs"
text-anchor="start" opacity="0">1</text>
<path d="M14199 4562
L13906 4562
" />
<path d="M14052 4562
L14052 4050
L14004 4123
L13955 4172
L13906 4196
" />
</g>
<g style="fill:#000000; fill-opacity:0.0; 
stroke:#000000; stroke-width:7.87402; stroke-opacity:1; 
stroke-linecap:round; stroke-linejoin:round;">
</g>
<g style="fill:#000000; fill-opacity:0.0; 
stroke:#000000; stroke-width:59.0551; stroke-opacity:1; 
stroke-linecap:round; stroke-linejoin:round;">
<text x="33464.6" y="4586.61"
textLength="546.494" font-size="682.415" lengthAdjust="spacingAndGlyphs"
text-anchor="start" opacity="0">2</text>
<path d="M33591 4099
L33615 4074
L33664 4050
L33786 4050
L33835 4074
L33859 4099
L33884 4147
L33884 4196
L33859 4269
L33567 4562
L33884 4562
" />
</g>
<g style="fill:#000000; fill-opacity:0.0; 
stroke:#000000; stroke-width:7.87402; stroke-opacity:1; 
stroke-linecap:round; stroke-linejoin:round;">
</g>
<g style="fill:#000000; fill-opacity:0.0; 
stroke:#000000; stroke-width:59.0551; stroke-opacity:1; 
stroke-linecap:round; stroke-linejoin:round;">
<text x="53149.6" y="4586.61"
textLength="546.494" font-size="682.415" lengthAdjust="spacingAndGlyphs"
text-anchor="start" opacity="0">3</text>
<path d="M53252 4050
L53569 4050
L53398 4245
L53471 4245
L53520 4269
L53544 4294
L53569 4342
L53569 4464
L53544 4513
L53520 4537
L53471 4562
L53325 4562
L53276 4537
L53252 4513
" />
</g>
<g style="fill:#000000; fill-opacity:0.0; 
stroke:#000000; stroke-width:7.87402; stroke-opacity:1; 
stroke-linecap:round; stroke-linejoin:round;">
</g>
<g style="fill:#000000; fill-opacity:0.0; 
stroke:#000000; stroke-width:59.0551; stroke-opacity:1; 
stroke-linecap:round; stroke-linejoin:round;">
<text x="72834.6" y="4586.61"
textLength="546.494" font-size="682.415" lengthAdjust="spacingAndGlyphs"
text-anchor="start" opacity="0">4</text>
<path d="M73205 4221
L73205 4562
" />
<path d="M73083 4026
L72961 4391
L73278 4391
" />
</g>
<g style="fill:#000000; fill-opacity:0.0; 
stroke:#000000; stroke-width:7.87402; stroke-opacity:1; 
stroke-linecap:round; stroke-linejoin:round;">
</g>
<g style="fill:#000000; fill-opacity:0.0; 
stroke:#000000; stroke-width:59.0551; stroke-opacity:1; 
stroke-linecap:round; stroke-linejoin:round;">
<text x="92519.7" y="4586.61"
textLength="546.494" font-size="682.415" lengthAdjust="spacingAndGlyphs"
text-anchor="start" opacity="0">5</text>
<path d="M92914 4050
L92671 4050
L92646 4294
L92671 4269
L92719 4245
L92841 4245
L92890 4269
L92914 4294
L92939 4342
L92939 4464
L92914 4513
L92890 4537
L92841 4562
L92719 4562
L92671 4537
L92646 4513
" />
</g>
<g style="fill:#000000; fill-opacity:0.0; 
stroke:#000000; stroke-width:7.87402; stroke-opacity:1; 
stroke-linecap:round; stroke-linejoin:round;">
</g>
<g style="fill:#000000; fill-opacity:0.0; 
stroke:#000000; stroke-width:59.0551; stroke-opacity:1; 
stroke-linecap:round; stroke-linejoin:round;">
<text x="112205" y="4586.61"
textLength="546.494" font-size="682.415" lengthAdjust="spacingAndGlyphs"
text-anchor="start" opacity="0">6</text>
<path d="M112575 4050
L112477 4050
L112429 4074
L112404 4099
L112356 4172
L112331 4269
L112331 4464
L112356 4513
L112380 4537
L112429 4562
L112526 4562
L112575 4537
L112599 4513
L112624 4464
L112624 4342
L112599 4294
L112575 4269
L112526 4245
L112429 4245
L112380 4269
L112356 4294
L112331 4342
" />
</g>
<g style="fill:#000000; fill-opacity:0.0; 
stroke:#000000; stroke-width:7.87402; stroke-opacity:1; 
stroke-linecap:round; stroke-linejoin:round;">
</g>
<g style="fill:#000000; fill-opacity:0.0; 
stroke:#000000; stroke-width:59.0551; stroke-opacity:1; 
stroke-linecap:round; stroke-linejoin:round;">
<path d="M23622 77955
L23622 78742
" />
</g>
<g style="fill:#000000; fill-opacity:0.0; 
stroke:#000000; stroke-width:7.87402; stroke-opacity:1; 
stroke-linecap:round; stroke-linejoin:round;">
</g>
<g style="fill:#000000; fill-opacity:0.0; 
stroke:#000000; stroke-width:59.0551; stroke-opacity:1; 
stroke-linecap:round; stroke-linejoin:round;">
<path d="M43307 77955
L43307 78742
" />
</g>
<g style="fill:#000000; fill-opacity:0.0; 
stroke:#000000; stroke-width:7.87402; stroke-opacity:1; 
stroke-linecap:round; stroke-linejoin:round;">
</g>
<g style="fill:#000000; fill-opacity:0.0; 
stroke:#000000; stroke-width:59.0551; stroke-opacity:1; 
stroke-linecap:round; stroke-linejoin:round;">
<path d="M62992 77955
L62992 78742
" />
</g>
<g style="fill:#000000; fill-opacity:0.0; 
stroke:#000000; stroke-width:7.87402; stroke-opacity:1; 
stroke-linecap:round; stroke-linejoin:round;">
</g>
<g style="fill:#000000; fill-opacity:0.0; 
stroke:#000000; stroke-width:59.0551; stroke-opacity:1; 
stroke-linecap:round; stroke-linejoin:round;">
<path d="M82677 77955
L82677 78742
" />
</g>
<g style="fill:#000000; fill-opacity:0.0; 
stroke:#000000; stroke-width:7.87402; stroke-opacity:1; 
stroke-linecap:round; stroke-linejoin:round;">
</g>
<g style="fill:#000000; fill-opacity:0.0; 
stroke:#000000; stroke-width:59.0551; stroke-opacity:1; 
stroke-linecap:round; stroke-linejoin:round;">
<path d="M102362 77955
L102362 78742
" />
</g>
<g style="fill:#000000; fill-opacity:0.0; 
stroke:#000000; stroke-width:7.87402; stroke-opacity:1; 
stroke-linecap:round; stroke-linejoin:round;">
</g>
<g style="fill:#000000; fill-opacity:0.0; 
stroke:#000000; stroke-width:59.0551; stroke-opacity:1; 
stroke-linecap:round; stroke-linejoin:round;">
<text x="13779.5" y="78605.2"
textLength="546.494" font-size="682.415" lengthAdjust="spacingAndGlyphs"
text-anchor="start" opacity="0">1</text>
<path d="M14199 78580
L13906 78580
" />
<path d="M14052 78580
L14052 78069
L14004 78142
L13955 78190
L13906 78215
" />
</g>
<g style="fill:#000000; fill-opacity:0.0; 
stroke:#000000; stroke-width:7.87402; stroke-opacity:1; 
stroke-linecap:round; stroke-linejoin:round;">
</g>
<g style="fill:#000000; fill-opacity:0.0; 
stroke:#000000; stroke-width:59.0551; stroke-opacity:1; 
stroke-linecap:round; stroke-linejoin:round;">
<text x="33464.6" y="78605.2"
textLength="546.494" font-size="682.415" lengthAdjust="spacingAndGlyphs"
text-anchor="start" opacity="0">2</text>
<path d="M33591 78117
L33615 78093
L33664 78069
L33786 78069
L33835 78093
L33859 78117
L33884 78166
L33884 78215
L33859 78288
L33567 78580
L33884 78580
" />
</g>
<g style="fill:#000000; fill-opacity:0.0; 
stroke:#000000; stroke-width:7.87402; stroke-opacity:1; 
stroke-linecap:round; stroke-linejoin:round;">
</g>
<g style="fill:#000000; fill-opacity:0.0; 
stroke:#000000; stroke-width:59.0551; stroke-opacity:1; 
stroke-linecap:round; stroke-linejoin:round;">
<text x="53149.6" y="78605.2"
textLength="546.494" font-size="682.415" lengthAdjust="spacingAndGlyphs"
text-anchor="start" opacity="0">3</text>
<path d="M53252 78069
L53569 78069
L53398 78263
L53471 78263
L53520 78288
L53544 78312
L53569 78361
L53569 78483
L53544 78532
L53520 78556
L53471 78580
L53325 78580
L53276 78556
L53252 78532
" />
</g>
<g style="fill:#000000; fill-opacity:0.0; 
stroke:#000000; stroke-width:7.87402; stroke-opacity:1; 
stroke-linecap:round; stroke-linejoin:round;">
</g>
<g style="fill:#000000; fill-opacity:0.0; 
stroke:#000000; stroke-width:59.0551; stroke-opacity:1; 
stroke-linecap:round; stroke-linejoin:round;">
<text x="72834.6" y="78605.2"
textLength="546.494" font-size="682.415" lengthAdjust="spacingAndGlyphs"
text-anchor="start" opacity="0">4</text>
<path d="M73205 78239
L73205 78580
" />
<path d="M73083 78044
L72961 78410
L73278 78410
" />
</g>
<g style="fill:#000000; fill-opacity:0.0; 
stroke:#000000; stroke-width:7.87402; stroke-opacity:1; 
stroke-linecap:round; stroke-linejoin:round;">
</g>
<g style="fill:#000000; fill-opacity:0.0; 
stroke:#000000; stroke-width:59.0551; stroke-opacity:1; 
stroke-linecap:round; stroke-linejoin:round;">
<text x="92519.7" y="78605.2"
textLength="546.494" font-size="682.415" lengthAdjust="spacingAndGlyphs"
text-anchor="start" opacity="0">5</text>
<path d="M92914 78069
L92671 78069
L92646 78312
L92671 78288
L92719 78263
L92841 78263
L92890 78288
L92914 78312
L92939 78361
L92939 78483
L92914 78532
L92890 78556
L92841 78580
L92719 78580
L92671 78556
L92646 78532
" />
</g>
<g style="fill:#000000; fill-opacity:0.0; 
stroke:#000000; stroke-width:7.87402; stroke-opacity:1; 
stroke-linecap:round; stroke-linejoin:round;">
</g>
<g style="fill:#000000; fill-opacity:0.0; 
stroke:#000000; stroke-width:59.0551; stroke-opacity:1; 
stroke-linecap:round; stroke-linejoin:round;">
<text x="112205" y="78605.2"
textLength="546.494" font-size="682.415" lengthAdjust="spacingAndGlyphs"
text-anchor="start" opacity="0">6</text>
<path d="M112575 78069
L112477 78069
L112429 78093
L112404 78117
L112356 78190
L112331 78288
L112331 78483
L112356 78532
L112380 78556
L112429 78580
L112526 78580
L112575 78556
L112599 78532
L112624 78483
L112624 78361
L112599 78312
L112575 78288
L112526 78263
L112429 78263
L112380 78288
L112356 78312
L112331 78361
" />
</g>
<g style="fill:#000000; fill-opacity:0.0; 
stroke:#000000; stroke-width:7.87402; stroke-opacity:1; 
stroke-linecap:round; stroke-linejoin:round;">
</g>
<g style="fill:#000000; fill-opacity:0.0; 
stroke:#000000; stroke-width:59.0551; stroke-opacity:1; 
stroke-linecap:round; stroke-linejoin:round;">
<path d="M3937 23622
L4724 23622
" />
</g>
<g style="fill:#000000; fill-opacity:0.0; 
stroke:#000000; stroke-width:7.87402; stroke-opacity:1; 
stroke-linecap:round; stroke-linejoin:round;">
</g>
<g style="fill:#000000; fill-opacity:0.0; 
stroke:#000000; stroke-width:59.0551; stroke-opacity:1; 
stroke-linecap:round; stroke-linejoin:round;">
<path d="M3937 43307
L4724 43307
" />
</g>
<g style="fill:#000000; fill-opacity:0.0; 
stroke:#000000; stroke-width:7.87402; stroke-opacity:1; 
stroke-linecap:round; stroke-linejoin:round;">
</g>
<g style="fill:#000000; fill-opacity:0.0; 
stroke:#000000; stroke-width:59.0551; stroke-opacity:1; 
stroke-linecap:round; stroke-linejoin:round;">
<path d="M3937 62992
L4724 62992
" />
</g>
<g style="fill:#000000; fill-opacity:0.0; 
stroke:#000000; stroke-width:7.87402; stroke-opacity:1; 
stroke-linecap:round; stroke-linejoin:round;">
</g>
<g style="fill:#000000; fill-opacity:0.0; 
stroke:#000000; stroke-width:59.0551; stroke-opacity:1; 
stroke-linecap:round; stroke-linejoin:round;">
<text x="4330.71" y="14035.4"
textLength="497.75" font-size="682.415" lengthAdjust="spacingAndGlyphs"
text-anchor="middle" opacity="0">A</text>
<path d="M4208 13864
L4452 13864
" />
<path d="M4160 14011
L4330 13499
L4501 14011
" />
</g>
<g style="fill:#000000; fill-opacity:0.0; 
stroke:#000000; stroke-width:7.87402; stroke-opacity:1; 
stroke-linecap:round; stroke-linejoin:round;">
</g>
<g style="fill:#000000; fill-opacity:0.0; 
stroke:#000000; stroke-width:59.0551; stroke-opacity:1; 
stroke-linecap:round; stroke-linejoin:round;">
<text x="4330.71" y="33720.5"
textLength="570.866" font-size="682.415" lengthAdjust="spacingAndGlyphs"
text-anchor="middle" opacity="0">B</text>
<path d="M4367 33428
L4440 33452
L4464 33476
L4489 33525
L4489 33598
L4464 33647
L4440 33671
L4391 33696
L4196 33696
L4196 33184
L4367 33184
L4416 33208
L4440 33233
L4464 33281
L4464 33330
L4440 33379
L4416 33403
L4367 33428
L4196 33428
" />
</g>
<g style="fill:#000000; fill-opacity:0.0; 
stroke:#000000; stroke-width:7.87402; stroke-opacity:1; 
stroke-linecap:round; stroke-linejoin:round;">
</g>
<g style="fill:#000000; fill-opacity:0.0; 
stroke:#000000; stroke-width:59.0551; stroke-opacity:1; 
stroke-linecap:round; stroke-linejoin:round;">
<text x="4330.71" y="53405.5"
textLength="570.866" font-size="682.415" lengthAdjust="spacingAndGlyphs"
text-anchor="middle" opacity="0">C</text>
<path d="M4489 53332
L4464 53356
L4391 53381
L4342 53381
L4269 53356
L4221 53308
L4196 53259
L4172 53161
L4172 53088
L4196 52991
L4221 52942
L4269 52893
L4342 52869
L4391 52869
L4464 52893
L4489 52918
" />
</g>
<g style="fill:#000000; fill-opacity:0.0; 
stroke:#000000; stroke-width:7.87402; stroke-opacity:1; 
stroke-linecap:round; stroke-linejoin:round;">
</g>
<g style="fill:#000000; fill-opacity:0.0; 
stroke:#000000; stroke-width:59.0551; stroke-opacity:1; 
stroke-linecap:round; stroke-linejoin:round;">
<text x="4330.71" y="73090.6"
textLength="570.866" font-size="682.415" lengthAdjust="spacingAndGlyphs"
text-anchor="middle" opacity="0">D</text>
<path d="M4196 73066
L4196 72554
L4318 72554
L4391 72578
L4440 72627
L4464 72676
L4489 72773
L4489 72846
L4464 72944
L4440 72993
L4391 73041
L4318 73066
L4196 73066
" />
</g>
<g style="fill:#000000; fill-opacity:0.0; 
stroke:#000000; stroke-width:7.87402; stroke-opacity:1; 
stroke-linecap:round; stroke-linejoin:round;">
</g>
<g style="fill:#000000; fill-opacity:0.0; 
stroke:#000000; stroke-width:59.0551; stroke-opacity:1; 
stroke-linecap:round; stroke-linejoin:round;">
<path d="M112992 23622
L112205 23622
" />
</g>
<g style="fill:#000000; fill-opacity:0.0; 
stroke:#000000; stroke-width:7.87402; stroke-opacity:1; 
stroke-linecap:round; stroke-linejoin:round;">
</g>
<g style="fill:#000000; fill-opacity:0.0; 
stroke:#000000; stroke-width:59.0551; stroke-opacity:1; 
stroke-linecap:round; stroke-linejoin:round;">
<path d="M112992 43307
L112205 43307
" />
</g>
<g style="fill:#000000; fill-opacity:0.0; 
stroke:#000000; stroke-width:7.87402; stroke-opacity:1; 
stroke-linecap:round; stroke-linejoin:round;">
</g>
<g style="fill:#000000; fill-opacity:0.0; 
stroke:#000000; stroke-width:59.0551; stroke-opacity:1; 
stroke-linecap:round; stroke-linejoin:round;">
<path d="M112992 62992
L112205 62992
" />
</g>
<g style="fill:#000000; fill-opacity:0.0; 
stroke:#000000; stroke-width:7.87402; stroke-opacity:1; 
stroke-linecap:round; stroke-linejoin:round;">
</g>
<g style="fill:#000000; fill-opacity:0.0; 
stroke:#000000; stroke-width:59.0551; stroke-opacity:1; 
stroke-linecap:round; stroke-linejoin:round;">
<text x="112599" y="14035.4"
textLength="497.75" font-size="682.415" lengthAdjust="spacingAndGlyphs"
text-anchor="middle" opacity="0">A</text>
<path d="M112477 13864
L112721 13864
" />
<path d="M112428 14011
L112599 13499
L112769 14011
" />
</g>
<g style="fill:#000000; fill-opacity:0.0; 
stroke:#000000; stroke-width:7.87402; stroke-opacity:1; 
stroke-linecap:round; stroke-linejoin:round;">
</g>
<g style="fill:#000000; fill-opacity:0.0; 
stroke:#000000; stroke-width:59.0551; stroke-opacity:1; 
stroke-linecap:round; stroke-linejoin:round;">
<text x="112599" y="33720.5"
textLength="570.866" font-size="682.415" lengthAdjust="spacingAndGlyphs"
text-anchor="middle" opacity="0">B</text>
<path d="M112635 33428
L112708 33452
L112733 33476
L112757 33525
L112757 33598
L112733 33647
L112708 33671
L112660 33696
L112465 33696
L112465 33184
L112635 33184
L112684 33208
L112708 33233
L112733 33281
L112733 33330
L112708 33379
L112684 33403
L112635 33428
L112465 33428
" />
</g>
<g style="fill:#000000; fill-opacity:0.0; 
stroke:#000000; stroke-width:7.87402; stroke-opacity:1; 
stroke-linecap:round; stroke-linejoin:round;">
</g>
<g style="fill:#000000; fill-opacity:0.0; 
stroke:#000000; stroke-width:59.0551; stroke-opacity:1; 
stroke-linecap:round; stroke-linejoin:round;">
<text x="112599" y="53405.5"
textLength="570.866" font-size="682.415" lengthAdjust="spacingAndGlyphs"
text-anchor="middle" opacity="0">C</text>
<path d="M112757 53332
L112733 53356
L112660 53381
L112611 53381
L112538 53356
L112489 53308
L112465 53259
L112440 53161
L112440 53088
L112465 52991
L112489 52942
L112538 52893
L112611 52869
L112660 52869
L112733 52893
L112757 52918
" />
</g>
<g style="fill:#000000; fill-opacity:0.0; 
stroke:#000000; stroke-width:7.87402; stroke-opacity:1; 
stroke-linecap:round; stroke-linejoin:round;">
</g>
<g style="fill:#000000; fill-opacity:0.0; 
stroke:#000000; stroke-width:59.0551; stroke-opacity:1; 
stroke-linecap:round; stroke-linejoin:round;">
<text x="112599" y="73090.6"
textLength="570.866" font-size="682.415" lengthAdjust="spacingAndGlyphs"
text-anchor="middle" opacity="0">D</text>
<path d="M112465 73066
L112465 72554
L112587 72554
L112660 72578
L112708 72627
L112733 72676
L112757 72773
L112757 72846
L112733 72944
L112708 72993
L112660 73041
L112587 73066
L112465 73066
" />
</g>
<g style="fill:#000000; fill-opacity:0.0; 
stroke:#000000; stroke-width:7.87402; stroke-opacity:1; 
stroke-linecap:round; stroke-linejoin:round;">
</g>
<g style="fill:#000000; fill-opacity:0.0; 
stroke:#000000; stroke-width:59.0551; stroke-opacity:1; 
stroke-linecap:round; stroke-linejoin:round;">
<text x="78741" y="76321.7"
textLength="8720.47" font-size="787.402" lengthAdjust="spacingAndGlyphs"
text-anchor="start" opacity="0">Date: 2020-06-30</text>
<path d="M78911 76293
L78911 75703
L79051 75703
L79136 75731
L79192 75787
L79220 75843
L79248 75956
L79248 76040
L79220 76153
L79192 76209
L79136 76265
L79051 76293
L78911 76293
" />
<path d="M79754 76293
L79754 75984
L79726 75928
L79670 75899
L79557 75899
L79501 75928
" />
<path d="M79754 76265
L79698 76293
L79557 76293
L79501 76265
L79473 76209
L79473 76153
L79501 76096
L79557 76068
L79698 76068
L79754 76040
" />
<path d="M79951 75899
L80176 75899
" />
<path d="M80036 75703
L80036 76209
L80064 76265
L80120 76293
L80176 76293
" />
<path d="M80598 76265
L80542 76293
L80429 76293
L80373 76265
L80345 76209
L80345 75984
L80373 75928
L80429 75899
L80542 75899
L80598 75928
L80626 75984
L80626 76040
L80345 76096
" />
<path d="M80879 76237
L80907 76265
L80879 76293
L80851 76265
L80879 76237
L80879 76293
" />
<path d="M80879 75928
L80907 75956
L80879 75984
L80851 75956
L80879 75928
L80879 75984
" />
<path d="M81582 75759
L81610 75731
L81667 75703
L81807 75703
L81863 75731
L81892 75759
L81920 75815
L81920 75871
L81892 75956
L81554 76293
L81920 76293
" />
<path d="M82285 75703
L82341 75703
L82398 75731
L82426 75759
L82454 75815
L82482 75928
L82482 76068
L82454 76181
L82426 76237
L82398 76265
L82341 76293
L82285 76293
L82229 76265
L82201 76237
L82173 76181
L82145 76068
L82145 75928
L82173 75815
L82201 75759
L82229 75731
L82285 75703
" />
<path d="M82707 75759
L82735 75731
L82791 75703
L82932 75703
L82988 75731
L83016 75759
L83045 75815
L83045 75871
L83016 75956
L82679 76293
L83045 76293
" />
<path d="M83410 75703
L83466 75703
L83523 75731
L83551 75759
L83579 75815
L83607 75928
L83607 76068
L83579 76181
L83551 76237
L83523 76265
L83466 76293
L83410 76293
L83354 76265
L83326 76237
L83298 76181
L83269 76068
L83269 75928
L83298 75815
L83326 75759
L83354 75731
L83410 75703
" />
<path d="M83860 76068
L84310 76068
" />
<path d="M84704 75703
L84760 75703
L84816 75731
L84844 75759
L84872 75815
L84901 75928
L84901 76068
L84872 76181
L84844 76237
L84816 76265
L84760 76293
L84704 76293
L84647 76265
L84619 76237
L84591 76181
L84563 76068
L84563 75928
L84591 75815
L84619 75759
L84647 75731
L84704 75703
" />
<path d="M85407 75703
L85294 75703
L85238 75731
L85210 75759
L85154 75843
L85126 75956
L85126 76181
L85154 76237
L85182 76265
L85238 76293
L85350 76293
L85407 76265
L85435 76237
L85463 76181
L85463 76040
L85435 75984
L85407 75956
L85350 75928
L85238 75928
L85182 75956
L85154 75984
L85126 76040
" />
<path d="M85716 76068
L86166 76068
" />
<path d="M86391 75703
L86757 75703
L86560 75928
L86644 75928
L86700 75956
L86728 75984
L86757 76040
L86757 76181
L86728 76237
L86700 76265
L86644 76293
L86475 76293
L86419 76265
L86391 76237
" />
<path d="M87122 75703
L87178 75703
L87235 75731
L87263 75759
L87291 75815
L87319 75928
L87319 76068
L87291 76181
L87263 76237
L87235 76265
L87178 76293
L87122 76293
L87066 76265
L87038 76237
L87010 76181
L86982 76068
L86982 75928
L87010 75815
L87038 75759
L87066 75731
L87122 75703
" />
</g>
<g style="fill:#000000; fill-opacity:0.0; 
stroke:#000000; stroke-width:7.87402; stroke-opacity:1; 
stroke-linecap:round; stroke-linejoin:round;">
</g>
<g style="fill:#000000; fill-opacity:0.0; 
stroke:#000000; stroke-width:59.0551; stroke-opacity:1; 
stroke-linecap:round; stroke-linejoin:round;">
<path d="M69685 76577
L112205 76577
" />
</g>
<g style="fill:#000000; fill-opacity:0.0; 
stroke:#000000; stroke-width:7.87402; stroke-opacity:1; 
stroke-linecap:round; stroke-linejoin:round;">
</g>
<g style="fill:#000000; fill-opacity:0.0; 
stroke:#000000; stroke-width:59.0551; stroke-opacity:1; 
stroke-linecap:round; stroke-linejoin:round;">
<text x="70079.6" y="77424.1"
textLength="13529.2" font-size="787.402" lengthAdjust="spacingAndGlyphs"
text-anchor="start" opacity="0">KiCad E.D.A.  kicad (5.1.6)-1</text>
<path d="M70249 77395
L70249 76805
" />
<path d="M70587 77395
L70334 77058
" />
<path d="M70587 76805
L70249 77142
" />
<path d="M70840 77395
L70840 77002
" />
<path d="M70840 76805
L70812 76833
L70840 76861
L70868 76833
L70840 76805
L70840 76861
" />
<path d="M71458 77339
L71430 77367
L71346 77395
L71290 77395
L71205 77367
L71149 77311
L71121 77255
L71093 77142
L71093 77058
L71121 76946
L71149 76889
L71205 76833
L71290 76805
L71346 76805
L71430 76833
L71458 76861
" />
<path d="M71965 77395
L71965 77086
L71937 77030
L71880 77002
L71768 77002
L71712 77030
" />
<path d="M71965 77367
L71908 77395
L71768 77395
L71712 77367
L71683 77311
L71683 77255
L71712 77199
L71768 77171
L71908 77171
L71965 77142
" />
<path d="M72499 77395
L72499 76805
" />
<path d="M72499 77367
L72443 77395
L72330 77395
L72274 77367
L72246 77339
L72218 77283
L72218 77114
L72246 77058
L72274 77030
L72330 77002
L72443 77002
L72499 77030
" />
<path d="M73230 77086
L73427 77086
" />
<path d="M73511 77395
L73230 77395
L73230 76805
L73511 76805
" />
<path d="M73764 77339
L73793 77367
L73764 77395
L73736 77367
L73764 77339
L73764 77395
" />
<path d="M74046 77395
L74046 76805
L74186 76805
L74271 76833
L74327 76889
L74355 76946
L74383 77058
L74383 77142
L74355 77255
L74327 77311
L74271 77367
L74186 77395
L74046 77395
" />
<path d="M74636 77339
L74664 77367
L74636 77395
L74608 77367
L74636 77339
L74636 77395
" />
<path d="M74889 77227
L75171 77227
" />
<path d="M74833 77395
L75030 76805
L75227 77395
" />
<path d="M75424 77339
L75452 77367
L75424 77395
L75395 77367
L75424 77339
L75424 77395
" />
<path d="M76605 77395
L76605 76805
" />
<path d="M76661 77171
L76830 77395
" />
<path d="M76830 77002
L76605 77227
" />
<path d="M77083 77395
L77083 77002
" />
<path d="M77083 76805
L77055 76833
L77083 76861
L77111 76833
L77083 76805
L77083 76861
" />
<path d="M77617 77367
L77561 77395
L77448 77395
L77392 77367
L77364 77339
L77336 77283
L77336 77114
L77364 77058
L77392 77030
L77448 77002
L77561 77002
L77617 77030
" />
<path d="M78123 77395
L78123 77086
L78095 77030
L78039 77002
L77926 77002
L77870 77030
" />
<path d="M78123 77367
L78067 77395
L77926 77395
L77870 77367
L77842 77311
L77842 77255
L77870 77199
L77926 77171
L78067 77171
L78123 77142
" />
<path d="M78658 77395
L78658 76805
" />
<path d="M78658 77367
L78601 77395
L78489 77395
L78433 77367
L78404 77339
L78376 77283
L78376 77114
L78404 77058
L78433 77030
L78489 77002
L78601 77002
L78658 77030
" />
<path d="M79557 77620
L79529 77592
L79473 77508
L79445 77452
L79417 77367
L79389 77227
L79389 77114
L79417 76974
L79445 76889
L79473 76833
L79529 76749
L79557 76721
" />
<path d="M80064 76805
L79782 76805
L79754 77086
L79782 77058
L79839 77030
L79979 77030
L80036 77058
L80064 77086
L80092 77142
L80092 77283
L80064 77339
L80036 77367
L79979 77395
L79839 77395
L79782 77367
L79754 77339
" />
<path d="M80345 77339
L80373 77367
L80345 77395
L80317 77367
L80345 77339
L80345 77395
" />
<path d="M80935 77395
L80598 77395
" />
<path d="M80767 77395
L80767 76805
L80710 76889
L80654 76946
L80598 76974
" />
<path d="M81188 77339
L81217 77367
L81188 77395
L81160 77367
L81188 77339
L81188 77395
" />
<path d="M81723 76805
L81610 76805
L81554 76833
L81526 76861
L81470 76946
L81442 77058
L81442 77283
L81470 77339
L81498 77367
L81554 77395
L81667 77395
L81723 77367
L81751 77339
L81779 77283
L81779 77142
L81751 77086
L81723 77058
L81667 77030
L81554 77030
L81498 77058
L81470 77086
L81442 77142
" />
<path d="M81976 77620
L82004 77592
L82060 77508
L82088 77452
L82117 77367
L82145 77227
L82145 77114
L82117 76974
L82088 76889
L82060 76833
L82004 76749
L81976 76721
" />
<path d="M82426 77171
L82876 77171
" />
<path d="M83466 77395
L83129 77395
" />
<path d="M83298 77395
L83298 76805
L83241 76889
L83185 76946
L83129 76974
" />
</g>
<g style="fill:#000000; fill-opacity:0.0; 
stroke:#000000; stroke-width:7.87402; stroke-opacity:1; 
stroke-linecap:round; stroke-linejoin:round;">
</g>
<g style="fill:#000000; fill-opacity:0.0; 
stroke:#000000; stroke-width:59.0551; stroke-opacity:1; 
stroke-linecap:round; stroke-linejoin:round;">
<path d="M69685 75396
L112205 75396
" />
</g>
<g style="fill:#000000; fill-opacity:0.0; 
stroke:#000000; stroke-width:7.87402; stroke-opacity:1; 
stroke-linecap:round; stroke-linejoin:round;">
</g>
<g style="fill:#000000; fill-opacity:0.0; 
stroke:#000000; stroke-width:118.11; stroke-opacity:1; 
stroke-linecap:round; stroke-linejoin:round;">
<text x="103544" y="76321.7"
textLength="11813.8" font-size="787.402" lengthAdjust="spacingAndGlyphs"
text-anchor="start" opacity="0">Rev: USBMICRO_ISP_Mark1</text>
<path d="M104099 76293
L103902 76012
" />
<path d="M103761 76293
L103761 75703
L103986 75703
L104042 75731
L104070 75759
L104099 75815
L104099 75899
L104070 75956
L104042 75984
L103986 76012
L103761 76012
" />
<path d="M104577 76265
L104520 76293
L104408 76293
L104352 76265
L104323 76209
L104323 75984
L104352 75928
L104408 75899
L104520 75899
L104577 75928
L104605 75984
L104605 76040
L104323 76096
" />
<path d="M104802 75899
L104942 76293
L105083 75899
" />
<path d="M105308 76237
L105336 76265
L105308 76293
L105280 76265
L105308 76237
L105308 76293
" />
<path d="M105308 75928
L105336 75956
L105308 75984
L105280 75956
L105308 75928
L105308 75984
" />
<path d="M106039 75703
L106039 76181
L106067 76237
L106095 76265
L106151 76293
L106264 76293
L106320 76265
L106348 76237
L106376 76181
L106376 75703
" />
<path d="M106629 76265
L106714 76293
L106854 76293
L106911 76265
L106939 76237
L106967 76181
L106967 76124
L106939 76068
L106911 76040
L106854 76012
L106742 75984
L106686 75956
L106658 75928
L106629 75871
L106629 75815
L106658 75759
L106686 75731
L106742 75703
L106883 75703
L106967 75731
" />
<path d="M107417 75984
L107501 76012
L107529 76040
L107557 76096
L107557 76181
L107529 76237
L107501 76265
L107445 76293
L107220 76293
L107220 75703
L107417 75703
L107473 75731
L107501 75759
L107529 75815
L107529 75871
L107501 75928
L107473 75956
L107417 75984
L107220 75984
" />
<path d="M107811 76293
L107811 75703
L108007 76124
L108204 75703
L108204 76293
" />
<path d="M108485 76293
L108485 75703
" />
<path d="M109104 76237
L109076 76265
L108992 76293
L108935 76293
L108851 76265
L108795 76209
L108767 76153
L108739 76040
L108739 75956
L108767 75843
L108795 75787
L108851 75731
L108935 75703
L108992 75703
L109076 75731
L109104 75759
" />
<path d="M109695 76293
L109498 76012
" />
<path d="M109357 76293
L109357 75703
L109582 75703
L109638 75731
L109667 75759
L109695 75815
L109695 75899
L109667 75956
L109638 75984
L109582 76012
L109357 76012
" />
<path d="M110060 75703
L110173 75703
L110229 75731
L110285 75787
L110313 75899
L110313 76096
L110285 76209
L110229 76265
L110173 76293
L110060 76293
L110004 76265
L109948 76209
L109920 76096
L109920 75899
L109948 75787
L110004 75731
L110060 75703
" />
<path d="M110426 76349
L110876 76349
" />
<path d="M111016 76293
L111016 75703
" />
<path d="M111269 76265
L111354 76293
L111494 76293
L111551 76265
L111579 76237
L111607 76181
L111607 76124
L111579 76068
L111551 76040
L111494 76012
L111382 75984
L111326 75956
L111298 75928
L111269 75871
L111269 75815
L111298 75759
L111326 75731
L111382 75703
L111523 75703
L111607 75731
" />
<path d="M111860 76293
L111860 75703
L112085 75703
L112141 75731
L112169 75759
L112197 75815
L112197 75899
L112169 75956
L112141 75984
L112085 76012
L111860 76012
" />
<path d="M112310 76349
L112760 76349
" />
<path d="M112901 76293
L112901 75703
L113097 76124
L113294 75703
L113294 76293
" />
<path d="M113829 76293
L113829 75984
L113800 75928
L113744 75899
L113632 75899
L113575 75928
" />
<path d="M113829 76265
L113772 76293
L113632 76293
L113575 76265
L113547 76209
L113547 76153
L113575 76096
L113632 76068
L113772 76068
L113829 76040
" />
<path d="M114110 76293
L114110 75899
" />
<path d="M114110 76012
L114138 75956
L114166 75928
L114222 75899
L114278 75899
" />
<path d="M114475 76293
L114475 75703
" />
<path d="M114532 76068
L114700 76293
" />
<path d="M114700 75899
L114475 76124
" />
<path d="M115263 76293
L114925 76293
" />
<path d="M115094 76293
L115094 75703
L115038 75787
L114982 75843
L114925 75871
" />
</g>
<g style="fill:#000000; fill-opacity:0.0; 
stroke:#000000; stroke-width:7.87402; stroke-opacity:1; 
stroke-linecap:round; stroke-linejoin:round;">
</g>
<g style="fill:#000000; fill-opacity:0.0; 
stroke:#000000; stroke-width:59.0551; stroke-opacity:1; 
stroke-linecap:round; stroke-linejoin:round;">
<text x="70079.6" y="76321.7"
textLength="3781.21" font-size="787.402" lengthAdjust="spacingAndGlyphs"
text-anchor="start" opacity="0">Size: A4</text>
<path d="M70221 76265
L70305 76293
L70446 76293
L70502 76265
L70530 76237
L70559 76181
L70559 76124
L70530 76068
L70502 76040
L70446 76012
L70334 75984
L70277 75956
L70249 75928
L70221 75871
L70221 75815
L70249 75759
L70277 75731
L70334 75703
L70474 75703
L70559 75731
" />
<path d="M70812 76293
L70812 75899
" />
<path d="M70812 75703
L70784 75731
L70812 75759
L70840 75731
L70812 75703
L70812 75759
" />
<path d="M71037 75899
L71346 75899
L71037 76293
L71346 76293
" />
<path d="M71796 76265
L71740 76293
L71627 76293
L71571 76265
L71543 76209
L71543 75984
L71571 75928
L71627 75899
L71740 75899
L71796 75928
L71824 75984
L71824 76040
L71543 76096
" />
<path d="M72077 76237
L72105 76265
L72077 76293
L72049 76265
L72077 76237
L72077 76293
" />
<path d="M72077 75928
L72105 75956
L72077 75984
L72049 75956
L72077 75928
L72077 75984
" />
<path d="M72780 76124
L73061 76124
" />
<path d="M72724 76293
L72921 75703
L73118 76293
" />
<path d="M73568 75899
L73568 76293
" />
<path d="M73427 75674
L73286 76096
L73652 76096
" />
</g>
<g style="fill:#000000; fill-opacity:0.0; 
stroke:#000000; stroke-width:7.87402; stroke-opacity:1; 
stroke-linecap:round; stroke-linejoin:round;">
</g>
<g style="fill:#000000; fill-opacity:0.0; 
stroke:#000000; stroke-width:59.0551; stroke-opacity:1; 
stroke-linecap:round; stroke-linejoin:round;">
<text x="103544" y="77424.1"
textLength="3349.27" font-size="787.402" lengthAdjust="spacingAndGlyphs"
text-anchor="start" opacity="0">Id: 1/1</text>
<path d="M103714 77395
L103714 76805
" />
<path d="M104248 77395
L104248 76805
" />
<path d="M104248 77367
L104192 77395
L104079 77395
L104023 77367
L103995 77339
L103967 77283
L103967 77114
L103995 77058
L104023 77030
L104079 77002
L104192 77002
L104248 77030
" />
<path d="M104529 77339
L104557 77367
L104529 77395
L104501 77367
L104529 77339
L104529 77395
" />
<path d="M104529 77030
L104557 77058
L104529 77086
L104501 77058
L104529 77030
L104529 77086
" />
<path d="M105570 77395
L105232 77395
" />
<path d="M105401 77395
L105401 76805
L105345 76889
L105289 76946
L105232 76974
" />
<path d="M106245 76777
L105739 77536
" />
<path d="M106751 77395
L106413 77395
" />
<path d="M106582 77395
L106582 76805
L106526 76889
L106470 76946
L106413 76974
" />
</g>
<g style="fill:#000000; fill-opacity:0.0; 
stroke:#000000; stroke-width:7.87402; stroke-opacity:1; 
stroke-linecap:round; stroke-linejoin:round;">
</g>
<g style="fill:#000000; fill-opacity:0.0; 
stroke:#000000; stroke-width:59.0551; stroke-opacity:1; 
stroke-linecap:round; stroke-linejoin:round;">
<path d="M69685 73821
L112205 73821
" />
</g>
<g style="fill:#000000; fill-opacity:0.0; 
stroke:#000000; stroke-width:7.87402; stroke-opacity:1; 
stroke-linecap:round; stroke-linejoin:round;">
</g>
<g style="fill:#000000; fill-opacity:0.0; 
stroke:#000000; stroke-width:157.48; stroke-opacity:1; 
stroke-linecap:round; stroke-linejoin:round;">
<text x="70079.6" y="74924.1"
textLength="20011.6" font-size="1049.87" lengthAdjust="spacingAndGlyphs"
text-anchor="start" opacity="0">Title: MICROISP_Singleside_Mark1</text>
<path d="M70360 74099
L70810 74099
" />
<path d="M70486 74886
L70585 74099
" />
<path d="M70974 74886
L71039 74361
" />
<path d="M71072 74099
L71030 74136
L71063 74174
L71105 74136
L71072 74099
L71063 74174
" />
<path d="M71302 74361
L71602 74361
" />
<path d="M71447 74099
L71363 74774
L71391 74849
L71461 74886
L71536 74886
" />
<path d="M71911 74886
L71841 74849
L71813 74774
L71897 74099
" />
<path d="M72516 74849
L72436 74886
L72286 74886
L72216 74849
L72187 74774
L72225 74474
L72272 74399
L72352 74361
L72501 74361
L72572 74399
L72600 74474
L72591 74549
L72206 74624
" />
<path d="M72895 74811
L72928 74849
L72886 74886
L72853 74849
L72895 74811
L72886 74886
" />
<path d="M72947 74399
L72980 74436
L72937 74474
L72905 74436
L72947 74399
L72937 74474
" />
<path d="M73861 74886
L73959 74099
L74151 74661
L74484 74099
L74386 74886
" />
<path d="M74761 74886
L74859 74099
" />
<path d="M75595 74811
L75553 74849
L75435 74886
L75361 74886
L75253 74849
L75187 74774
L75159 74699
L75140 74549
L75154 74436
L75211 74286
L75257 74211
L75342 74136
L75459 74099
L75534 74099
L75642 74136
L75675 74174
" />
<path d="M76373 74886
L76157 74511
" />
<path d="M75923 74886
L76021 74099
L76321 74099
L76392 74136
L76424 74174
L76453 74249
L76438 74361
L76392 74436
L76349 74474
L76270 74511
L75970 74511
" />
<path d="M76959 74099
L77109 74099
L77179 74136
L77245 74211
L77263 74361
L77231 74624
L77174 74774
L77090 74849
L77010 74886
L76860 74886
L76790 74849
L76724 74774
L76706 74624
L76738 74361
L76795 74211
L76879 74136
L76959 74099
" />
<path d="M77535 74886
L77634 74099
" />
<path d="M77877 74849
L77985 74886
L78173 74886
L78252 74849
L78295 74811
L78341 74736
L78351 74661
L78323 74586
L78290 74549
L78220 74511
L78074 74474
L78004 74436
L77971 74399
L77943 74324
L77952 74249
L77999 74174
L78041 74136
L78121 74099
L78309 74099
L78416 74136
" />
<path d="M78660 74886
L78759 74099
L79058 74099
L79129 74136
L79162 74174
L79190 74249
L79176 74361
L79129 74436
L79087 74474
L79007 74511
L78707 74511
" />
<path d="M79251 74961
L79851 74961
" />
<path d="M80015 74849
L80122 74886
L80310 74886
L80390 74849
L80432 74811
L80479 74736
L80488 74661
L80460 74586
L80427 74549
L80357 74511
L80211 74474
L80141 74436
L80108 74399
L80080 74324
L80090 74249
L80136 74174
L80179 74136
L80258 74099
L80446 74099
L80554 74136
" />
<path d="M80797 74886
L80863 74361
" />
<path d="M80896 74099
L80854 74136
L80886 74174
L80929 74136
L80896 74099
L80886 74174
" />
<path d="M81238 74361
L81172 74886
" />
<path d="M81229 74436
L81271 74399
L81350 74361
L81463 74361
L81533 74399
L81561 74474
L81510 74886
" />
<path d="M82288 74361
L82208 74999
L82161 75074
L82119 75111
L82039 75149
L81927 75149
L81857 75111
" />
<path d="M82227 74849
L82147 74886
L81997 74886
L81927 74849
L81894 74811
L81866 74736
L81894 74511
L81941 74436
L81983 74399
L82063 74361
L82213 74361
L82283 74399
" />
<path d="M82710 74886
L82639 74849
L82611 74774
L82696 74099
" />
<path d="M83314 74849
L83235 74886
L83085 74886
L83014 74849
L82986 74774
L83024 74474
L83070 74399
L83150 74361
L83300 74361
L83370 74399
L83399 74474
L83389 74549
L83005 74624
" />
<path d="M83652 74849
L83722 74886
L83872 74886
L83952 74849
L83998 74774
L84003 74736
L83975 74661
L83905 74624
L83792 74624
L83722 74586
L83694 74511
L83699 74474
L83745 74399
L83825 74361
L83938 74361
L84008 74399
" />
<path d="M84322 74886
L84388 74361
" />
<path d="M84420 74099
L84378 74136
L84411 74174
L84453 74136
L84420 74099
L84411 74174
" />
<path d="M85034 74886
L85133 74099
" />
<path d="M85039 74849
L84959 74886
L84809 74886
L84739 74849
L84706 74811
L84678 74736
L84706 74511
L84753 74436
L84795 74399
L84875 74361
L85025 74361
L85095 74399
" />
<path d="M85714 74849
L85634 74886
L85484 74886
L85414 74849
L85386 74774
L85423 74474
L85470 74399
L85550 74361
L85700 74361
L85770 74399
L85798 74474
L85789 74549
L85405 74624
" />
<path d="M85887 74961
L86487 74961
" />
<path d="M86684 74886
L86783 74099
L86975 74661
L87307 74099
L87209 74886
" />
<path d="M87921 74886
L87973 74474
L87945 74399
L87875 74361
L87725 74361
L87645 74399
" />
<path d="M87926 74849
L87846 74886
L87659 74886
L87589 74849
L87561 74774
L87570 74699
L87617 74624
L87696 74586
L87884 74586
L87964 74549
" />
<path d="M88296 74886
L88362 74361
" />
<path d="M88343 74511
L88390 74436
L88432 74399
L88512 74361
L88587 74361
" />
<path d="M88784 74886
L88882 74099
" />
<path d="M88896 74586
L89084 74886
" />
<path d="M89149 74361
L88812 74661
" />
<path d="M89834 74886
L89384 74886
" />
<path d="M89609 74886
L89707 74099
L89618 74211
L89534 74286
L89454 74324
" />
</g>
<g style="fill:#000000; fill-opacity:0.0; 
stroke:#000000; stroke-width:7.87402; stroke-opacity:1; 
stroke-linecap:round; stroke-linejoin:round;">
</g>
<g style="fill:#000000; fill-opacity:0.0; 
stroke:#000000; stroke-width:59.0551; stroke-opacity:1; 
stroke-linecap:round; stroke-linejoin:round;">
<text x="70079.6" y="73408.3"
textLength="17668.2" font-size="787.402" lengthAdjust="spacingAndGlyphs"
text-anchor="start" opacity="0">File: USBTINYISP_MICRO_USB.kicad_pcb</text>
<path d="M70446 73070
L70249 73070
" />
<path d="M70249 73380
L70249 72789
L70530 72789
" />
<path d="M70755 73380
L70755 72986
" />
<path d="M70755 72789
L70727 72817
L70755 72845
L70784 72817
L70755 72789
L70755 72845
" />
<path d="M71121 73380
L71065 73352
L71037 73295
L71037 72789
" />
<path d="M71571 73352
L71515 73380
L71402 73380
L71346 73352
L71318 73295
L71318 73070
L71346 73014
L71402 72986
L71515 72986
L71571 73014
L71599 73070
L71599 73127
L71318 73183
" />
<path d="M71852 73323
L71880 73352
L71852 73380
L71824 73352
L71852 73323
L71852 73380
" />
<path d="M71852 73014
L71880 73042
L71852 73070
L71824 73042
L71852 73014
L71852 73070
" />
<path d="M72583 72789
L72583 73267
L72611 73323
L72640 73352
L72696 73380
L72808 73380
L72865 73352
L72893 73323
L72921 73267
L72921 72789
" />
<path d="M73174 73352
L73258 73380
L73399 73380
L73455 73352
L73483 73323
L73511 73267
L73511 73211
L73483 73155
L73455 73127
L73399 73099
L73286 73070
L73230 73042
L73202 73014
L73174 72958
L73174 72902
L73202 72845
L73230 72817
L73286 72789
L73427 72789
L73511 72817
" />
<path d="M73961 73070
L74046 73099
L74074 73127
L74102 73183
L74102 73267
L74074 73323
L74046 73352
L73989 73380
L73764 73380
L73764 72789
L73961 72789
L74018 72817
L74046 72845
L74074 72902
L74074 72958
L74046 73014
L74018 73042
L73961 73070
L73764 73070
" />
<path d="M74271 72789
L74608 72789
" />
<path d="M74439 73380
L74439 72789
" />
<path d="M74805 73380
L74805 72789
" />
<path d="M75086 73380
L75086 72789
L75424 73380
L75424 72789
" />
<path d="M75817 73099
L75817 73380
" />
<path d="M75620 72789
L75817 73099
L76014 72789
" />
<path d="M76211 73380
L76211 72789
" />
<path d="M76464 73352
L76548 73380
L76689 73380
L76745 73352
L76773 73323
L76802 73267
L76802 73211
L76773 73155
L76745 73127
L76689 73099
L76577 73070
L76520 73042
L76492 73014
L76464 72958
L76464 72902
L76492 72845
L76520 72817
L76577 72789
L76717 72789
L76802 72817
" />
<path d="M77055 73380
L77055 72789
L77280 72789
L77336 72817
L77364 72845
L77392 72902
L77392 72986
L77364 73042
L77336 73070
L77280 73099
L77055 73099
" />
<path d="M77505 73436
L77955 73436
" />
<path d="M78095 73380
L78095 72789
L78292 73211
L78489 72789
L78489 73380
" />
<path d="M78770 73380
L78770 72789
" />
<path d="M79389 73323
L79361 73352
L79276 73380
L79220 73380
L79136 73352
L79079 73295
L79051 73239
L79023 73127
L79023 73042
L79051 72930
L79079 72874
L79136 72817
L79220 72789
L79276 72789
L79361 72817
L79389 72845
" />
<path d="M79979 73380
L79782 73099
" />
<path d="M79642 73380
L79642 72789
L79867 72789
L79923 72817
L79951 72845
L79979 72902
L79979 72986
L79951 73042
L79923 73070
L79867 73099
L79642 73099
" />
<path d="M80345 72789
L80457 72789
L80514 72817
L80570 72874
L80598 72986
L80598 73183
L80570 73295
L80514 73352
L80457 73380
L80345 73380
L80289 73352
L80232 73295
L80204 73183
L80204 72986
L80232 72874
L80289 72817
L80345 72789
" />
<path d="M80710 73436
L81160 73436
" />
<path d="M81301 72789
L81301 73267
L81329 73323
L81357 73352
L81413 73380
L81526 73380
L81582 73352
L81610 73323
L81638 73267
L81638 72789
" />
<path d="M81892 73352
L81976 73380
L82117 73380
L82173 73352
L82201 73323
L82229 73267
L82229 73211
L82201 73155
L82173 73127
L82117 73099
L82004 73070
L81948 73042
L81920 73014
L81892 72958
L81892 72902
L81920 72845
L81948 72817
L82004 72789
L82145 72789
L82229 72817
" />
<path d="M82679 73070
L82763 73099
L82791 73127
L82820 73183
L82820 73267
L82791 73323
L82763 73352
L82707 73380
L82482 73380
L82482 72789
L82679 72789
L82735 72817
L82763 72845
L82791 72902
L82791 72958
L82763 73014
L82735 73042
L82679 73070
L82482 73070
" />
<path d="M83073 73323
L83101 73352
L83073 73380
L83045 73352
L83073 73323
L83073 73380
" />
<path d="M83354 73380
L83354 72789
" />
<path d="M83410 73155
L83579 73380
" />
<path d="M83579 72986
L83354 73211
" />
<path d="M83832 73380
L83832 72986
" />
<path d="M83832 72789
L83804 72817
L83832 72845
L83860 72817
L83832 72789
L83832 72845
" />
<path d="M84366 73352
L84310 73380
L84197 73380
L84141 73352
L84113 73323
L84085 73267
L84085 73099
L84113 73042
L84141 73014
L84197 72986
L84310 72986
L84366 73014
" />
<path d="M84872 73380
L84872 73070
L84844 73014
L84788 72986
L84676 72986
L84619 73014
" />
<path d="M84872 73352
L84816 73380
L84676 73380
L84619 73352
L84591 73295
L84591 73239
L84619 73183
L84676 73155
L84816 73155
L84872 73127
" />
<path d="M85407 73380
L85407 72789
" />
<path d="M85407 73352
L85350 73380
L85238 73380
L85182 73352
L85154 73323
L85126 73267
L85126 73099
L85154 73042
L85182 73014
L85238 72986
L85350 72986
L85407 73014
" />
<path d="M85547 73436
L85997 73436
" />
<path d="M86138 72986
L86138 73577
" />
<path d="M86138 73014
L86194 72986
L86307 72986
L86363 73014
L86391 73042
L86419 73099
L86419 73267
L86391 73323
L86363 73352
L86307 73380
L86194 73380
L86138 73352
" />
<path d="M86925 73352
L86869 73380
L86757 73380
L86700 73352
L86672 73323
L86644 73267
L86644 73099
L86672 73042
L86700 73014
L86757 72986
L86869 72986
L86925 73014
" />
<path d="M87178 73380
L87178 72789
" />
<path d="M87178 73014
L87235 72986
L87347 72986
L87403 73014
L87431 73042
L87460 73099
L87460 73267
L87431 73323
L87403 73352
L87347 73380
L87235 73380
L87178 73352
" />
</g>
<g style="fill:#000000; fill-opacity:0.0; 
stroke:#000000; stroke-width:7.87402; stroke-opacity:1; 
stroke-linecap:round; stroke-linejoin:round;">
</g>
<g style="fill:#000000; fill-opacity:0.0; 
stroke:#000000; stroke-width:59.0551; stroke-opacity:1; 
stroke-linecap:round; stroke-linejoin:round;">
<path d="M69685 71459
L112205 71459
" />
</g>
<g style="fill:#000000; fill-opacity:0.0; 
stroke:#000000; stroke-width:7.87402; stroke-opacity:1; 
stroke-linecap:round; stroke-linejoin:round;">
</g>
<g style="fill:#000000; fill-opacity:0.0; 
stroke:#000000; stroke-width:59.0551; stroke-opacity:1; 
stroke-linecap:round; stroke-linejoin:round;">
<text x="70079.6" y="72345.4"
textLength="3236.78" font-size="787.402" lengthAdjust="spacingAndGlyphs"
text-anchor="start" opacity="0">Sheet: </text>
<path d="M70221 72289
L70305 72317
L70446 72317
L70502 72289
L70530 72260
L70559 72204
L70559 72148
L70530 72092
L70502 72064
L70446 72036
L70334 72007
L70277 71979
L70249 71951
L70221 71895
L70221 71839
L70249 71782
L70277 71754
L70334 71726
L70474 71726
L70559 71754
" />
<path d="M70812 72317
L70812 71726
" />
<path d="M71065 72317
L71065 72007
L71037 71951
L70980 71923
L70896 71923
L70840 71951
L70812 71979
" />
<path d="M71571 72289
L71515 72317
L71402 72317
L71346 72289
L71318 72232
L71318 72007
L71346 71951
L71402 71923
L71515 71923
L71571 71951
L71599 72007
L71599 72064
L71318 72120
" />
<path d="M72077 72289
L72021 72317
L71908 72317
L71852 72289
L71824 72232
L71824 72007
L71852 71951
L71908 71923
L72021 71923
L72077 71951
L72105 72007
L72105 72064
L71824 72120
" />
<path d="M72274 71923
L72499 71923
" />
<path d="M72358 71726
L72358 72232
L72386 72289
L72443 72317
L72499 72317
" />
<path d="M72696 72260
L72724 72289
L72696 72317
L72668 72289
L72696 72260
L72696 72317
" />
<path d="M72696 71951
L72724 71979
L72696 72007
L72668 71979
L72696 71951
L72696 72007
" />
</g>
<g style="fill:#000000; fill-opacity:0.0; 
stroke:#000000; stroke-width:7.87402; stroke-opacity:1; 
stroke-linecap:round; stroke-linejoin:round;">
</g>
<g style="fill:#000000; fill-opacity:0.0; 
stroke:#000000; stroke-width:118.11; stroke-opacity:1; 
stroke-linecap:round; stroke-linejoin:round;">
<text x="70079.6" y="71164.3"
textLength="13219.9" font-size="787.402" lengthAdjust="spacingAndGlyphs"
text-anchor="start" opacity="0">vedaprakash.ms@outlook.com</text>
<path d="M70240 70742
L70381 71136
L70521 70742
" />
<path d="M70971 71108
L70915 71136
L70803 71136
L70746 71108
L70718 71051
L70718 70826
L70746 70770
L70803 70742
L70915 70742
L70971 70770
L71000 70826
L71000 70883
L70718 70939
" />
<path d="M71506 71136
L71506 70545
" />
<path d="M71506 71108
L71449 71136
L71337 71136
L71281 71108
L71253 71079
L71224 71023
L71224 70854
L71253 70798
L71281 70770
L71337 70742
L71449 70742
L71506 70770
" />
<path d="M72040 71136
L72040 70826
L72012 70770
L71956 70742
L71843 70742
L71787 70770
" />
<path d="M72040 71108
L71984 71136
L71843 71136
L71787 71108
L71759 71051
L71759 70995
L71787 70939
L71843 70911
L71984 70911
L72040 70883
" />
<path d="M72321 70742
L72321 71332
" />
<path d="M72321 70770
L72377 70742
L72490 70742
L72546 70770
L72574 70798
L72602 70854
L72602 71023
L72574 71079
L72546 71108
L72490 71136
L72377 71136
L72321 71108
" />
<path d="M72856 71136
L72856 70742
" />
<path d="M72856 70854
L72884 70798
L72912 70770
L72968 70742
L73024 70742
" />
<path d="M73474 71136
L73474 70826
L73446 70770
L73390 70742
L73277 70742
L73221 70770
" />
<path d="M73474 71108
L73418 71136
L73277 71136
L73221 71108
L73193 71051
L73193 70995
L73221 70939
L73277 70911
L73418 70911
L73474 70883
" />
<path d="M73755 71136
L73755 70545
" />
<path d="M73812 70911
L73980 71136
" />
<path d="M73980 70742
L73755 70967
" />
<path d="M74487 71136
L74487 70826
L74458 70770
L74402 70742
L74290 70742
L74233 70770
" />
<path d="M74487 71108
L74430 71136
L74290 71136
L74233 71108
L74205 71051
L74205 70995
L74233 70939
L74290 70911
L74430 70911
L74487 70883
" />
<path d="M74740 71108
L74796 71136
L74908 71136
L74965 71108
L74993 71051
L74993 71023
L74965 70967
L74908 70939
L74824 70939
L74768 70911
L74740 70854
L74740 70826
L74768 70770
L74824 70742
L74908 70742
L74965 70770
" />
<path d="M75246 71136
L75246 70545
" />
<path d="M75499 71136
L75499 70826
L75471 70770
L75415 70742
L75330 70742
L75274 70770
L75246 70798
" />
<path d="M75780 71079
L75808 71108
L75780 71136
L75752 71108
L75780 71079
L75780 71136
" />
<path d="M76061 71136
L76061 70742
" />
<path d="M76061 70798
L76090 70770
L76146 70742
L76230 70742
L76286 70770
L76314 70826
L76314 71136
" />
<path d="M76314 70826
L76343 70770
L76399 70742
L76483 70742
L76539 70770
L76568 70826
L76568 71136
" />
<path d="M76821 71108
L76877 71136
L76989 71136
L77046 71108
L77074 71051
L77074 71023
L77046 70967
L76989 70939
L76905 70939
L76849 70911
L76821 70854
L76821 70826
L76849 70770
L76905 70742
L76989 70742
L77046 70770
" />
<path d="M77692 70854
L77664 70826
L77608 70798
L77552 70798
L77496 70826
L77467 70854
L77439 70911
L77439 70967
L77467 71023
L77496 71051
L77552 71079
L77608 71079
L77664 71051
L77692 71023
" />
<path d="M77692 70798
L77692 71023
L77721 71051
L77749 71051
L77805 71023
L77833 70967
L77833 70826
L77777 70742
L77692 70686
L77580 70658
L77467 70686
L77383 70742
L77327 70826
L77299 70939
L77327 71051
L77383 71136
L77467 71192
L77580 71220
L77692 71192
L77777 71136
" />
<path d="M78171 71136
L78114 71108
L78086 71079
L78058 71023
L78058 70854
L78086 70798
L78114 70770
L78171 70742
L78255 70742
L78311 70770
L78339 70798
L78367 70854
L78367 71023
L78339 71079
L78311 71108
L78255 71136
L78171 71136
" />
<path d="M78874 70742
L78874 71136
" />
<path d="M78620 70742
L78620 71051
L78649 71108
L78705 71136
L78789 71136
L78845 71108
L78874 71079
" />
<path d="M79070 70742
L79295 70742
" />
<path d="M79155 70545
L79155 71051
L79183 71108
L79239 71136
L79295 71136
" />
<path d="M79577 71136
L79520 71108
L79492 71051
L79492 70545
" />
<path d="M79886 71136
L79830 71108
L79802 71079
L79773 71023
L79773 70854
L79802 70798
L79830 70770
L79886 70742
L79970 70742
L80027 70770
L80055 70798
L80083 70854
L80083 71023
L80055 71079
L80027 71108
L79970 71136
L79886 71136
" />
<path d="M80420 71136
L80364 71108
L80336 71079
L80308 71023
L80308 70854
L80336 70798
L80364 70770
L80420 70742
L80505 70742
L80561 70770
L80589 70798
L80617 70854
L80617 71023
L80589 71079
L80561 71108
L80505 71136
L80420 71136
" />
<path d="M80870 71136
L80870 70545
" />
<path d="M80926 70911
L81095 71136
" />
<path d="M81095 70742
L80870 70967
" />
<path d="M81348 71079
L81376 71108
L81348 71136
L81320 71108
L81348 71079
L81348 71136
" />
<path d="M81883 71108
L81826 71136
L81714 71136
L81658 71108
L81629 71079
L81601 71023
L81601 70854
L81629 70798
L81658 70770
L81714 70742
L81826 70742
L81883 70770
" />
<path d="M82220 71136
L82164 71108
L82136 71079
L82108 71023
L82108 70854
L82136 70798
L82164 70770
L82220 70742
L82304 70742
L82361 70770
L82389 70798
L82417 70854
L82417 71023
L82389 71079
L82361 71108
L82304 71136
L82220 71136
" />
<path d="M82670 71136
L82670 70742
" />
<path d="M82670 70798
L82698 70770
L82754 70742
L82839 70742
L82895 70770
L82923 70826
L82923 71136
" />
<path d="M82923 70826
L82951 70770
L83007 70742
L83092 70742
L83148 70770
L83176 70826
L83176 71136
" />
</g>
<g style="fill:#000000; fill-opacity:0.0; 
stroke:#000000; stroke-width:7.87402; stroke-opacity:1; 
stroke-linecap:round; stroke-linejoin:round;">
</g>
<g style="fill:#000000; fill-opacity:0.0; 
stroke:#000000; stroke-width:59.0551; stroke-opacity:1; 
stroke-linecap:round; stroke-linejoin:round;">
<text x="70079.6" y="69983.1"
textLength="15901.6" font-size="787.402" lengthAdjust="spacingAndGlyphs"
text-anchor="start" opacity="0">derived and modified from FAB isp</text>
<path d="M70502 69955
L70502 69364
" />
<path d="M70502 69926
L70446 69955
L70334 69955
L70277 69926
L70249 69898
L70221 69842
L70221 69673
L70249 69617
L70277 69589
L70334 69561
L70446 69561
L70502 69589
" />
<path d="M71009 69926
L70952 69955
L70840 69955
L70784 69926
L70755 69870
L70755 69645
L70784 69589
L70840 69561
L70952 69561
L71009 69589
L71037 69645
L71037 69701
L70755 69758
" />
<path d="M71290 69955
L71290 69561
" />
<path d="M71290 69673
L71318 69617
L71346 69589
L71402 69561
L71458 69561
" />
<path d="M71655 69955
L71655 69561
" />
<path d="M71655 69364
L71627 69392
L71655 69420
L71683 69392
L71655 69364
L71655 69420
" />
<path d="M71880 69561
L72021 69955
L72162 69561
" />
<path d="M72611 69926
L72555 69955
L72443 69955
L72386 69926
L72358 69870
L72358 69645
L72386 69589
L72443 69561
L72555 69561
L72611 69589
L72640 69645
L72640 69701
L72358 69758
" />
<path d="M73146 69955
L73146 69364
" />
<path d="M73146 69926
L73090 69955
L72977 69955
L72921 69926
L72893 69898
L72865 69842
L72865 69673
L72893 69617
L72921 69589
L72977 69561
L73090 69561
L73146 69589
" />
<path d="M74130 69955
L74130 69645
L74102 69589
L74046 69561
L73933 69561
L73877 69589
" />
<path d="M74130 69926
L74074 69955
L73933 69955
L73877 69926
L73849 69870
L73849 69814
L73877 69758
L73933 69730
L74074 69730
L74130 69701
" />
<path d="M74411 69561
L74411 69955
" />
<path d="M74411 69617
L74439 69589
L74496 69561
L74580 69561
L74636 69589
L74664 69645
L74664 69955
" />
<path d="M75199 69955
L75199 69364
" />
<path d="M75199 69926
L75142 69955
L75030 69955
L74974 69926
L74946 69898
L74917 69842
L74917 69673
L74946 69617
L74974 69589
L75030 69561
L75142 69561
L75199 69589
" />
<path d="M75930 69955
L75930 69561
" />
<path d="M75930 69617
L75958 69589
L76014 69561
L76099 69561
L76155 69589
L76183 69645
L76183 69955
" />
<path d="M76183 69645
L76211 69589
L76267 69561
L76352 69561
L76408 69589
L76436 69645
L76436 69955
" />
<path d="M76802 69955
L76745 69926
L76717 69898
L76689 69842
L76689 69673
L76717 69617
L76745 69589
L76802 69561
L76886 69561
L76942 69589
L76970 69617
L76998 69673
L76998 69842
L76970 69898
L76942 69926
L76886 69955
L76802 69955
" />
<path d="M77505 69955
L77505 69364
" />
<path d="M77505 69926
L77448 69955
L77336 69955
L77280 69926
L77251 69898
L77223 69842
L77223 69673
L77251 69617
L77280 69589
L77336 69561
L77448 69561
L77505 69589
" />
<path d="M77786 69955
L77786 69561
" />
<path d="M77786 69364
L77758 69392
L77786 69420
L77814 69392
L77786 69364
L77786 69420
" />
<path d="M77983 69561
L78208 69561
" />
<path d="M78067 69955
L78067 69448
L78095 69392
L78151 69364
L78208 69364
" />
<path d="M78404 69955
L78404 69561
" />
<path d="M78404 69364
L78376 69392
L78404 69420
L78433 69392
L78404 69364
L78404 69420
" />
<path d="M78911 69926
L78854 69955
L78742 69955
L78686 69926
L78658 69870
L78658 69645
L78686 69589
L78742 69561
L78854 69561
L78911 69589
L78939 69645
L78939 69701
L78658 69758
" />
<path d="M79445 69955
L79445 69364
" />
<path d="M79445 69926
L79389 69955
L79276 69955
L79220 69926
L79192 69898
L79164 69842
L79164 69673
L79192 69617
L79220 69589
L79276 69561
L79389 69561
L79445 69589
" />
<path d="M80092 69561
L80317 69561
" />
<path d="M80176 69955
L80176 69448
L80204 69392
L80260 69364
L80317 69364
" />
<path d="M80514 69955
L80514 69561
" />
<path d="M80514 69673
L80542 69617
L80570 69589
L80626 69561
L80682 69561
" />
<path d="M80964 69955
L80907 69926
L80879 69898
L80851 69842
L80851 69673
L80879 69617
L80907 69589
L80964 69561
L81048 69561
L81104 69589
L81132 69617
L81160 69673
L81160 69842
L81132 69898
L81104 69926
L81048 69955
L80964 69955
" />
<path d="M81413 69955
L81413 69561
" />
<path d="M81413 69617
L81442 69589
L81498 69561
L81582 69561
L81638 69589
L81667 69645
L81667 69955
" />
<path d="M81667 69645
L81695 69589
L81751 69561
L81835 69561
L81892 69589
L81920 69645
L81920 69955
" />
<path d="M82848 69645
L82651 69645
" />
<path d="M82651 69955
L82651 69364
L82932 69364
" />
<path d="M83129 69786
L83410 69786
" />
<path d="M83073 69955
L83269 69364
L83466 69955
" />
<path d="M83860 69645
L83944 69673
L83973 69701
L84001 69758
L84001 69842
L83973 69898
L83944 69926
L83888 69955
L83663 69955
L83663 69364
L83860 69364
L83916 69392
L83944 69420
L83973 69476
L83973 69533
L83944 69589
L83916 69617
L83860 69645
L83663 69645
" />
<path d="M84704 69955
L84704 69561
" />
<path d="M84704 69364
L84676 69392
L84704 69420
L84732 69392
L84704 69364
L84704 69420
" />
<path d="M84957 69926
L85013 69955
L85126 69955
L85182 69926
L85210 69870
L85210 69842
L85182 69786
L85126 69758
L85041 69758
L84985 69730
L84957 69673
L84957 69645
L84985 69589
L85041 69561
L85126 69561
L85182 69589
" />
<path d="M85463 69561
L85463 70151
" />
<path d="M85463 69589
L85519 69561
L85632 69561
L85688 69589
L85716 69617
L85744 69673
L85744 69842
L85716 69898
L85688 69926
L85632 69955
L85519 69955
L85463 69926
" />
</g>
<g style="fill:#000000; fill-opacity:0.0; 
stroke:#000000; stroke-width:7.87402; stroke-opacity:1; 
stroke-linecap:round; stroke-linejoin:round;">
</g>
<g style="fill:#000000; fill-opacity:0.0; 
stroke:#000000; stroke-width:59.0551; stroke-opacity:1; 
stroke-linecap:round; stroke-linejoin:round;">
<text x="70079.6" y="68802"
textLength="14035.4" font-size="787.402" lengthAdjust="spacingAndGlyphs"
text-anchor="start" opacity="0">works with USBtinyisp software</text>
<path d="M70193 68380
L70305 68773
L70418 68492
L70530 68773
L70643 68380
" />
<path d="M70952 68773
L70896 68745
L70868 68717
L70840 68661
L70840 68492
L70868 68436
L70896 68408
L70952 68380
L71037 68380
L71093 68408
L71121 68436
L71149 68492
L71149 68661
L71121 68717
L71093 68745
L71037 68773
L70952 68773
" />
<path d="M71402 68773
L71402 68380
" />
<path d="M71402 68492
L71430 68436
L71458 68408
L71515 68380
L71571 68380
" />
<path d="M71768 68773
L71768 68183
" />
<path d="M71824 68548
L71993 68773
" />
<path d="M71993 68380
L71768 68605
" />
<path d="M72218 68745
L72274 68773
L72386 68773
L72443 68745
L72471 68689
L72471 68661
L72443 68605
L72386 68577
L72302 68577
L72246 68548
L72218 68492
L72218 68464
L72246 68408
L72302 68380
L72386 68380
L72443 68408
" />
<path d="M73118 68380
L73230 68773
L73343 68492
L73455 68773
L73568 68380
" />
<path d="M73793 68773
L73793 68380
" />
<path d="M73793 68183
L73764 68211
L73793 68239
L73821 68211
L73793 68183
L73793 68239
" />
<path d="M73989 68380
L74214 68380
" />
<path d="M74074 68183
L74074 68689
L74102 68745
L74158 68773
L74214 68773
" />
<path d="M74411 68773
L74411 68183
" />
<path d="M74664 68773
L74664 68464
L74636 68408
L74580 68380
L74496 68380
L74439 68408
L74411 68436
" />
<path d="M75395 68183
L75395 68661
L75424 68717
L75452 68745
L75508 68773
L75620 68773
L75677 68745
L75705 68717
L75733 68661
L75733 68183
" />
<path d="M75986 68745
L76070 68773
L76211 68773
L76267 68745
L76295 68717
L76323 68661
L76323 68605
L76295 68548
L76267 68520
L76211 68492
L76099 68464
L76042 68436
L76014 68408
L75986 68352
L75986 68295
L76014 68239
L76042 68211
L76099 68183
L76239 68183
L76323 68211
" />
<path d="M76773 68464
L76858 68492
L76886 68520
L76914 68577
L76914 68661
L76886 68717
L76858 68745
L76802 68773
L76577 68773
L76577 68183
L76773 68183
L76830 68211
L76858 68239
L76886 68295
L76886 68352
L76858 68408
L76830 68436
L76773 68464
L76577 68464
" />
<path d="M77083 68380
L77308 68380
" />
<path d="M77167 68183
L77167 68689
L77195 68745
L77251 68773
L77308 68773
" />
<path d="M77505 68773
L77505 68380
" />
<path d="M77505 68183
L77476 68211
L77505 68239
L77533 68211
L77505 68183
L77505 68239
" />
<path d="M77786 68380
L77786 68773
" />
<path d="M77786 68436
L77814 68408
L77870 68380
L77955 68380
L78011 68408
L78039 68464
L78039 68773
" />
<path d="M78264 68380
L78404 68773
" />
<path d="M78545 68380
L78404 68773
L78348 68914
L78320 68942
L78264 68970
" />
<path d="M78770 68773
L78770 68380
" />
<path d="M78770 68183
L78742 68211
L78770 68239
L78798 68211
L78770 68183
L78770 68239
" />
<path d="M79023 68745
L79079 68773
L79192 68773
L79248 68745
L79276 68689
L79276 68661
L79248 68605
L79192 68577
L79108 68577
L79051 68548
L79023 68492
L79023 68464
L79051 68408
L79108 68380
L79192 68380
L79248 68408
" />
<path d="M79529 68380
L79529 68970
" />
<path d="M79529 68408
L79586 68380
L79698 68380
L79754 68408
L79782 68436
L79811 68492
L79811 68661
L79782 68717
L79754 68745
L79698 68773
L79586 68773
L79529 68745
" />
<path d="M80485 68745
L80542 68773
L80654 68773
L80710 68745
L80739 68689
L80739 68661
L80710 68605
L80654 68577
L80570 68577
L80514 68548
L80485 68492
L80485 68464
L80514 68408
L80570 68380
L80654 68380
L80710 68408
" />
<path d="M81076 68773
L81020 68745
L80992 68717
L80964 68661
L80964 68492
L80992 68436
L81020 68408
L81076 68380
L81160 68380
L81217 68408
L81245 68436
L81273 68492
L81273 68661
L81245 68717
L81217 68745
L81160 68773
L81076 68773
" />
<path d="M81442 68380
L81667 68380
" />
<path d="M81526 68773
L81526 68267
L81554 68211
L81610 68183
L81667 68183
" />
<path d="M81779 68380
L82004 68380
" />
<path d="M81863 68183
L81863 68689
L81892 68745
L81948 68773
L82004 68773
" />
<path d="M82145 68380
L82257 68773
L82370 68492
L82482 68773
L82595 68380
" />
<path d="M83073 68773
L83073 68464
L83045 68408
L82988 68380
L82876 68380
L82820 68408
" />
<path d="M83073 68745
L83016 68773
L82876 68773
L82820 68745
L82791 68689
L82791 68633
L82820 68577
L82876 68548
L83016 68548
L83073 68520
" />
<path d="M83354 68773
L83354 68380
" />
<path d="M83354 68492
L83382 68436
L83410 68408
L83466 68380
L83523 68380
" />
<path d="M83944 68745
L83888 68773
L83776 68773
L83719 68745
L83691 68689
L83691 68464
L83719 68408
L83776 68380
L83888 68380
L83944 68408
L83973 68464
L83973 68520
L83691 68577
" />
</g>
<g style="fill:#000000; fill-opacity:0.0; 
stroke:#000000; stroke-width:7.87402; stroke-opacity:1; 
stroke-linecap:round; stroke-linejoin:round;">
</g>
<g style="fill:#000000; fill-opacity:0.0; 
stroke:#000000; stroke-width:59.0551; stroke-opacity:1; 
stroke-linecap:round; stroke-linejoin:round;">
<text x="70079.6" y="67620.9"
textLength="25930.8" font-size="787.402" lengthAdjust="spacingAndGlyphs"
text-anchor="start" opacity="0">http://fab.cba.mit.edu/content/archive/projects/fabisp/</text>
<path d="M70249 67592
L70249 67002
" />
<path d="M70502 67592
L70502 67283
L70474 67227
L70418 67199
L70334 67199
L70277 67227
L70249 67255
" />
<path d="M70699 67199
L70924 67199
" />
<path d="M70784 67002
L70784 67508
L70812 67564
L70868 67592
L70924 67592
" />
<path d="M71037 67199
L71262 67199
" />
<path d="M71121 67002
L71121 67508
L71149 67564
L71205 67592
L71262 67592
" />
<path d="M71458 67199
L71458 67789
" />
<path d="M71458 67227
L71515 67199
L71627 67199
L71683 67227
L71712 67255
L71740 67311
L71740 67480
L71712 67536
L71683 67564
L71627 67592
L71515 67592
L71458 67564
" />
<path d="M71993 67536
L72021 67564
L71993 67592
L71965 67564
L71993 67536
L71993 67592
" />
<path d="M71993 67227
L72021 67255
L71993 67283
L71965 67255
L71993 67227
L71993 67283
" />
<path d="M72696 66974
L72190 67733
" />
<path d="M73314 66974
L72808 67733
" />
<path d="M73427 67199
L73652 67199
" />
<path d="M73511 67592
L73511 67086
L73539 67030
L73596 67002
L73652 67002
" />
<path d="M74102 67592
L74102 67283
L74074 67227
L74018 67199
L73905 67199
L73849 67227
" />
<path d="M74102 67564
L74046 67592
L73905 67592
L73849 67564
L73821 67508
L73821 67452
L73849 67395
L73905 67367
L74046 67367
L74102 67339
" />
<path d="M74383 67592
L74383 67002
" />
<path d="M74383 67227
L74439 67199
L74552 67199
L74608 67227
L74636 67255
L74664 67311
L74664 67480
L74636 67536
L74608 67564
L74552 67592
L74439 67592
L74383 67564
" />
<path d="M74917 67536
L74946 67564
L74917 67592
L74889 67564
L74917 67536
L74917 67592
" />
<path d="M75452 67564
L75395 67592
L75283 67592
L75227 67564
L75199 67536
L75171 67480
L75171 67311
L75199 67255
L75227 67227
L75283 67199
L75395 67199
L75452 67227
" />
<path d="M75705 67592
L75705 67002
" />
<path d="M75705 67227
L75761 67199
L75874 67199
L75930 67227
L75958 67255
L75986 67311
L75986 67480
L75958 67536
L75930 67564
L75874 67592
L75761 67592
L75705 67564
" />
<path d="M76492 67592
L76492 67283
L76464 67227
L76408 67199
L76295 67199
L76239 67227
" />
<path d="M76492 67564
L76436 67592
L76295 67592
L76239 67564
L76211 67508
L76211 67452
L76239 67395
L76295 67367
L76436 67367
L76492 67339
" />
<path d="M76773 67536
L76802 67564
L76773 67592
L76745 67564
L76773 67536
L76773 67592
" />
<path d="M77055 67592
L77055 67199
" />
<path d="M77055 67255
L77083 67227
L77139 67199
L77223 67199
L77280 67227
L77308 67283
L77308 67592
" />
<path d="M77308 67283
L77336 67227
L77392 67199
L77476 67199
L77533 67227
L77561 67283
L77561 67592
" />
<path d="M77842 67592
L77842 67199
" />
<path d="M77842 67002
L77814 67030
L77842 67058
L77870 67030
L77842 67002
L77842 67058
" />
<path d="M78039 67199
L78264 67199
" />
<path d="M78123 67002
L78123 67508
L78151 67564
L78208 67592
L78264 67592
" />
<path d="M78461 67536
L78489 67564
L78461 67592
L78433 67564
L78461 67536
L78461 67592
" />
<path d="M78967 67564
L78911 67592
L78798 67592
L78742 67564
L78714 67508
L78714 67283
L78742 67227
L78798 67199
L78911 67199
L78967 67227
L78995 67283
L78995 67339
L78714 67395
" />
<path d="M79501 67592
L79501 67002
" />
<path d="M79501 67564
L79445 67592
L79332 67592
L79276 67564
L79248 67536
L79220 67480
L79220 67311
L79248 67255
L79276 67227
L79332 67199
L79445 67199
L79501 67227
" />
<path d="M80036 67199
L80036 67592
" />
<path d="M79782 67199
L79782 67508
L79811 67564
L79867 67592
L79951 67592
L80007 67564
L80036 67536
" />
<path d="M80739 66974
L80232 67733
" />
<path d="M81188 67564
L81132 67592
L81020 67592
L80964 67564
L80935 67536
L80907 67480
L80907 67311
L80935 67255
L80964 67227
L81020 67199
L81132 67199
L81188 67227
" />
<path d="M81526 67592
L81470 67564
L81442 67536
L81413 67480
L81413 67311
L81442 67255
L81470 67227
L81526 67199
L81610 67199
L81667 67227
L81695 67255
L81723 67311
L81723 67480
L81695 67536
L81667 67564
L81610 67592
L81526 67592
" />
<path d="M81976 67199
L81976 67592
" />
<path d="M81976 67255
L82004 67227
L82060 67199
L82145 67199
L82201 67227
L82229 67283
L82229 67592
" />
<path d="M82426 67199
L82651 67199
" />
<path d="M82510 67002
L82510 67508
L82538 67564
L82595 67592
L82651 67592
" />
<path d="M83073 67564
L83016 67592
L82904 67592
L82848 67564
L82820 67508
L82820 67283
L82848 67227
L82904 67199
L83016 67199
L83073 67227
L83101 67283
L83101 67339
L82820 67395
" />
<path d="M83354 67199
L83354 67592
" />
<path d="M83354 67255
L83382 67227
L83438 67199
L83523 67199
L83579 67227
L83607 67283
L83607 67592
" />
<path d="M83804 67199
L84029 67199
" />
<path d="M83888 67002
L83888 67508
L83916 67564
L83973 67592
L84029 67592
" />
<path d="M84647 66974
L84141 67733
" />
<path d="M85097 67592
L85097 67283
L85069 67227
L85013 67199
L84901 67199
L84844 67227
" />
<path d="M85097 67564
L85041 67592
L84901 67592
L84844 67564
L84816 67508
L84816 67452
L84844 67395
L84901 67367
L85041 67367
L85097 67339
" />
<path d="M85379 67592
L85379 67199
" />
<path d="M85379 67311
L85407 67255
L85435 67227
L85491 67199
L85547 67199
" />
<path d="M85997 67564
L85941 67592
L85829 67592
L85772 67564
L85744 67536
L85716 67480
L85716 67311
L85744 67255
L85772 67227
L85829 67199
L85941 67199
L85997 67227
" />
<path d="M86250 67592
L86250 67002
" />
<path d="M86503 67592
L86503 67283
L86475 67227
L86419 67199
L86335 67199
L86278 67227
L86250 67255
" />
<path d="M86785 67592
L86785 67199
" />
<path d="M86785 67002
L86757 67030
L86785 67058
L86813 67030
L86785 67002
L86785 67058
" />
<path d="M87010 67199
L87150 67592
L87291 67199
" />
<path d="M87741 67564
L87685 67592
L87572 67592
L87516 67564
L87488 67508
L87488 67283
L87516 67227
L87572 67199
L87685 67199
L87741 67227
L87769 67283
L87769 67339
L87488 67395
" />
<path d="M88444 66974
L87938 67733
" />
<path d="M88641 67199
L88641 67789
" />
<path d="M88641 67227
L88697 67199
L88809 67199
L88866 67227
L88894 67255
L88922 67311
L88922 67480
L88894 67536
L88866 67564
L88809 67592
L88697 67592
L88641 67564
" />
<path d="M89175 67592
L89175 67199
" />
<path d="M89175 67311
L89203 67255
L89231 67227
L89287 67199
L89344 67199
" />
<path d="M89625 67592
L89569 67564
L89541 67536
L89512 67480
L89512 67311
L89541 67255
L89569 67227
L89625 67199
L89709 67199
L89766 67227
L89794 67255
L89822 67311
L89822 67480
L89794 67536
L89766 67564
L89709 67592
L89625 67592
" />
<path d="M90075 67199
L90075 67705
L90047 67761
L89991 67789
L89962 67789
" />
<path d="M90075 67002
L90047 67030
L90075 67058
L90103 67030
L90075 67002
L90075 67058
" />
<path d="M90581 67564
L90525 67592
L90412 67592
L90356 67564
L90328 67508
L90328 67283
L90356 67227
L90412 67199
L90525 67199
L90581 67227
L90609 67283
L90609 67339
L90328 67395
" />
<path d="M91115 67564
L91059 67592
L90947 67592
L90890 67564
L90862 67536
L90834 67480
L90834 67311
L90862 67255
L90890 67227
L90947 67199
L91059 67199
L91115 67227
" />
<path d="M91284 67199
L91509 67199
" />
<path d="M91368 67002
L91368 67508
L91397 67564
L91453 67592
L91509 67592
" />
<path d="M91678 67564
L91734 67592
L91847 67592
L91903 67564
L91931 67508
L91931 67480
L91903 67424
L91847 67395
L91762 67395
L91706 67367
L91678 67311
L91678 67283
L91706 67227
L91762 67199
L91847 67199
L91903 67227
" />
<path d="M92606 66974
L92100 67733
" />
<path d="M92718 67199
L92943 67199
" />
<path d="M92803 67592
L92803 67086
L92831 67030
L92887 67002
L92943 67002
" />
<path d="M93393 67592
L93393 67283
L93365 67227
L93309 67199
L93196 67199
L93140 67227
" />
<path d="M93393 67564
L93337 67592
L93196 67592
L93140 67564
L93112 67508
L93112 67452
L93140 67395
L93196 67367
L93337 67367
L93393 67339
" />
<path d="M93674 67592
L93674 67002
" />
<path d="M93674 67227
L93731 67199
L93843 67199
L93899 67227
L93928 67255
L93956 67311
L93956 67480
L93928 67536
L93899 67564
L93843 67592
L93731 67592
L93674 67564
" />
<path d="M94209 67592
L94209 67199
" />
<path d="M94209 67002
L94181 67030
L94209 67058
L94237 67030
L94209 67002
L94209 67058
" />
<path d="M94462 67564
L94518 67592
L94631 67592
L94687 67564
L94715 67508
L94715 67480
L94687 67424
L94631 67395
L94546 67395
L94490 67367
L94462 67311
L94462 67283
L94490 67227
L94546 67199
L94631 67199
L94687 67227
" />
<path d="M94968 67199
L94968 67789
" />
<path d="M94968 67227
L95024 67199
L95137 67199
L95193 67227
L95221 67255
L95249 67311
L95249 67480
L95221 67536
L95193 67564
L95137 67592
L95024 67592
L94968 67564
" />
<path d="M95924 66974
L95418 67733
" />
</g>
<g style="fill:#000000; fill-opacity:0.0; 
stroke:#000000; stroke-width:7.87402; stroke-opacity:1; 
stroke-linecap:round; stroke-linejoin:round;">
</g>
<g style="fill:#000000; fill-opacity:0.0; 
stroke:#000000; stroke-width:59.0551; stroke-opacity:1; 
stroke-linecap:round; stroke-linejoin:round;">
<text x="70079.6" y="66439.8"
textLength="21712.6" font-size="787.402" lengthAdjust="spacingAndGlyphs"
text-anchor="start" opacity="0">https://learn.adafruit.com/usbtinyisp/download</text>
<path d="M70249 66411
L70249 65821
" />
<path d="M70502 66411
L70502 66102
L70474 66046
L70418 66018
L70334 66018
L70277 66046
L70249 66074
" />
<path d="M70699 66018
L70924 66018
" />
<path d="M70784 65821
L70784 66327
L70812 66383
L70868 66411
L70924 66411
" />
<path d="M71037 66018
L71262 66018
" />
<path d="M71121 65821
L71121 66327
L71149 66383
L71205 66411
L71262 66411
" />
<path d="M71458 66018
L71458 66608
" />
<path d="M71458 66046
L71515 66018
L71627 66018
L71683 66046
L71712 66074
L71740 66130
L71740 66299
L71712 66355
L71683 66383
L71627 66411
L71515 66411
L71458 66383
" />
<path d="M71965 66383
L72021 66411
L72133 66411
L72190 66383
L72218 66327
L72218 66299
L72190 66242
L72133 66214
L72049 66214
L71993 66186
L71965 66130
L71965 66102
L71993 66046
L72049 66018
L72133 66018
L72190 66046
" />
<path d="M72471 66355
L72499 66383
L72471 66411
L72443 66383
L72471 66355
L72471 66411
" />
<path d="M72471 66046
L72499 66074
L72471 66102
L72443 66074
L72471 66046
L72471 66102
" />
<path d="M73174 65793
L72668 66552
" />
<path d="M73793 65793
L73286 66552
" />
<path d="M74074 66411
L74018 66383
L73989 66327
L73989 65821
" />
<path d="M74524 66383
L74467 66411
L74355 66411
L74299 66383
L74271 66327
L74271 66102
L74299 66046
L74355 66018
L74467 66018
L74524 66046
L74552 66102
L74552 66158
L74271 66214
" />
<path d="M75058 66411
L75058 66102
L75030 66046
L74974 66018
L74861 66018
L74805 66046
" />
<path d="M75058 66383
L75002 66411
L74861 66411
L74805 66383
L74777 66327
L74777 66271
L74805 66214
L74861 66186
L75002 66186
L75058 66158
" />
<path d="M75339 66411
L75339 66018
" />
<path d="M75339 66130
L75367 66074
L75395 66046
L75452 66018
L75508 66018
" />
<path d="M75705 66018
L75705 66411
" />
<path d="M75705 66074
L75733 66046
L75789 66018
L75874 66018
L75930 66046
L75958 66102
L75958 66411
" />
<path d="M76239 66355
L76267 66383
L76239 66411
L76211 66383
L76239 66355
L76239 66411
" />
<path d="M76773 66411
L76773 66102
L76745 66046
L76689 66018
L76577 66018
L76520 66046
" />
<path d="M76773 66383
L76717 66411
L76577 66411
L76520 66383
L76492 66327
L76492 66271
L76520 66214
L76577 66186
L76717 66186
L76773 66158
" />
<path d="M77308 66411
L77308 65821
" />
<path d="M77308 66383
L77251 66411
L77139 66411
L77083 66383
L77055 66355
L77027 66299
L77027 66130
L77055 66074
L77083 66046
L77139 66018
L77251 66018
L77308 66046
" />
<path d="M77842 66411
L77842 66102
L77814 66046
L77758 66018
L77645 66018
L77589 66046
" />
<path d="M77842 66383
L77786 66411
L77645 66411
L77589 66383
L77561 66327
L77561 66271
L77589 66214
L77645 66186
L77786 66186
L77842 66158
" />
<path d="M78039 66018
L78264 66018
" />
<path d="M78123 66411
L78123 65905
L78151 65849
L78208 65821
L78264 65821
" />
<path d="M78461 66411
L78461 66018
" />
<path d="M78461 66130
L78489 66074
L78517 66046
L78573 66018
L78629 66018
" />
<path d="M79079 66018
L79079 66411
" />
<path d="M78826 66018
L78826 66327
L78854 66383
L78911 66411
L78995 66411
L79051 66383
L79079 66355
" />
<path d="M79361 66411
L79361 66018
" />
<path d="M79361 65821
L79332 65849
L79361 65877
L79389 65849
L79361 65821
L79361 65877
" />
<path d="M79557 66018
L79782 66018
" />
<path d="M79642 65821
L79642 66327
L79670 66383
L79726 66411
L79782 66411
" />
<path d="M79979 66355
L80007 66383
L79979 66411
L79951 66383
L79979 66355
L79979 66411
" />
<path d="M80514 66383
L80457 66411
L80345 66411
L80289 66383
L80260 66355
L80232 66299
L80232 66130
L80260 66074
L80289 66046
L80345 66018
L80457 66018
L80514 66046
" />
<path d="M80851 66411
L80795 66383
L80767 66355
L80739 66299
L80739 66130
L80767 66074
L80795 66046
L80851 66018
L80935 66018
L80992 66046
L81020 66074
L81048 66130
L81048 66299
L81020 66355
L80992 66383
L80935 66411
L80851 66411
" />
<path d="M81301 66411
L81301 66018
" />
<path d="M81301 66074
L81329 66046
L81385 66018
L81470 66018
L81526 66046
L81554 66102
L81554 66411
" />
<path d="M81554 66102
L81582 66046
L81638 66018
L81723 66018
L81779 66046
L81807 66102
L81807 66411
" />
<path d="M82510 65793
L82004 66552
" />
<path d="M82960 66018
L82960 66411
" />
<path d="M82707 66018
L82707 66327
L82735 66383
L82791 66411
L82876 66411
L82932 66383
L82960 66355
" />
<path d="M83213 66383
L83269 66411
L83382 66411
L83438 66383
L83466 66327
L83466 66299
L83438 66242
L83382 66214
L83298 66214
L83241 66186
L83213 66130
L83213 66102
L83241 66046
L83298 66018
L83382 66018
L83438 66046
" />
<path d="M83719 66411
L83719 65821
" />
<path d="M83719 66046
L83776 66018
L83888 66018
L83944 66046
L83973 66074
L84001 66130
L84001 66299
L83973 66355
L83944 66383
L83888 66411
L83776 66411
L83719 66383
" />
<path d="M84169 66018
L84394 66018
" />
<path d="M84254 65821
L84254 66327
L84282 66383
L84338 66411
L84394 66411
" />
<path d="M84591 66411
L84591 66018
" />
<path d="M84591 65821
L84563 65849
L84591 65877
L84619 65849
L84591 65821
L84591 65877
" />
<path d="M84872 66018
L84872 66411
" />
<path d="M84872 66074
L84901 66046
L84957 66018
L85041 66018
L85097 66046
L85126 66102
L85126 66411
" />
<path d="M85350 66018
L85491 66411
" />
<path d="M85632 66018
L85491 66411
L85435 66552
L85407 66580
L85350 66608
" />
<path d="M85857 66411
L85857 66018
" />
<path d="M85857 65821
L85829 65849
L85857 65877
L85885 65849
L85857 65821
L85857 65877
" />
<path d="M86110 66383
L86166 66411
L86278 66411
L86335 66383
L86363 66327
L86363 66299
L86335 66242
L86278 66214
L86194 66214
L86138 66186
L86110 66130
L86110 66102
L86138 66046
L86194 66018
L86278 66018
L86335 66046
" />
<path d="M86616 66018
L86616 66608
" />
<path d="M86616 66046
L86672 66018
L86785 66018
L86841 66046
L86869 66074
L86897 66130
L86897 66299
L86869 66355
L86841 66383
L86785 66411
L86672 66411
L86616 66383
" />
<path d="M87572 65793
L87066 66552
" />
<path d="M88022 66411
L88022 65821
" />
<path d="M88022 66383
L87966 66411
L87853 66411
L87797 66383
L87769 66355
L87741 66299
L87741 66130
L87769 66074
L87797 66046
L87853 66018
L87966 66018
L88022 66046
" />
<path d="M88388 66411
L88331 66383
L88303 66355
L88275 66299
L88275 66130
L88303 66074
L88331 66046
L88388 66018
L88472 66018
L88528 66046
L88556 66074
L88584 66130
L88584 66299
L88556 66355
L88528 66383
L88472 66411
L88388 66411
" />
<path d="M88781 66018
L88894 66411
L89006 66130
L89119 66411
L89231 66018
" />
<path d="M89456 66018
L89456 66411
" />
<path d="M89456 66074
L89484 66046
L89541 66018
L89625 66018
L89681 66046
L89709 66102
L89709 66411
" />
<path d="M90075 66411
L90019 66383
L89991 66327
L89991 65821
" />
<path d="M90384 66411
L90328 66383
L90300 66355
L90272 66299
L90272 66130
L90300 66074
L90328 66046
L90384 66018
L90469 66018
L90525 66046
L90553 66074
L90581 66130
L90581 66299
L90553 66355
L90525 66383
L90469 66411
L90384 66411
" />
<path d="M91087 66411
L91087 66102
L91059 66046
L91003 66018
L90890 66018
L90834 66046
" />
<path d="M91087 66383
L91031 66411
L90890 66411
L90834 66383
L90806 66327
L90806 66271
L90834 66214
L90890 66186
L91031 66186
L91087 66158
" />
<path d="M91622 66411
L91622 65821
" />
<path d="M91622 66383
L91565 66411
L91453 66411
L91397 66383
L91368 66355
L91340 66299
L91340 66130
L91368 66074
L91397 66046
L91453 66018
L91565 66018
L91622 66046
" />
</g>
<g style="fill:#000000; fill-opacity:0.0; 
stroke:#000000; stroke-width:7.87402; stroke-opacity:1; 
stroke-linecap:round; stroke-linejoin:round;">
</g>
<g style="fill:#000000; fill-opacity:0.0; 
stroke:#000000; stroke-width:59.0551; stroke-opacity:1; 
stroke-linecap:round; stroke-linejoin:round;">
<path d="M77559 75396
L77559 76577
" />
</g>
<g style="fill:#000000; fill-opacity:0.0; 
stroke:#000000; stroke-width:7.87402; stroke-opacity:1; 
stroke-linecap:round; stroke-linejoin:round;">
</g>
<g style="fill:#000000; fill-opacity:0.0; 
stroke:#000000; stroke-width:59.0551; stroke-opacity:1; 
stroke-linecap:round; stroke-linejoin:round;">
<path d="M102756 75396
L102756 77955
" />
</g>
<g style="fill:#000000; fill-opacity:0.0; 
stroke:#000000; stroke-width:39.3701; stroke-opacity:1; 
stroke-linecap:round; stroke-linejoin:round;">
<path d="M5912 65306
L5912 53906
" />
<path d="M63552 53906
L63552 65306
" />
<path d="M23552 65306
L5912 65306
" />
<path d="M25912 53906
L43552 53906
" />
<path d="M65912 65306
L65912 53906
" />
<path d="M85912 65306
L85912 53906
" />
<path d="M23552 53906
L23552 65306
" />
<path d="M83552 53906
L83552 65306
" />
<path d="M43552 53906
L43552 65306
" />
<path d="M43552 65306
L25912 65306
" />
<path d="M25912 65306
L25912 53906
" />
<path d="M45912 53906
L63552 53906
" />
<path d="M103552 65306
L85912 65306
" />
<path d="M5912 53906
L23552 53906
" />
<path d="M85912 53906
L103552 53906
" />
<path d="M103552 53906
L103552 65306
" />
<path d="M63552 65306
L45912 65306
" />
<path d="M83552 65306
L65912 65306
" />
<path d="M65912 53906
L83552 53906
" />
<path d="M45912 65306
L45912 53906
" />
<path d="M5912 53306
L5912 41906
" />
<path d="M65912 53306
L65912 41906
" />
<path d="M85912 53306
L85912 41906
" />
<path d="M23552 41906
L23552 53306
" />
<path d="M25912 41906
L43552 41906
" />
<path d="M23552 53306
L5912 53306
" />
<path d="M63552 41906
L63552 53306
" />
<path d="M83552 41906
L83552 53306
" />
<path d="M43552 41906
L43552 53306
" />
<path d="M43552 53306
L25912 53306
" />
<path d="M25912 53306
L25912 41906
" />
<path d="M45912 41906
L63552 41906
" />
<path d="M103552 53306
L85912 53306
" />
<path d="M63552 53306
L45912 53306
" />
<path d="M83552 53306
L65912 53306
" />
<path d="M65912 41906
L83552 41906
" />
<path d="M5912 41906
L23552 41906
" />
<path d="M45912 53306
L45912 41906
" />
<path d="M85912 41906
L103552 41906
" />
<path d="M103552 41906
L103552 53306
" />
<path d="M63552 41306
L45912 41306
" />
<path d="M5912 41306
L5912 29906
" />
<path d="M83552 41306
L65912 41306
" />
<path d="M85912 29906
L103552 29906
" />
<path d="M5912 29906
L23552 29906
" />
<path d="M25912 29906
L43552 29906
" />
<path d="M43552 41306
L25912 41306
" />
<path d="M63552 29906
L63552 41306
" />
<path d="M25912 41306
L25912 29906
" />
<path d="M103552 41306
L85912 41306
" />
<path d="M45912 41306
L45912 29906
" />
<path d="M45912 29906
L63552 29906
" />
<path d="M65912 29906
L83552 29906
" />
<path d="M65912 41306
L65912 29906
" />
<path d="M85912 41306
L85912 29906
" />
<path d="M23552 41306
L5912 41306
" />
<path d="M23552 29906
L23552 41306
" />
<path d="M83552 29906
L83552 41306
" />
<path d="M43552 29906
L43552 41306
" />
<path d="M103552 29906
L103552 41306
" />
<path d="M23552 29306
L5912 29306
" />
<path d="M5912 29306
L5912 17906
" />
<path d="M5912 17906
L23552 17906
" />
<path d="M23552 17906
L23552 29306
" />
<path d="M25912 17906
L43552 17906
" />
<path d="M83552 17906
L83552 29306
" />
<path d="M65912 29306
L65912 17906
" />
<path d="M43552 29306
L25912 29306
" />
<path d="M63552 17906
L63552 29306
" />
<path d="M85912 29306
L85912 17906
" />
<path d="M103552 29306
L85912 29306
" />
<path d="M45912 29306
L45912 17906
" />
<path d="M83552 29306
L65912 29306
" />
<path d="M43552 17906
L43552 29306
" />
<path d="M85912 17906
L103552 17906
" />
<path d="M45912 17906
L63552 17906
" />
<path d="M25912 29306
L25912 17906
" />
<path d="M103552 17906
L103552 29306
" />
<path d="M65912 17906
L83552 17906
" />
<path d="M63552 29306
L45912 29306
" />
<path d="M103552 5906
L103552 17306
" />
<path d="M85912 17306
L85912 5906
" />
<path d="M103552 17306
L85912 17306
" />
<path d="M85912 5906
L103552 5906
" />
<path d="M83552 5906
L83552 17306
" />
<path d="M65912 17306
L65912 5906
" />
<path d="M65912 5906
L83552 5906
" />
<path d="M83552 17306
L65912 17306
" />
<path d="M45912 5906
L63552 5906
" />
<path d="M63552 17306
L45912 17306
" />
<path d="M63552 5906
L63552 17306
" />
<path d="M45912 17306
L45912 5906
" />
<path d="M43552 17306
L25912 17306
" />
<path d="M25912 17306
L25912 5906
" />
<path d="M25912 5906
L43552 5906
" />
<path d="M43552 5906
L43552 17306
" />
<path d="M23552 5906
L23552 17306
" />
<path d="M5912 5906
L23552 5906
" />
<path d="M5912 17306
L5912 5906
" />
<path d="M23552 17306
L5912 17306
" />
<g >
</g>
<g >
</g>
<g >
</g>
<g >
</g>
<g >
</g>
<g >
</g>
<g >
</g>
<g >
</g>
<g >
</g>
<g >
</g>
<g >
</g>
<g >
</g>
<g >
</g>
<g >
</g>
<g >
</g>
<g >
</g>
<g >
</g>
<g >
</g>
<g >
</g>
<g >
</g>
<g >
</g>
<g >
</g>
<g >
</g>
<g >
</g>
<g >
</g>
<g >
</g>
<g >
</g>
<g >
</g>
<g >
</g>
<g >
</g>
<g >
</g>
<g >
</g>
<g >
</g>
<g >
</g>
<g >
</g>
<g >
</g>
<g >
</g>
<g >
</g>
<g >
</g>
<g >
</g>
<g >
</g>
<g >
</g>
<g >
</g>
<g >
</g>
<g >
</g>
<g >
</g>
<g >
</g>
<g >
</g>
<g >
</g>
<g >
</g>
<g >
</g>
<g >
</g>
<g >
</g>
<g >
</g>
<g >
</g>
<g >
</g>
<g >
</g>
<g >
</g>
<g >
</g>
<g >
</g>
<g >
</g>
<g >
</g>
<g >
</g>
<g >
</g>
<g >
</g>
<g >
</g>
<g >
</g>
<g >
</g>
<g >
</g>
<g >
</g>
<g >
</g>
<g >
</g>
<g >
</g>
<g >
</g>
<g >
</g>
<g >
</g>
<g >
</g>
<g >
</g>
<g >
</g>
<g >
</g>
<g >
</g>
<g >
</g>
<g >
</g>
<g >
</g>
<g >
</g>
<g >
</g>
<g >
</g>
<g >
</g>
<g >
</g>
<g >
</g>
<g >
</g>
<g >
</g>
<g >
</g>
<g >
</g>
<g >
</g>
<g >
</g>
<g >
</g>
<g >
</g>
<g >
</g>
<g >
</g>
<g >
</g>
<g >
</g>
<g >
</g>
<g >
</g>
<g >
</g>
<g >
</g>
<g >
</g>
<g >
</g>
<g >
</g>
<g >
</g>
<g >
</g>
<g >
</g>
<g >
</g>
<g >
</g>
<g >
</g>
<g >
</g>
<g >
</g>
<g >
</g>
<g >
</g>
<g >
</g>
<g >
</g>
<g >
</g>
<g >
</g>
<g >
</g>
<g >
</g>
<g >
</g>
<g >
</g>
<g >
</g>
<g >
</g>
<g >
</g>
<g >
</g>
<g >
</g>
<g >
</g>
<g >
</g>
<g >
</g>
<g >
</g>
<g >
</g>
<g >
</g>
<g >
</g>
<g >
</g>
<g >
</g>
<g >
</g>
<g >
</g>
<g >
</g>
<g >
</g>
<g >
</g>
<g >
</g>
<g >
</g>
<g >
</g>
<g >
</g>
<g >
</g>
<g >
</g>
<g >
</g>
<g >
</g>
<g >
</g>
<g >
</g>
<g >
</g>
<g >
</g>
<g >
</g>
<g >
</g>
<g >
</g>
<g >
</g>
<g >
</g>
<g >
</g>
<g >
</g>
<g >
</g>
<g >
</g>
<g >
</g>
<g >
</g>
<g >
</g>
<g >
</g>
<g >
</g>
<g >
</g>
<g >
</g>
<g >
</g>
<g >
</g>
<g >
</g>
<g >
</g>
<g >
</g>
<g >
</g>
<g >
</g>
<g >
</g>
<g >
</g>
<g >
</g>
<g >
</g>
<g >
</g>
<g >
</g>
<g >
</g>
<g >
</g>
<g >
</g>
<g >
</g>
<g >
</g>
<g >
</g>
<g >
</g>
<g >
</g>
<g >
</g>
<g >
</g>
<g >
</g>
<g >
</g>
<g >
</g>
<g >
</g>
<g >
</g>
<g >
</g>
<g >
</g>
<g >
</g>
<g >
</g>
<g >
</g>
<g >
</g>
<g >
</g>
<g >
</g>
<g >
</g>
<g >
</g>
<g >
</g>
<g >
</g>
<g >
</g>
<g >
</g>
<g >
</g>
<g >
</g>
<g >
</g>
<g >
</g>
<g >
</g>
<g >
</g>
<g >
</g>
<g >
</g>
<g >
</g>
<g >
</g>
<g >
</g>
<g >
</g>
<g >
</g>
<g >
</g>
<g >
</g>
<g >
</g>
<g >
</g>
<g >
</g>
<g >
</g>
<g >
</g>
<g >
</g>
<g >
</g>
<g >
</g>
<g >
</g>
<g >
</g>
<g >
</g>
<g >
</g>
<g >
</g>
<g >
</g>
<g >
</g>
<g >
</g>
<g >
</g>
<g >
</g>
<g >
</g>
<g >
</g>
<g >
</g>
<g >
</g>
<g >
</g>
<g >
</g>
<g >
</g>
<g >
</g>
<g >
</g>
<g >
</g>
<g >
</g>
<g >
</g>
<g >
</g>
<g >
</g>
<g >
</g>
<g >
</g>
<g >
</g>
<g >
</g>
<g >
</g>
<g >
</g>
<g >
</g>
<g >
</g>
<g >
</g>
<g >
</g>
<g >
</g>
<g >
</g>
<g >
</g>
<g >
</g>
<g >
</g>
<g >
</g>
<g >
</g>
<g >
</g>
<g >
</g>
<g >
</g>
<g >
</g>
<g >
</g>
<g >
</g>
<g >
</g>
<g >
</g>
<g >
</g>
<g >
</g>
<g >
</g>
<g >
</g>
<g >
</g>
<g >
</g>
<g >
</g>
<g >
</g>
<g >
</g>
<g >
</g>
<g >
</g>
<g >
</g>
<g >
</g>
<g >
</g>
<g >
</g>
<g >
</g>
<g >
</g>
<g >
</g>
<g >
</g>
<g >
</g>
<g >
</g>
<g >
</g>
<g >
</g>
<g >
</g>
<g >
</g>
<g >
</g>
<g >
</g>
<g >
</g>
<g >
</g>
<g >
</g>
<g >
</g>
<g >
</g>
<g >
</g>
<g >
</g>
<g >
</g>
<g >
</g>
<g >
</g>
<g >
</g>
<g >
</g>
<g >
</g>
<g >
</g>
<g >
</g>
<g >
</g>
<g >
</g>
<g >
</g>
<g >
</g>
<g >
</g>
<g >
</g>
<g >
</g>
<g >
</g>
<g >
</g>
<g >
</g>
<g >
</g>
<g >
</g>
<g >
</g>
<g >
</g>
<g >
</g>
<g >
</g>
<g >
</g>
<g >
</g>
<g >
</g>
<g >
</g>
<g >
</g>
<g >
</g>
<g >
</g>
<g >
</g>
<g >
</g>
<g >
</g>
<g >
</g>
<g >
</g>
<g >
</g>
<g >
</g>
<g >
</g>
<g >
</g>
<g >
</g>
<g >
</g>
<g >
</g>
<g >
</g>
<g >
</g>
<g >
</g>
<g >
</g>
<g >
</g>
<g >
</g>
<g >
</g>
<g >
</g>
<g >
</g>
<g >
</g>
<g >
</g>
<g >
</g>
<g >
</g>
<g >
</g>
<g >
</g>
<g >
</g>
<g >
</g>
<g >
</g>
<g >
</g>
<g >
</g>
<g >
</g>
<g >
</g>
<g >
</g>
<g >
</g>
<g >
</g>
<g >
</g>
<g >
</g>
<g >
</g>
<g >
</g>
<g >
</g>
<g >
</g>
<g >
</g>
<g >
</g>
<g >
</g>
<g >
</g>
<g >
</g>
<g >
</g>
<g >
</g>
<g >
</g>
<g >
</g>
<g >
</g>
<g >
</g>
<g >
</g>
<g >
</g>
<g >
</g>
<g >
</g>
<g >
</g>
<g >
</g>
<g >
</g>
<g >
</g>
<g >
</g>
<g >
</g>
<g >
</g>
<g >
</g>
<g >
</g>
<g >
</g>
<g >
</g>
<g >
</g>
<g >
</g>
<g >
</g>
<g >
</g>
<g >
</g>
<g >
</g>
<g >
</g>
<g >
</g>
<g >
</g>
<g >
</g>
<g >
</g>
<g >
</g>
<g >
</g>
<g >
</g>
<g >
</g>
<g >
</g>
<g >
</g>
<g >
</g>
<g >
</g>
<g >
</g>
<g >
</g>
<g >
</g>
<g >
</g>
<g >
</g>
<g >
</g>
<g >
</g>
<g >
</g>
<g >
</g>
<g >
</g>
<g >
</g>
<g >
</g>
<g >
</g>
<g >
</g>
<g >
</g>
<g >
</g>
<g >
</g>
<g >
</g>
<g >
</g>
<g >
</g>
<g >
</g>
<g >
</g>
<g >
</g>
<g >
</g>
<g >
</g>
<g >
</g>
<g >
</g>
<g >
</g>
<g >
</g>
<g >
</g>
<g >
</g>
<g >
</g>
<g >
</g>
<g >
</g>
<g >
</g>
<g >
</g>
<g >
</g>
<g >
</g>
<g >
</g>
<g >
</g>
<g >
</g>
<g >
</g>
<g >
</g>
<g >
</g>
<g >
</g>
<g >
</g>
<g >
</g>
<g >
</g>
<g >
</g>
<g >
</g>
<g >
</g>
<g >
</g>
<g >
</g>
<g >
</g>
<g >
</g>
<g >
</g>
<g >
</g>
<g >
</g>
<g >
</g>
<g >
</g>
<g >
</g>
<g >
</g>
<g >
</g>
<g >
</g>
<g >
</g>
<g >
</g>
<g >
</g>
<g >
</g>
<g >
</g>
<g >
</g>
<g >
</g>
<g >
</g>
<g >
</g>
<g >
</g>
<g >
</g>
<g >
</g>
<g >
</g>
<g >
</g>
<g >
</g>
<g >
</g>
<g >
</g>
<g >
</g>
<g >
</g>
<g >
</g>
<g >
</g>
<g >
</g>
<g >
</g>
<g >
</g>
<g >
</g>
</g> 
</svg>
